<svg width="145" height="31" viewBox="0 0 145 31" fill="none" xmlns="http://www.w3.org/2000/svg">
<circle cx="15.5207" cy="15.5188" r="13.302" fill="white"/>
<path d="M15.3076 2.95151e-07C18.3358 -0.000594183 21.2963 0.896849 23.8145 2.57883C26.3327 4.26082 28.2955 6.65179 29.4548 9.44938C30.6141 12.247 30.9177 15.3255 30.3273 18.2957C29.7369 21.2658 28.2789 23.9942 26.1378 26.1357C23.9967 28.2772 21.2686 29.7357 18.2986 30.3267C15.3286 30.9177 12.25 30.6147 9.45216 29.456C6.65434 28.2972 4.26298 26.3348 2.5805 23.817C0.898025 21.2991 5.83508e-08 18.3388 0 15.3106C-7.82326e-08 11.2505 1.61266 7.35662 4.4833 4.48542C7.35393 1.61422 11.2475 0.000797329 15.3076 2.95151e-07ZM22.8697 10.748C23.208 10.4097 23.3981 9.95071 23.3981 9.47217C23.3981 8.99362 23.208 8.53467 22.8697 8.19629C22.5313 7.8579 22.0723 7.6678 21.5938 7.6678C21.1152 7.6678 20.6563 7.8579 20.3179 8.19629L15.563 12.9512H15.1963L10.4415 8.19629C10.1031 7.8575 9.64399 7.66702 9.16516 7.66674C8.68633 7.66646 8.227 7.8564 7.88821 8.19479C7.54943 8.53317 7.35895 8.99228 7.35866 9.47111C7.35838 9.94994 7.54833 10.4093 7.88671 10.748L13.5372 16.3926V24.4716C13.5563 24.9415 13.7564 25.3858 14.0956 25.7115C14.4349 26.0372 14.8869 26.2191 15.3571 26.2191C15.8274 26.2191 16.2794 26.0372 16.6186 25.7115C16.9578 25.3858 17.1579 24.9415 17.177 24.4716V16.4377L22.8697 10.748Z" fill="#E03638"/>
<path d="M41.7423 2.70865C43.0116 2.70865 44.0413 3.14575 44.8314 4.01996C45.63 4.88575 46.0293 6.01633 46.0293 7.41169C46.0293 8.80706 45.63 9.94184 44.8314 10.816C44.0329 11.6818 42.9948 12.1147 41.7171 12.1147C40.431 12.1147 39.3887 11.6818 38.5901 10.816C37.8 9.95025 37.4049 8.81546 37.4049 7.41169C37.4049 6.04996 37.7916 4.92778 38.5649 4.04517C39.3467 3.15416 40.4058 2.70865 41.7423 2.70865ZM41.7171 4.03256C40.8933 4.03256 40.2335 4.33938 39.7375 4.953C39.2416 5.55822 38.9936 6.36938 38.9936 7.38648C38.9936 8.4288 39.2374 9.25677 39.7249 9.87039C40.2209 10.484 40.8933 10.7908 41.7423 10.7908C42.5577 10.7908 43.2091 10.484 43.6967 9.87039C44.1926 9.24836 44.4406 8.42459 44.4406 7.39909C44.4406 6.37358 44.1926 5.55822 43.6967 4.953C43.2091 4.33938 42.5493 4.03256 41.7171 4.03256ZM56.4663 8.54648C56.4663 9.19372 56.3822 9.77372 56.2141 10.2865C56.0544 10.7908 55.7686 11.2153 55.3567 11.56C54.9449 11.9046 54.4321 12.0769 53.8185 12.0769C53.5831 12.0769 53.3309 12.0181 53.062 11.9004C52.793 11.7743 52.5954 11.6314 52.4693 11.4717H52.4315V14.3087H50.9941V11.4717H50.9563C50.8302 11.6314 50.6327 11.7743 50.3637 11.9004C50.0947 12.0181 49.8425 12.0769 49.6072 12.0769C48.9936 12.0769 48.4808 11.9046 48.0689 11.56C47.657 11.2153 47.367 10.7908 47.1989 10.2865C47.0392 9.77372 46.9593 9.19372 46.9593 8.54648C46.9593 7.52097 47.1905 6.70981 47.6528 6.113C48.1151 5.50778 48.7372 5.20517 49.5189 5.20517C49.7879 5.20517 50.0611 5.27242 50.3385 5.40691C50.6243 5.5414 50.8302 5.69691 50.9563 5.87343H50.9941V2.923H52.4315V5.87343H52.4693C52.5954 5.69691 52.7972 5.5414 53.0746 5.40691C53.3604 5.27242 53.6378 5.20517 53.9067 5.20517C54.6885 5.20517 55.3105 5.50778 55.7728 6.113C56.2351 6.70981 56.4663 7.52097 56.4663 8.54648ZM55.0289 8.57169C55.0289 7.06706 54.554 6.31474 53.6041 6.31474C53.352 6.31474 53.1124 6.37778 52.8854 6.50387C52.6669 6.62155 52.5156 6.81488 52.4315 7.08387V10.2487C52.4736 10.4504 52.5954 10.6227 52.7972 10.7656C52.9989 10.9001 53.2469 10.9673 53.5411 10.9673C54.0707 10.9673 54.4489 10.7404 54.6759 10.2865C54.9112 9.83256 55.0289 9.26097 55.0289 8.57169ZM50.9941 10.2487V7.08387C50.9101 6.81488 50.7546 6.62155 50.5276 6.50387C50.3091 6.37778 50.0737 6.31474 49.8215 6.31474C48.8717 6.31474 48.3967 7.06706 48.3967 8.57169C48.3967 9.26097 48.5102 9.83256 48.7372 10.2865C48.9725 10.7404 49.355 10.9673 49.8846 10.9673C50.1788 10.9673 50.4267 10.9001 50.6285 10.7656C50.8302 10.6227 50.9521 10.4504 50.9941 10.2487ZM59.4946 11.9004H57.6789V5.3943H59.1163V10.1352H59.1541L61.5876 5.3943H63.4033V11.9004H61.9659V7.15952H61.928L59.4946 11.9004ZM70.6434 10.7656H71.5134V13.9682H70.1264V11.9004H64.9191V5.3943H66.3564V10.7656H69.206V5.3943H70.6434V10.7656ZM74.1719 11.9004H72.3562V5.3943H73.7936V10.1352H73.8314L76.2649 5.3943H78.0806V11.9004H76.6432V7.15952H76.6053L74.1719 11.9004ZM79.5333 7.39909C79.6846 5.92807 80.6345 5.19256 82.3829 5.19256C83.1982 5.19256 83.8455 5.35227 84.3246 5.67169C84.8122 5.99111 85.0559 6.48706 85.0559 7.15952V10.463C85.0559 10.6479 85.0769 10.774 85.119 10.8413C85.1694 10.9085 85.2619 10.9421 85.3964 10.9421C85.4972 10.9421 85.6065 10.9337 85.7242 10.9169V11.9256C85.3543 12.0181 85.0433 12.0643 84.7911 12.0643C84.1775 12.0643 83.8245 11.8037 83.732 11.2826C83.1856 11.8037 82.4249 12.0643 81.4498 12.0643C80.7774 12.0643 80.2436 11.892 79.8485 11.5473C79.4535 11.1943 79.2559 10.7194 79.2559 10.1226C79.2559 9.93764 79.2769 9.76532 79.319 9.60561C79.361 9.4459 79.4072 9.3072 79.4577 9.18952C79.5165 9.07184 79.6048 8.96256 79.7225 8.86169C79.8485 8.76083 79.9494 8.67677 80.0251 8.60952C80.1091 8.54227 80.2394 8.47923 80.4159 8.42039C80.6009 8.36155 80.7354 8.31952 80.8194 8.2943C80.9119 8.26068 81.0674 8.22706 81.2859 8.19343C81.5045 8.15981 81.6474 8.1388 81.7146 8.13039C81.7903 8.11358 81.9416 8.09256 82.1685 8.06735C82.6813 8.0001 83.0301 7.94546 83.2151 7.90343C83.4 7.853 83.5261 7.78155 83.5933 7.68909C83.6522 7.62184 83.6816 7.46633 83.6816 7.22256C83.6816 6.56691 83.2361 6.23909 82.3451 6.23909C81.8743 6.23909 81.5297 6.32735 81.3111 6.50387C81.0926 6.68039 80.9539 6.9788 80.8951 7.39909H79.5333ZM83.669 8.63474C83.5597 8.69358 83.4336 8.74822 83.2907 8.79865C83.1478 8.84068 83.0301 8.8701 82.9377 8.88691C82.8536 8.89532 82.7149 8.91213 82.5216 8.93735C82.3367 8.96256 82.2148 8.97938 82.1559 8.98778C81.9794 9.013 81.8407 9.03822 81.7398 9.06343C81.639 9.08025 81.5129 9.11387 81.3616 9.1643C81.2187 9.21474 81.1052 9.27778 81.0211 9.35343C80.9455 9.42068 80.8782 9.51735 80.8194 9.64343C80.7606 9.76112 80.7311 9.90401 80.7311 10.0721C80.7311 10.3831 80.832 10.6227 81.0338 10.7908C81.2439 10.9589 81.5339 11.043 81.9038 11.043C82.5426 11.043 83.0343 10.8707 83.379 10.526C83.5723 10.3327 83.669 9.95865 83.669 9.40387V8.63474ZM92.3521 11.9004H90.9147V6.52909H88.9226L88.8343 9.37865C88.8091 10.2276 88.6242 10.8875 88.2795 11.3582C87.9433 11.8205 87.481 12.0517 86.8926 12.0517C86.5311 12.0517 86.2369 12.0055 86.01 11.913V10.7908C86.094 10.8329 86.2663 10.8539 86.5269 10.8539C87.0985 10.8539 87.4011 10.3159 87.4347 9.23996L87.5482 5.3943H92.3521V11.9004ZM98.8988 8.30691C99.2855 8.66836 99.4788 9.17271 99.4788 9.81996C99.4788 10.4672 99.2855 10.9758 98.8988 11.3456C98.5121 11.7155 97.97 11.9004 97.2723 11.9004H93.8427V5.3943H95.2801V7.75213H97.2597C97.9658 7.75213 98.5121 7.93706 98.8988 8.30691ZM98.0414 9.84517C98.0414 9.55097 97.9574 9.31561 97.7892 9.13909C97.6211 8.96256 97.3858 8.8743 97.0831 8.8743H95.2801V10.7782H97.1084C97.4194 10.7782 97.6505 10.6942 97.8018 10.526C97.9616 10.3495 98.0414 10.1226 98.0414 9.84517ZM102.052 11.9004H100.615V5.3943H102.052V7.94126H104.902V5.3943H106.339V11.9004H104.902V9.07604H102.052V11.9004ZM114.071 5.3943H115.509V11.9004H114.071V5.3943ZM112.596 8.30691C112.983 8.66836 113.176 9.17271 113.176 9.81996C113.176 10.4672 112.983 10.9758 112.596 11.3456C112.209 11.7155 111.667 11.9004 110.969 11.9004H107.792V5.3943H109.229V7.75213H110.957C111.663 7.75213 112.209 7.93706 112.596 8.30691ZM111.739 9.84517C111.739 9.55097 111.655 9.31561 111.486 9.13909C111.318 8.96256 111.083 8.8743 110.78 8.8743H109.229V10.7782H110.806C111.117 10.7782 111.348 10.6942 111.499 10.526C111.659 10.3495 111.739 10.1226 111.739 9.84517ZM121.885 2.70865C121.817 3.31387 121.616 3.76358 121.279 4.05778C120.943 4.34358 120.456 4.48648 119.817 4.48648C119.178 4.48648 118.69 4.34358 118.354 4.05778C118.018 3.76358 117.816 3.31387 117.749 2.70865H118.48C118.64 3.34749 119.085 3.66691 119.817 3.66691C120.548 3.66691 120.994 3.34749 121.153 2.70865H121.885ZM118.77 11.9004H116.955V5.3943H118.392V10.1352H118.43L120.863 5.3943H122.679V11.9004H121.242V7.15952H121.204L118.77 11.9004ZM45.5627 23.4834C45.4787 24.5846 45.0836 25.4672 44.3775 26.1313C43.6798 26.7869 42.772 27.1147 41.654 27.1147C40.3848 27.1147 39.3677 26.686 38.6027 25.8287C37.8378 24.9713 37.4553 23.8323 37.4553 22.4117C37.4553 21.5543 37.6193 20.7768 37.9471 20.0791C38.2749 19.373 38.7667 18.8056 39.4223 18.3769C40.078 17.9398 40.8471 17.7213 41.7297 17.7213C42.6795 17.7213 43.5075 17.986 44.2136 18.5156C44.9197 19.0368 45.3442 19.7933 45.4871 20.7852H43.9236C43.8143 20.2472 43.5622 19.8269 43.1671 19.5243C42.772 19.2133 42.2845 19.0578 41.7045 19.0578C41.1077 19.0578 40.5991 19.2259 40.1788 19.5621C39.7669 19.8984 39.4727 20.3144 39.2962 20.8104C39.1281 21.2979 39.044 21.8317 39.044 22.4117C39.044 22.8488 39.0945 23.2607 39.1953 23.6473C39.2962 24.034 39.4475 24.3913 39.6493 24.7191C39.851 25.0385 40.1242 25.2949 40.4688 25.4882C40.8219 25.6815 41.2295 25.7782 41.6919 25.7782C43.0284 25.7782 43.7933 25.0133 43.9867 23.4834H45.5627ZM52.607 24.8704C52.4473 25.5765 52.0984 26.1271 51.5604 26.5221C51.0309 26.9172 50.3962 27.1147 49.6565 27.1147C48.673 27.1147 47.8913 26.7995 47.3113 26.1691C46.7397 25.5302 46.4539 24.7149 46.4539 23.723C46.4539 22.7059 46.7481 21.8653 47.3365 21.2013C47.9333 20.5372 48.6899 20.2052 49.6061 20.2052C50.5559 20.2052 51.3083 20.533 51.863 21.1887C52.4178 21.8359 52.6952 22.7227 52.6952 23.8491V24.0004H47.8913C47.9081 24.656 48.072 25.1646 48.383 25.526C48.6941 25.8791 49.127 26.0556 49.6817 26.0556C50.0768 26.0556 50.3962 25.9631 50.64 25.7782C50.8922 25.5849 51.0897 25.2823 51.2326 24.8704H52.607ZM51.2578 23.0421C51.2158 22.4958 51.0435 22.0671 50.7409 21.756C50.4467 21.4366 50.0642 21.2769 49.5935 21.2769C49.1228 21.2769 48.7403 21.4282 48.4461 21.7308C48.1603 22.0334 47.9838 22.4705 47.9165 23.0421H51.2578ZM55.1623 20.3943V21.2643C55.5994 20.5582 56.3055 20.2052 57.2806 20.2052C58.18 20.2052 58.8987 20.5204 59.4366 21.1508C59.9746 21.7813 60.2436 22.6218 60.2436 23.6726C60.2436 24.6981 59.9788 25.5218 59.4492 26.1439C58.9281 26.7575 58.2304 27.0643 57.3562 27.0643C56.4316 27.0643 55.7255 26.7239 55.2379 26.043V29.3087H53.8132V20.3943H55.1623ZM56.9906 21.3652C56.4274 21.3652 55.9861 21.5669 55.6666 21.9704C55.3472 22.3739 55.1875 22.9329 55.1875 23.6473C55.1875 24.3534 55.3472 24.9082 55.6666 25.3117C55.9945 25.7152 56.4442 25.9169 57.0158 25.9169C57.5621 25.9169 57.995 25.7152 58.3145 25.3117C58.6339 24.9082 58.7936 24.3618 58.7936 23.6726C58.7936 22.9665 58.6297 22.4075 58.3019 21.9956C57.9824 21.5753 57.5453 21.3652 56.9906 21.3652ZM67.3086 25.0595C67.3086 25.6479 67.0985 26.1018 66.6782 26.4213C66.2663 26.7407 65.6779 26.9004 64.913 26.9004H61.496V20.3943H65.0895C65.6947 20.3943 66.1654 20.533 66.5016 20.8104C66.8463 21.0878 67.0186 21.4787 67.0186 21.983C67.0186 22.3276 66.943 22.605 66.7916 22.8152C66.6403 23.0253 66.405 23.206 66.0856 23.3573V23.3826C66.9009 23.5927 67.3086 24.1517 67.3086 25.0595ZM64.913 24.0256H62.9334V25.816H64.913C65.5602 25.816 65.8838 25.5218 65.8838 24.9334C65.8838 24.6476 65.7998 24.4249 65.6316 24.2652C65.4635 24.1055 65.224 24.0256 64.913 24.0256ZM64.7238 21.4787H62.9334V22.9791H64.7616C65.3164 22.9791 65.5938 22.7185 65.5938 22.1973C65.5938 21.7182 65.3038 21.4787 64.7238 21.4787ZM70.3178 26.9004H68.5022V20.3943H69.9396V25.1352H69.9774L72.4109 20.3943H74.2265V26.9004H72.7891V22.1595H72.7513L70.3178 26.9004ZM81.6432 24.4417C81.5423 25.2402 81.2229 25.8791 80.685 26.3582C80.147 26.8289 79.4703 27.0643 78.655 27.0643C77.6799 27.0643 76.9023 26.7575 76.3223 26.1439C75.7423 25.5218 75.4523 24.7107 75.4523 23.7104C75.4523 22.6344 75.7423 21.7813 76.3223 21.1508C76.9107 20.512 77.7009 20.1926 78.6928 20.1926C79.525 20.1926 80.1932 20.4027 80.6976 20.823C81.2103 21.2433 81.5087 21.8275 81.5928 22.5756H80.168C80.0839 22.1637 79.9158 21.8485 79.6636 21.63C79.4115 21.4114 79.0921 21.3021 78.7054 21.3021C78.1506 21.3021 77.7135 21.5123 77.3941 21.9326C77.0747 22.3444 76.915 22.9118 76.915 23.6347C76.915 24.3576 77.0663 24.9208 77.3689 25.3243C77.6799 25.7278 78.1086 25.9295 78.655 25.9295C79.0836 25.9295 79.4325 25.8034 79.7015 25.5513C79.9789 25.2907 80.1554 24.9208 80.231 24.4417H81.6432ZM84.1859 26.9004H82.7485V20.3943H84.1859V22.9413H87.0355V20.3943H88.4729V26.9004H87.0355V24.076H84.1859V26.9004ZM96.2048 20.3943H97.6422V26.9004H96.2048V20.3943ZM94.7296 23.3069C95.1162 23.6684 95.3096 24.1727 95.3096 24.82C95.3096 25.4672 95.1162 25.9758 94.7296 26.3456C94.3429 26.7155 93.8007 26.9004 93.103 26.9004H89.9256V20.3943H91.363V22.7521H93.0904C93.7965 22.7521 94.3429 22.9371 94.7296 23.3069ZM93.8722 24.8452C93.8722 24.551 93.7881 24.3156 93.62 24.1391C93.4519 23.9626 93.2165 23.8743 92.9139 23.8743H91.363V25.7782H92.9391C93.2501 25.7782 93.4813 25.6942 93.6326 25.526C93.7923 25.3495 93.8722 25.1226 93.8722 24.8452ZM104.018 17.7087C103.951 18.3139 103.749 18.7636 103.413 19.0578C103.077 19.3436 102.589 19.4865 101.95 19.4865C101.311 19.4865 100.824 19.3436 100.488 19.0578C100.151 18.7636 99.9497 18.3139 99.8825 17.7087H100.614C100.773 18.3475 101.219 18.6669 101.95 18.6669C102.682 18.6669 103.127 18.3475 103.287 17.7087H104.018ZM100.904 26.9004H99.0881V20.3943H100.526V25.1352H100.563L102.997 20.3943H104.812V26.9004H103.375V22.1595H103.337L100.904 26.9004ZM115.562 25.7656H116.432V28.9682H115.045V26.9004H109.838V20.3943H111.275V25.7656H114.124V20.3943H115.562V25.7656ZM123.1 24.8704C122.94 25.5765 122.591 26.1271 122.053 26.5221C121.524 26.9172 120.889 27.1147 120.149 27.1147C119.166 27.1147 118.384 26.7995 117.804 26.1691C117.233 25.5302 116.947 24.7149 116.947 23.723C116.947 22.7059 117.241 21.8653 117.829 21.2013C118.426 20.5372 119.183 20.2052 120.099 20.2052C121.049 20.2052 121.801 20.533 122.356 21.1887C122.911 21.8359 123.188 22.7227 123.188 23.8491V24.0004H118.384C118.401 24.656 118.565 25.1646 118.876 25.526C119.187 25.8791 119.62 26.0556 120.175 26.0556C120.57 26.0556 120.889 25.9631 121.133 25.7782C121.385 25.5849 121.583 25.2823 121.726 24.8704H123.1ZM121.751 23.0421C121.709 22.4958 121.536 22.0671 121.234 21.756C120.94 21.4366 120.557 21.2769 120.086 21.2769C119.616 21.2769 119.233 21.4282 118.939 21.7308C118.653 22.0334 118.477 22.4705 118.409 23.0421H121.751ZM125.718 26.9004H124.281V20.3943H125.718V22.9413H128.568V20.3943H130.005V26.9004H128.568V24.076H125.718V26.9004ZM136.552 21.5291H134.408V26.9004H132.971V21.5291H130.828V20.3943H136.552V21.5291ZM138.744 20.3943V21.2643C139.181 20.5582 139.887 20.2052 140.862 20.2052C141.762 20.2052 142.481 20.5204 143.018 21.1508C143.556 21.7813 143.825 22.6218 143.825 23.6726C143.825 24.6981 143.561 25.5218 143.031 26.1439C142.51 26.7575 141.812 27.0643 140.938 27.0643C140.013 27.0643 139.307 26.7239 138.82 26.043V29.3087H137.395V20.3943H138.744ZM140.572 21.3652C140.009 21.3652 139.568 21.5669 139.248 21.9704C138.929 22.3739 138.769 22.9329 138.769 23.6473C138.769 24.3534 138.929 24.9082 139.248 25.3117C139.576 25.7152 140.026 25.9169 140.598 25.9169C141.144 25.9169 141.577 25.7152 141.896 25.3117C142.216 24.9082 142.375 24.3618 142.375 23.6726C142.375 22.9665 142.212 22.4075 141.884 21.9956C141.564 21.5753 141.127 21.3652 140.572 21.3652Z" fill="#040404"/>
</svg>
