<svg width="36" height="36" viewBox="0 0 36 36" fill="none" xmlns="http://www.w3.org/2000/svg">
<path d="M18 13.5469C15.8906 13.5469 14.25 15.5625 14.25 18.0469C14.25 20.5781 15.8906 22.5938 18 22.5938C20.0625 22.5938 21.75 20.5781 21.75 18.0469C21.75 15.5625 20.0625 13.5469 18 13.5469ZM32.1094 8.57812C30.2812 7.82812 28.4531 7.5 26.625 7.5C20.8594 7.5 15.0938 10.4531 9.32812 10.4531C7.875 10.4531 6.42188 10.2656 4.96875 9.79688C4.82812 9.75 4.64062 9.70312 4.5 9.70312C3.70312 9.70312 3 10.3594 3 11.2031V26.1094C3 26.6719 3.32812 27.2344 3.84375 27.4688C5.67188 28.2188 7.5 28.5 9.32812 28.5C15.0938 28.5 20.8594 25.5938 26.625 25.5938C28.0781 25.5938 29.5312 25.7812 30.9844 26.25C31.125 26.2969 31.3125 26.2969 31.4531 26.2969C32.25 26.2969 33 25.6875 33 24.8438V9.9375C33 9.375 32.625 8.8125 32.1094 8.57812ZM30.75 21.1406C29.4844 21.2812 28.4531 22.2188 28.1719 23.4375C27.6562 23.3906 27.1875 23.3438 26.625 23.3438C23.4844 23.3438 20.3906 24.1406 17.4375 24.8906C14.5781 25.5938 11.9062 26.25 9.32812 26.25C8.95312 26.25 8.57812 26.25 8.20312 26.25C8.15625 24.6094 6.84375 23.3438 5.25 23.3438V15.0469C6.70312 15.0469 7.875 14.0156 8.15625 12.6094C8.53125 12.6562 8.90625 12.7031 9.32812 12.7031C12.4688 12.7031 15.5625 11.9062 18.5156 11.1562C21.375 10.4531 24.0469 9.75 26.625 9.75C27.1406 9.75 27.6094 9.79688 28.125 9.84375C28.1719 11.3438 29.2969 12.5625 30.75 12.75V21.1406Z" fill="white"/>
</svg>
