<svg width="62" height="62" viewBox="0 0 62 62" fill="none" xmlns="http://www.w3.org/2000/svg">
<path d="M33.0612 42.9762C33.0612 41.6448 31.8865 40.4701 30.5551 40.4701C29.1454 40.4701 28.0489 41.6448 28.0489 42.9762C28.0489 44.3859 29.1454 45.4823 30.5551 45.4823C31.8865 45.4823 33.0612 44.3859 33.0612 42.9762ZM36.8204 38.2772V17.6016C36.8204 17.1317 36.3505 16.6618 35.8806 16.6618H25.2296C24.6813 16.6618 24.2898 17.1317 24.2898 17.6016V38.2772C24.2898 38.8254 24.6813 39.217 25.2296 39.217H35.8806C36.3505 39.217 36.8204 38.8254 36.8204 38.2772ZM43.0857 14.1557C43.0857 12.1195 41.3627 10.3965 39.3265 10.3965H21.7836C19.6691 10.3965 18.0244 12.1195 18.0244 14.1557V46.7354C18.0244 48.8499 19.6691 50.4946 21.7836 50.4946H39.3265C41.3627 50.4946 43.0857 48.8499 43.0857 46.7354V14.1557ZM39.3265 46.2655C39.3265 46.5787 39.0916 46.7354 38.8566 46.7354H22.2535C21.9403 46.7354 21.7836 46.5787 21.7836 46.2655V14.6256C21.7836 14.3907 21.9403 14.1557 22.2535 14.1557H38.8566C39.0916 14.1557 39.3265 14.3907 39.3265 14.6256V46.2655Z" fill="white"/>
</svg>
