<svg width="41" height="42" viewBox="0 10 30 42" fill="none" xmlns="http://www.w3.org/2000/svg">
<path d="M19.6566 15.9042C17.3306 15.9042 15.5215 18.1268 15.5215 20.8663C15.5215 23.6575 17.3306 25.8801 19.6566 25.8801C21.9309 25.8801 23.7917 23.6575 23.7917 20.8663C23.7917 18.1268 21.9309 15.9042 19.6566 15.9042ZM35.215 10.4252C33.1991 9.59815 31.1833 9.23633 29.1674 9.23633C22.8097 9.23633 16.4519 12.4927 10.0942 12.4927C8.49185 12.4927 6.88949 12.2859 5.28714 11.769C5.13207 11.7174 4.92532 11.6657 4.77025 11.6657C3.89154 11.6657 3.11621 12.3893 3.11621 13.3197V29.7568C3.11621 30.377 3.47803 30.9973 4.04661 31.2557C6.06247 32.0828 8.07834 32.3929 10.0942 32.3929C16.4519 32.3929 22.8097 29.1882 29.1674 29.1882C30.7697 29.1882 32.3721 29.3949 33.9745 29.9118C34.1295 29.9635 34.3363 29.9635 34.4913 29.9635C35.3701 29.9635 36.1971 29.2916 36.1971 28.3612V11.9241C36.1971 11.3038 35.7836 10.6836 35.215 10.4252ZM33.716 24.2778C32.3204 24.4328 31.1833 25.4666 30.8731 26.8105C30.3045 26.7588 29.7877 26.7071 29.1674 26.7071C25.7042 26.7071 22.2928 27.5858 19.0364 28.4129C15.8833 29.1882 12.9371 29.9118 10.0942 29.9118C9.68069 29.9118 9.26718 29.9118 8.85367 29.9118C8.80198 28.1027 7.35469 26.7071 5.59727 26.7071V17.5582C7.19963 17.5582 8.49185 16.421 8.80198 14.8704C9.21549 14.9221 9.629 14.9738 10.0942 14.9738C13.5573 14.9738 16.9688 14.095 20.2252 13.268C23.3782 12.4927 26.3245 11.7174 29.1674 11.7174C29.736 11.7174 30.2529 11.769 30.8214 11.8207C30.8731 13.4748 32.1137 14.8187 33.716 15.0254V24.2778Z" fill="white"/>
</svg>
