<svg width="171" height="30" viewBox="0 0 171 30" fill="none" xmlns="http://www.w3.org/2000/svg">
<path opacity="0.9" d="M40.4479 13.1942C39.7832 13.1942 39.1833 13.0432 38.6482 12.741C38.113 12.4303 37.6943 12.0117 37.3922 11.4851C37.0901 10.9499 36.9391 10.3544 36.9391 9.69834V7.05701C36.9391 6.39236 37.0901 5.79677 37.3922 5.27023C37.6943 4.73506 38.113 4.31642 38.6482 4.0143C39.1833 3.70356 39.7832 3.54819 40.4479 3.54819H41.5614C42.2347 3.54819 42.8389 3.70356 43.3741 4.0143C43.9092 4.31642 44.3279 4.73506 44.63 5.27023C44.9321 5.79677 45.0832 6.39236 45.0832 7.05701V9.69834C45.0832 10.3544 44.9278 10.9499 44.617 11.4851C44.3149 12.0117 43.8963 12.4303 43.3611 12.741C42.8259 13.0432 42.226 13.1942 41.5614 13.1942H40.4479ZM41.4449 11.3815C41.9973 11.3815 42.4289 11.2262 42.7396 10.9154C43.0504 10.6047 43.2057 10.1731 43.2057 9.62065V7.1347C43.2057 6.58226 43.0504 6.15067 42.7396 5.83993C42.4289 5.52055 41.9973 5.36086 41.4449 5.36086H40.5644C40.012 5.36086 39.5804 5.51624 39.2696 5.82698C38.9675 6.13773 38.8165 6.57363 38.8165 7.1347V9.62065C38.8165 10.1731 38.9675 10.6047 39.2696 10.9154C39.5804 11.2262 40.012 11.3815 40.5644 11.3815H41.4449ZM50.0413 12.5468C49.3076 12.5468 48.643 12.3958 48.0474 12.0937C47.4518 11.7829 46.9857 11.3556 46.649 10.8118C46.3124 10.268 46.1441 9.66381 46.1441 8.99916V7.78208C46.1441 7.11743 46.3124 6.51321 46.649 5.9694C46.9857 5.4256 47.4518 5.00264 48.0474 4.70053C48.643 4.38979 49.3076 4.23441 50.0413 4.23441H50.624V2.96554H52.4366V4.23441H53.0063C53.74 4.23441 54.4047 4.38979 55.0003 4.70053C55.5959 5.00264 56.062 5.4256 56.3986 5.9694C56.7439 6.51321 56.9165 7.11743 56.9165 7.78208V8.99916C56.9165 9.66381 56.7439 10.268 56.3986 10.8118C56.062 11.3556 55.5959 11.7829 55.0003 12.0937C54.4047 12.3958 53.74 12.5468 53.0063 12.5468H52.4366V13.8416H50.624V12.5468H50.0413ZM53.0063 10.7342C53.6537 10.7342 54.15 10.5615 54.4953 10.2162C54.8492 9.87098 55.0262 9.37896 55.0262 8.74021V8.04104C55.0262 7.40228 54.8492 6.91027 54.4953 6.565C54.15 6.21973 53.6537 6.04709 53.0063 6.04709H52.4237V10.7342H53.0063ZM48.0215 8.74021C48.0215 9.37896 48.1941 9.87098 48.5394 10.2162C48.8933 10.5615 49.3939 10.7342 50.0413 10.7342H50.6369V6.04709H50.0413C49.3939 6.04709 48.8933 6.21973 48.5394 6.565C48.1941 6.91027 48.0215 7.40228 48.0215 8.04104V8.74021ZM58.0986 3.7424H59.9501V7.7044L59.8595 10.3069L60.6752 8.80495L64.0934 3.7424H65.9449V13H64.0934V9.07685L64.184 6.46142L63.3942 7.92451L59.9501 13H58.0986V3.7424ZM74.6275 13H67.4933V3.7424H69.3448V11.2003H73.255V3.7424H75.1065V11.2003H76.3495V15.3176H74.6275V13ZM77.204 3.7424H79.0556V7.7044L78.9649 10.3069L79.7806 8.80495L83.1988 3.7424H85.0503V13H83.1988V9.07685L83.2895 6.46142L82.4996 7.92451L79.0556 13H77.204V3.7424ZM89.3954 3.7424H91.3893L95.0665 13H93.0596L92.3345 11.1355H88.4243L87.6993 13H85.6924L89.3954 3.7424ZM91.7778 9.42644L90.3924 5.80108L89.007 9.42644H91.7778ZM95.1973 11.1873H95.6375C95.8965 11.1873 96.1036 11.1398 96.259 11.0449C96.4144 10.9499 96.5352 10.7903 96.6215 10.5658C96.7078 10.3328 96.7769 10.0091 96.8287 9.59476L97.5408 3.7424H103.613V13H101.762V5.54213H99.1981L98.6802 9.73718C98.5335 10.9025 98.2357 11.7398 97.7868 12.249C97.338 12.7497 96.6647 13 95.767 13H95.1973V11.1873ZM105.173 3.7424H107.012V6.72037L109.536 6.73332C110.426 6.73332 111.133 6.98796 111.66 7.49723C112.186 8.00651 112.45 8.68842 112.45 9.54297V10.2421C112.45 10.7946 112.329 11.278 112.087 11.6923C111.854 12.1066 111.517 12.4303 111.077 12.6634C110.637 12.8878 110.123 13 109.536 13H105.173V3.7424ZM109.213 11.2262C109.627 11.2262 109.955 11.1398 110.197 10.9672C110.438 10.7946 110.559 10.5184 110.559 10.1386V9.56886C110.559 9.18043 110.438 8.8999 110.197 8.72726C109.955 8.55463 109.627 8.46831 109.213 8.46831L107.012 8.45536V11.2262H109.213ZM119.36 9.21927H115.269V13H113.417V3.7424H115.269V7.41955H119.36V3.7424H121.212V13H119.36V9.21927ZM131.022 3.7424H132.873V13H131.022V3.7424ZM122.761 3.7424H124.6V6.72037L127.125 6.73332C128.014 6.73332 128.721 6.98796 129.248 7.49723C129.775 8.00651 130.038 8.68842 130.038 9.54297V10.2421C130.038 10.7946 129.917 11.278 129.675 11.6923C129.442 12.1066 129.106 12.4303 128.665 12.6634C128.225 12.8878 127.712 13 127.125 13H122.761V3.7424ZM126.801 11.2262C127.215 11.2262 127.543 11.1398 127.785 10.9672C128.027 10.7946 128.147 10.5184 128.147 10.1386V9.56886C128.147 9.18043 128.027 8.8999 127.785 8.72726C127.543 8.55463 127.215 8.46831 126.801 8.46831L124.6 8.45536V11.2262H126.801ZM134.432 3.7424H136.283V7.7044L136.193 10.3069L137.008 8.80495L140.427 3.7424H142.278V13H140.427V9.07685L140.517 6.46142L139.727 7.92451L136.283 13H134.432V3.7424ZM137.41 0.777382C137.41 1.01907 137.427 1.20034 137.462 1.32118C137.496 1.44203 137.569 1.53266 137.682 1.59309C137.794 1.65351 137.971 1.68372 138.213 1.68372H138.756C138.998 1.68372 139.175 1.65351 139.287 1.59309C139.399 1.53266 139.473 1.44203 139.507 1.32118C139.542 1.20034 139.559 1.01907 139.559 0.777382H141.074C141.074 1.54561 140.901 2.10236 140.556 2.44763C140.219 2.79291 139.71 2.96554 139.028 2.96554H137.941C137.259 2.96554 136.745 2.79291 136.4 2.44763C136.063 2.10236 135.895 1.54561 135.895 0.777382H137.41ZM40.4479 27.1942C39.7832 27.1942 39.1833 27.0432 38.6482 26.741C38.113 26.4303 37.6943 26.0117 37.3922 25.4851C37.0901 24.9499 36.9391 24.3544 36.9391 23.6983V21.057C36.9391 20.3924 37.0901 19.7968 37.3922 19.2702C37.6943 18.7351 38.113 18.3164 38.6482 18.0143C39.1833 17.7036 39.7832 17.5482 40.4479 17.5482H41.2765C41.9843 17.5482 42.6015 17.7079 43.1281 18.0273C43.6632 18.338 44.0732 18.7653 44.3581 19.3091C44.6516 19.8529 44.7983 20.4571 44.7983 21.1217H42.9338C42.9338 20.5779 42.7785 20.1507 42.4677 19.8399C42.157 19.5206 41.7297 19.3609 41.1859 19.3609H40.5644C40.012 19.3609 39.5804 19.5162 39.2696 19.827C38.9675 20.1377 38.8165 20.5736 38.8165 21.1347V23.6207C38.8165 24.1731 38.9675 24.6047 39.2696 24.9154C39.5804 25.2262 40.012 25.3815 40.5644 25.3815H41.1859C41.7383 25.3815 42.1656 25.2262 42.4677 24.9154C42.7785 24.6047 42.9338 24.1688 42.9338 23.6077H44.7983C44.7983 24.2724 44.6516 24.8809 44.3581 25.4333C44.0732 25.9771 43.6632 26.4087 43.1281 26.7281C42.6015 27.0388 41.9843 27.1942 41.2765 27.1942H40.4479ZM45.9981 17.7424H52.5237V19.5033H47.8496V21.4843H52.1094V23.2063H47.8496V25.2262H52.5885V27H45.9981V17.7424ZM58.3692 17.7424C58.8871 17.7424 59.3575 17.8632 59.7805 18.1049C60.2121 18.3466 60.553 18.679 60.8034 19.1019C61.0537 19.5162 61.1789 19.978 61.1789 20.4873V21.4972C61.1789 22.0151 61.0537 22.4942 60.8034 22.9344C60.553 23.366 60.2121 23.7113 59.7805 23.9702C59.3575 24.2206 58.8914 24.3457 58.3821 24.3457L55.689 24.3587V27H53.8375V17.7424H58.3692ZM55.689 22.5848L58.1491 22.5719C58.926 22.5719 59.3144 22.1662 59.3144 21.3548V20.7333C59.3144 19.9133 58.926 19.5033 58.1491 19.5033H55.689V22.5848ZM62.1321 17.7424H66.9616C67.6867 17.7424 68.265 17.9582 68.6966 18.3898C69.1368 18.8214 69.3569 19.3868 69.3569 20.0859V20.2025C69.3569 20.6513 69.262 21.0484 69.0721 21.3937C68.8908 21.7303 68.6319 21.9892 68.2952 22.1705C68.7096 22.3518 69.0289 22.6323 69.2534 23.0121C69.4778 23.3919 69.59 23.8451 69.59 24.3716V24.5529C69.59 25.2866 69.3483 25.8779 68.8649 26.3267C68.3902 26.7756 67.7601 27 66.9746 27H62.1321V17.7424ZM66.8062 25.2262C67.0652 25.2262 67.2853 25.1442 67.4666 24.9802C67.6565 24.8162 67.7514 24.5917 67.7514 24.3069V24.1256C67.7514 23.8321 67.6565 23.6034 67.4666 23.4394C67.2853 23.2754 67.0652 23.1934 66.8062 23.1934H63.9707V25.2262H66.8062ZM66.5991 21.4713C66.858 21.4713 67.0738 21.3937 67.2465 21.2383C67.4277 21.0743 67.5184 20.8498 67.5184 20.565V20.3967C67.5184 20.1205 67.4277 19.9047 67.2465 19.7493C67.0652 19.5853 66.8494 19.5033 66.5991 19.5033H63.9707V21.4713H66.5991ZM70.7555 17.7424H72.607V21.7044L72.5164 24.3069L73.3321 22.8049L76.7503 17.7424H78.6018V27H76.7503V23.0769L76.8409 20.4614L76.0511 21.9245L72.607 27H70.7555V17.7424ZM83.413 27.1942C82.7483 27.1942 82.1484 27.0432 81.6132 26.741C81.0781 26.4303 80.6594 26.0117 80.3573 25.4851C80.0552 24.9499 79.9041 24.3544 79.9041 23.6983V21.057C79.9041 20.3924 80.0552 19.7968 80.3573 19.2702C80.6594 18.7351 81.0781 18.3164 81.6132 18.0143C82.1484 17.7036 82.7483 17.5482 83.413 17.5482H84.2416C84.9494 17.5482 85.5666 17.7079 86.0931 18.0273C86.6283 18.338 87.0383 18.7653 87.3232 19.3091C87.6166 19.8529 87.7634 20.4571 87.7634 21.1217H85.8989C85.8989 20.5779 85.7435 20.1507 85.4328 19.8399C85.1221 19.5206 84.6948 19.3609 84.151 19.3609H83.5295C82.9771 19.3609 82.5455 19.5162 82.2347 19.827C81.9326 20.1377 81.7816 20.5736 81.7816 21.1347V23.6207C81.7816 24.1731 81.9326 24.6047 82.2347 24.9154C82.5455 25.2262 82.9771 25.3815 83.5295 25.3815H84.151C84.7034 25.3815 85.1307 25.2262 85.4328 24.9154C85.7435 24.6047 85.8989 24.1688 85.8989 23.6077H87.7634C87.7634 24.2724 87.6166 24.8809 87.3232 25.4333C87.0383 25.9771 86.6283 26.4087 86.0931 26.7281C85.5666 27.0388 84.9494 27.1942 84.2416 27.1942H83.413ZM88.9601 22.3259H93.3753V24.0479H88.9601V22.3259ZM101.952 27H94.8174V17.7424H96.669V25.2003H100.579V17.7424H102.431V25.2003H103.674V29.3176H101.952V27ZM104.528 17.7424H111.054V19.5033H106.38V21.4843H110.64V23.2063H106.38V25.2262H111.119V27H104.528V17.7424ZM118.311 23.2193H114.219V27H112.368V17.7424H114.219V21.4195H118.311V17.7424H120.162V27H118.311V23.2193ZM123.939 19.5292H121.129V17.7424H128.587V19.5292H125.79V27H123.939V19.5292ZM134.095 17.7424C134.613 17.7424 135.084 17.8632 135.507 18.1049C135.938 18.3466 136.279 18.679 136.53 19.1019C136.78 19.5162 136.905 19.978 136.905 20.4873V21.4972C136.905 22.0151 136.78 22.4942 136.53 22.9344C136.279 23.366 135.938 23.7113 135.507 23.9702C135.084 24.2206 134.618 24.3457 134.108 24.3457L131.415 24.3587V27H129.564V17.7424H134.095ZM131.415 22.5848L133.875 22.5719C134.652 22.5719 135.041 22.1662 135.041 21.3548V20.7333C135.041 19.9133 134.652 19.5033 133.875 19.5033H131.415V22.5848Z" fill="#383838"/>
<circle cx="14.06" cy="15.1431" r="12.0513" fill="white"/>
<path d="M13.8683 1.08398C16.6118 1.08345 19.2939 1.89651 21.5753 3.42035C23.8568 4.94418 25.6351 7.11035 26.6853 9.64489C27.7356 12.1794 28.0107 14.9685 27.4758 17.6594C26.9409 20.3503 25.62 22.8221 23.6802 24.7623C21.7404 26.7025 19.2689 28.0238 16.5781 28.5592C13.8873 29.0947 11.0982 28.8202 8.56343 27.7704C6.02867 26.7206 3.86216 24.9427 2.33787 22.6616C0.813589 20.3804 5.28644e-08 17.6985 0 14.955C-7.08769e-08 11.2766 1.46103 7.74891 4.06176 5.14767C6.66249 2.54643 10.1899 1.08471 13.8683 1.08398ZM20.7194 10.8215C21.0259 10.5149 21.1982 10.0991 21.1982 9.66554C21.1982 9.23199 21.0259 8.81619 20.7194 8.50962C20.4128 8.20306 19.997 8.03083 19.5634 8.03083C19.1299 8.03083 18.7141 8.20306 18.4075 8.50962L14.0997 12.8174H13.7675L9.45973 8.50962C9.15316 8.20269 8.73722 8.03012 8.30341 8.02986C7.8696 8.02961 7.45346 8.20169 7.14653 8.50826C6.8396 8.81483 6.66703 9.23077 6.66677 9.66458C6.66652 10.0984 6.8386 10.5145 7.14517 10.8215L12.2644 15.9353V23.2547C12.2817 23.6804 12.463 24.0829 12.7703 24.378C13.0776 24.673 13.4872 24.8378 13.9132 24.8378C14.3392 24.8378 14.7488 24.673 15.0561 24.378C15.3634 24.0829 15.5447 23.6804 15.562 23.2547V15.9761L20.7194 10.8215Z" fill="#E03638"/>
</svg>
