<svg width="33" height="27" viewBox="0 0 33 27" fill="none" xmlns="http://www.w3.org/2000/svg">
<path d="M25.3687 6.90937L23.6156 1.70156C23.3062 0.721875 22.3781 0 21.2953 0H5.05312C3.97031 0 3.04219 0.721875 2.73281 1.70156L0.103125 9.53906C0 9.79688 0 10.0547 0 10.3125V23.925C0 25.3172 1.08281 26.4 2.475 26.4H23.1C28.5656 26.4 33 21.9656 33 16.5C33 11.8594 29.7516 7.94062 25.3687 6.90937ZM14.4375 2.475H21.2953L22.6875 6.65156C20.1094 6.75469 17.7891 7.8375 16.0875 9.4875H14.4375V2.475ZM5.05312 2.475H11.9625V9.4875H2.73281L5.05312 2.475ZM2.475 23.925V11.9625H14.2828C13.5609 13.3547 13.2 14.9016 13.2 16.5C13.2 19.4906 14.4891 22.1203 16.5516 23.925H2.475ZM23.1 23.925C18.975 23.925 15.675 20.625 15.675 16.5C15.675 12.4266 18.975 9.075 23.1 9.075C27.1734 9.075 30.525 12.4266 30.525 16.5C30.525 20.625 27.1734 23.925 23.1 23.925ZM26.4 13.3547C26.2453 13.2 25.9875 13.2 25.8328 13.3547L22.2234 16.9125L20.6766 15.3141C20.5219 15.1594 20.2641 15.1594 20.1094 15.3141L19.1297 16.2937C18.975 16.4484 18.975 16.7062 19.1297 16.8609L21.9141 19.6969C22.0687 19.8516 22.3266 19.8516 22.4812 19.6969L27.3797 14.9016C27.5344 14.7469 27.5344 14.4891 27.3797 14.2828L26.4 13.3547Z" fill="#383838"/>
</svg>
