<svg width="31" height="26" viewBox="0 0 31 26" fill="none" xmlns="http://www.w3.org/2000/svg">
<path d="M30.7582 7.30034L24.7123 13.3462C24.41 13.6485 23.9264 13.6485 23.6845 13.3462L22.4754 12.137C22.1731 11.8952 22.1731 11.4115 22.4754 11.1092L25.5588 8.20722H0.770843C0.347635 8.20722 0.0453437 7.90492 0.0453437 7.48172V6.03072C0.0453437 5.66797 0.347635 5.30522 0.770843 5.30522H25.5588L22.4754 2.46368C22.1731 2.16138 22.1731 1.67772 22.4754 1.43588L23.6845 0.226719C23.9264 -0.0755729 24.41 -0.0755729 24.7123 0.226719L30.7582 6.27255C31.0605 6.57484 31.0605 6.99805 30.7582 7.30034ZM0.226719 18.9083C-0.0755729 18.606 -0.0755729 18.1828 0.226719 17.8805L6.27255 11.8347C6.57484 11.5324 7.05851 11.5324 7.30034 11.8347L8.50951 13.0439C8.8118 13.2857 8.8118 13.7694 8.50951 14.0717L5.42613 16.9132H30.2745C30.6373 16.9132 31 17.276 31 17.6387V19.0897C31 19.5129 30.6373 19.8152 30.2745 19.8152H5.42613L8.50951 22.7172C8.8118 23.0195 8.8118 23.5032 8.50951 23.745L7.30034 24.9542C7.05851 25.2565 6.57484 25.2565 6.27255 24.9542L0.226719 18.9083Z" fill="#383838"/>
</svg>
