<svg width="31" height="31" viewBox="0 0 31 31" fill="none" xmlns="http://www.w3.org/2000/svg">
<path d="M29.7657 4.45207C31.4012 6.08752 31.4012 8.69213 29.8263 10.267L10.6854 29.529L1.66017 30.9827C0.69101 31.1645 -0.157002 30.3165 0.0247145 29.3473L1.47845 20.322L20.7405 1.18116C22.3153 -0.39372 24.9199 -0.39372 26.4948 1.18116L29.7657 4.45207ZM12.1392 18.8683C11.594 18.3231 11.594 17.5357 12.1392 16.9905L19.3473 9.78243L17.5907 8.02583L7.2934 18.2626H9.83743V21.17H12.7449V23.7141L22.9816 13.4168L21.225 11.6602L14.0169 18.8683C13.7746 19.1106 13.4112 19.2317 13.1083 19.2317C12.7449 19.2317 12.3815 19.1106 12.1392 18.8683ZM4.99165 27.7724L9.41343 26.985L10.5643 25.8947V23.3506H7.65683V20.4432H5.11279L4.02249 21.594L3.23505 26.0158L4.99165 27.7724ZM27.9486 8.38927C28.4937 7.84412 28.4937 6.93553 27.888 6.32981L24.6171 3.0589C24.0719 2.51375 23.1633 2.51375 22.6182 3.0589L19.6502 6.02695L24.9805 11.3573L27.9486 8.38927Z" fill="#383838"/>
</svg>
