<svg width="37" height="30" viewBox="0 0 37 30" fill="none" xmlns="http://www.w3.org/2000/svg">
<path d="M21.7922 19.275C24.225 20.0404 26.8337 20.0404 29.2665 19.275M21.7922 16.6717C21.7922 16.6717 25.8327 17.8971 29.2788 16.572M31.8953 1C31.8953 1 33.2205 5.99766 31.8953 10.2199M13.2827 2.12475C13.2827 2.12475 12.9068 5.77278 13.3824 8.99545M8.13525 7.163C7.79835 7.9681 7.18912 8.62875 6.41441 9.02907C5.6397 9.42946 4.74894 9.54403 3.8983 9.35273C3.04766 9.16143 2.29143 8.67646 1.76218 7.98276C1.23292 7.28914 0.964439 6.4311 1.00378 5.5591C1.04313 4.6871 1.38779 3.85679 1.97736 3.21375C2.56692 2.5707 3.36375 2.15594 4.22816 2.0422C5.09256 1.92846 5.96937 2.12299 6.70486 2.59168C7.44037 3.06037 7.98763 3.77332 8.25064 4.60553H9.93434L10.06 3.79593C10.1283 3.35575 10.3726 2.96228 10.7369 2.7059C11.0133 2.51133 11.3431 2.4069 11.6812 2.4069H13.2808L13.571 1.35661C13.5921 1.27943 13.6375 1.21115 13.7006 1.16194C13.7636 1.11273 13.8408 1.08523 13.9206 1.08354H34.0009C34.1607 1.08401 34.3158 1.13728 34.4423 1.23509C34.5687 1.3329 34.6595 1.46976 34.7002 1.62444C35.0499 2.92155 35.7493 6.35077 34.7509 9.6767C34.6959 9.85745 34.5839 10.0154 34.4316 10.1271C34.2794 10.2388 34.0952 10.2982 33.9065 10.2964H31.7996C31.7996 10.2964 30.0513 10.3961 29.9446 12.586L29.7121 15.968L29.2908 16.5719L28.9586 27.8153C28.9586 27.8153 29.0582 28.3405 28.2959 28.6118C27.5336 28.8831 24.0455 29.4748 22.2972 28.281C22.2972 28.281 21.9982 28.281 21.8671 26.8543C21.736 25.4276 21.8007 16.6717 21.8007 16.6717L21.3688 16.0747L21.1712 12.1274C21.1712 12.1274 21.138 10.636 19.3494 10.5029L14.1322 10.4417C14.013 10.4388 13.8978 10.3978 13.8034 10.3248C13.7091 10.2517 13.6405 10.1504 13.6077 10.0356L13.3804 9.28109H11.8569C11.5111 9.28109 11.1733 9.17684 10.8875 8.98195C10.5111 8.72514 10.252 8.32946 10.1671 7.8818L10.034 7.1805L8.13525 7.163Z" stroke="#383838" stroke-width="2" stroke-miterlimit="10"/>
</svg>
