<svg width="32" height="33" viewBox="0 0 32 33" fill="none" xmlns="http://www.w3.org/2000/svg">
<path d="M19.0026 32.9833H12.9997C12.2247 32.9833 11.5542 32.4441 11.3884 31.6871L10.7172 28.5801C9.82179 28.1877 8.97275 27.6971 8.18573 27.1173L5.15621 28.082C4.41739 28.3176 3.61422 28.0067 3.22669 27.3349L0.218606 22.1384C-0.164681 21.4664 -0.0326308 20.6187 0.536895 20.0951L2.88696 17.9512C2.78009 16.98 2.78009 16 2.88696 15.0289L0.536895 12.8899C-0.0334698 12.3661 -0.165572 11.5173 0.218606 10.8449L3.22009 5.6451C3.60762 4.97339 4.41079 4.66242 5.14962 4.89803L8.17913 5.86279C8.58163 5.56455 9.00064 5.28925 9.43415 5.03821C9.8503 4.80352 10.2786 4.59103 10.7172 4.40163L11.3901 1.29789C11.5551 0.540875 12.2249 0.000815336 12.9997 0H19.0026C19.7774 0.000815336 20.4472 0.540875 20.6122 1.29789L21.2917 4.40328C21.7547 4.60697 22.2057 4.83714 22.6423 5.09263C23.0496 5.32815 23.4432 5.58638 23.8215 5.86609L26.8527 4.90132C27.591 4.6666 28.3932 4.97745 28.7805 5.6484L31.782 10.8482C32.1653 11.5202 32.0332 12.3679 31.4637 12.8915L29.1137 15.0355C29.2205 16.0066 29.2205 16.9866 29.1137 17.9578L31.4637 20.1017C32.0332 20.6253 32.1653 21.473 31.782 22.145L28.7805 27.3448C28.3932 28.0158 27.591 28.3266 26.8527 28.0919L23.8215 27.1271C23.4379 27.4096 23.0393 27.6711 22.6275 27.9105C22.1951 28.161 21.7492 28.3873 21.2917 28.5883L20.6122 31.6871C20.4465 32.4435 19.7769 32.9827 19.0026 32.9833ZM8.77778 23.466L10.1301 24.4555C10.4349 24.68 10.7527 24.8865 11.0817 25.0739C11.3912 25.2532 11.7099 25.4161 12.0365 25.5621L13.5752 26.2366L14.3289 29.685H17.6767L18.4304 26.2349L19.969 25.5604C20.6407 25.2642 21.2783 24.8959 21.8705 24.4621L23.2245 23.4726L26.5904 24.5445L28.2643 21.6453L25.6537 19.2656L25.8384 17.5966C25.9195 16.8666 25.9195 16.1299 25.8384 15.3999L25.6537 13.731L28.266 11.3463L26.5904 8.44538L23.2245 9.51734L21.8705 8.52784C21.2781 8.09198 20.6406 7.72099 19.969 7.42125L18.4304 6.74674L17.6767 3.29833H14.3289L13.5719 6.74839L12.0365 7.42125C11.7097 7.5648 11.3909 7.72611 11.0817 7.90446C10.7547 8.09136 10.4386 8.29673 10.135 8.5196L8.78108 9.5091L5.41678 8.43714L3.73958 11.3463L6.35021 13.7227L6.1655 15.3933C6.08437 16.1233 6.08437 16.86 6.1655 17.59L6.35021 19.259L3.73958 21.6387L5.41348 24.538L8.77778 23.466ZM15.9945 23.0883C12.3513 23.0883 9.39787 20.1349 9.39787 16.4917C9.39787 12.8484 12.3513 9.895 15.9945 9.895C19.6378 9.895 22.5912 12.8484 22.5912 16.4917C22.5867 20.133 19.6359 23.0838 15.9945 23.0883ZM15.9945 13.1933C14.1926 13.1952 12.7257 14.6427 12.6999 16.4444C12.6741 18.2461 14.0989 19.7351 15.9 19.7885C17.7011 19.842 19.2118 18.4402 19.2929 16.6401V17.2998V16.4917C19.2929 14.67 17.8162 13.1933 15.9945 13.1933Z" fill="#383838"/>
</svg>
