<svg width="29" height="29" viewBox="0 0 29 29" fill="none" xmlns="http://www.w3.org/2000/svg">
<path d="M28.7475 6.66519C29.4846 9.61293 28.5774 12.7874 26.4228 14.9415C24.2681 17.0957 21.263 17.946 18.3145 17.2657L7.88147 27.6395C7.03095 28.5465 5.84023 29 4.6495 29C3.40207 29 2.21135 28.5465 1.36083 27.6395C0.45361 26.7892 0 25.5988 0 24.4083C0 23.1612 0.45361 21.9708 1.36083 21.1205L11.7372 10.69C11.0567 7.74225 11.9073 4.68113 14.0619 2.5837C16.2165 0.372896 19.3351 -0.477414 22.3403 0.259521C23.0774 0.429583 23.5877 0.996456 23.8145 1.6767C23.9846 2.35695 23.8145 3.09389 23.3042 3.60407L19.9588 6.89194L20.2423 8.76262L22.1135 9.04606L25.4588 5.70151C25.9125 5.24801 26.6496 5.02126 27.33 5.24801C28.0671 5.41807 28.5774 5.98494 28.7475 6.66519ZM24.4949 13.0142C25.6856 11.8804 26.3094 10.2932 26.3094 8.70593L23.0207 11.9938L17.9176 11.0868L17.0671 5.98494L20.299 2.75376H20.2423C18.6547 2.75376 17.1238 3.32064 15.9897 4.51107C14.3454 6.09832 13.8351 8.47919 14.5722 10.69L14.799 11.4836L3.23197 22.9911C2.89176 23.388 2.72166 23.8415 2.72166 24.4083C2.72166 24.9185 2.89176 25.372 3.23197 25.7688C3.96908 26.4491 5.27321 26.4491 6.01033 25.7688L17.5207 14.2046L18.3145 14.488C20.5258 15.1683 22.9073 14.6581 24.4949 13.0142ZM4.98971 23.1612C5.44332 23.1612 5.89693 23.558 5.89693 24.0682C5.89693 24.5217 5.44332 24.9752 4.98971 24.9752C4.4794 24.9752 4.08249 24.5217 4.08249 24.0682C4.08249 23.558 4.4794 23.1612 4.98971 23.1612Z" fill="#383838"/>
</svg>
