<svg width="34" height="34" viewBox="0 0 34 34" fill="none" xmlns="http://www.w3.org/2000/svg">
<path d="M17.2461 33.4297L18.7305 32.0195C19.1016 31.6484 19.1016 31.0547 18.7305 30.7578L7.22656 19.1797H32.6094C33.0547 19.1797 33.5 18.8086 33.5 18.2891V16.2109C33.5 15.7656 33.0547 15.3203 32.6094 15.3203H7.22656L18.7305 3.81641C19.1016 3.51953 19.1016 2.92578 18.7305 2.55469L17.2461 1.14453C16.9492 0.773438 16.3555 0.773438 15.9844 1.14453L0.472656 16.6562C0.101562 17.0273 0.101562 17.5469 0.472656 17.918L15.9844 33.4297C16.3555 33.8008 16.9492 33.8008 17.2461 33.4297Z" fill="white"/>
</svg>
