<svg width="37" height="40" viewBox="0 0 37 40" fill="none" xmlns="http://www.w3.org/2000/svg">
<g clip-path="url(#clip0_114_1687)">
<mask id="mask0_114_1687" style="mask-type:luminance" maskUnits="userSpaceOnUse" x="0" y="0" width="37" height="40">
<path d="M36.3203 0.570312H0.320312V39.5703H36.3203V0.570312Z" fill="white"/>
</mask>
<g mask="url(#mask0_114_1687)">
<path d="M2.8988 1.89031C1.0988 3.81031 0.1388 8.07031 0.5588 12.0303C0.9788 16.1703 3.1388 25.3503 4.3388 28.1703C5.1788 30.1503 5.1788 30.2703 3.6788 31.3503C2.7788 32.0103 2.1188 33.0303 2.1188 33.8703C2.1188 35.0703 2.5988 35.4303 5.4188 36.2103C7.2188 36.7503 10.1588 37.5903 11.8988 38.0703C13.5788 38.5503 16.0988 38.9703 17.4188 39.0303C24.0188 39.0903 28.5788 38.8503 32.1188 38.1903L36.0188 37.4103L35.8988 34.8303C35.8388 33.0303 35.3588 31.7103 34.3988 30.6903C33.4388 29.6703 33.2588 29.1303 33.7988 28.9503C35.4188 28.3503 34.2188 18.0303 32.1188 15.4503C31.5188 14.6703 29.6588 13.5903 27.9788 12.9303C25.3388 11.9703 24.9788 11.6703 25.2788 10.5303C25.7588 8.55031 21.9788 3.39031 19.7588 2.97031C18.7988 2.79031 16.9988 2.13031 15.7988 1.59031C14.2988 0.930313 12.0188 0.570312 8.8388 0.570312C4.6988 0.570312 3.9788 0.750313 2.8988 1.89031ZM15.7388 2.67031C16.3988 3.15031 17.2988 4.41031 17.6588 5.43031C18.3188 7.29031 18.2588 7.29031 17.2388 6.39031C16.3988 5.61031 14.9588 5.37031 11.8388 5.37031C8.4188 5.37031 7.5188 5.19031 7.5188 4.47031C7.5188 3.99031 6.8588 3.45031 6.0188 3.21031C3.0188 2.43031 4.6388 1.77031 9.4988 1.77031C12.9188 1.77031 14.8388 2.07031 15.7388 2.67031ZM22.5788 6.75031C24.6188 9.63031 24.7388 10.6503 23.0588 12.8103C21.3188 15.0303 20.1188 14.8503 20.1188 12.3903C20.1188 11.2503 19.6988 9.03031 19.2188 7.41031C18.0788 3.63031 18.0788 3.63031 19.5788 3.99031C20.2388 4.17031 21.6188 5.43031 22.5788 6.75031ZM3.1388 6.93031C3.2588 11.1903 4.3388 13.0503 7.2188 14.4303C8.5988 15.0903 10.3388 16.2303 11.0588 17.0103C12.6188 18.6903 14.9588 28.5303 13.8788 29.0103C13.4588 29.1903 13.4588 29.4903 14.0588 29.8503C15.0188 30.5103 15.7988 37.7703 14.9588 37.7703C13.3388 37.7103 4.8188 34.8303 4.6388 34.2903C4.5788 33.9903 4.9988 33.5103 5.7188 33.2703C7.3988 32.7303 9.3188 30.6303 9.3188 29.3103C9.3188 28.7103 9.7988 28.1703 10.3988 28.0503C11.0588 27.8703 10.2788 27.2103 7.9988 26.0703C4.7588 24.4503 4.5788 24.2103 3.3788 20.4903C1.8188 15.8103 1.2188 10.6503 1.7588 6.93031C2.2988 3.39031 2.9588 3.39031 3.1388 6.93031ZM6.5588 4.71031C7.1588 5.67031 7.6988 10.6503 7.3388 11.6103C6.7388 13.1703 5.1788 11.9703 4.8188 9.69031C4.6388 8.43031 4.3388 6.75031 4.2188 5.79031C3.9788 4.53031 4.1588 4.17031 5.1188 4.17031C5.7188 4.17031 6.3788 4.41031 6.5588 4.71031ZM17.4188 8.61031C18.7988 11.1303 18.3788 12.2703 15.9188 12.8103C13.3388 13.2903 9.7388 13.2303 9.0188 12.6903C8.7188 12.4503 8.4188 11.0103 8.4188 9.39031L8.3588 6.57031H12.3788C16.2788 6.57031 16.3388 6.63031 17.4188 8.61031ZM19.5188 14.9103C19.5188 16.1703 19.6988 18.0303 19.8788 18.9903C20.1788 20.6703 20.0588 20.8503 18.3788 21.0903C16.6988 21.3303 16.5188 21.2103 16.1588 19.3503C15.9188 18.2103 15.0788 16.4703 14.2988 15.5103L12.7988 13.7703H15.2588C16.5788 13.7703 17.8388 13.4703 18.0188 13.1703C18.7988 11.8503 19.5188 12.6903 19.5188 14.9103ZM28.7588 14.3703C31.7588 15.8103 32.7188 17.4903 33.0788 22.1703L33.3788 25.4703L32.5388 23.3703C32.0588 22.2303 31.3388 20.0703 30.8588 18.5703C30.1988 16.4703 29.4788 15.6303 27.6188 14.5503C24.6188 12.8703 25.2788 12.7503 28.7588 14.3703ZM29.6588 17.9103C29.9588 18.7503 30.4388 20.1303 30.6788 20.9103L31.0388 22.3503L29.3588 21.0303C28.3988 20.3103 27.4388 19.1103 27.2588 18.3903C26.9588 17.1903 26.5988 17.0703 23.8388 17.2503C20.2988 17.4303 19.6988 16.4703 22.3988 14.9103C23.8988 14.0703 24.1988 14.0703 26.5388 15.1503C28.0388 15.8703 29.2988 17.0103 29.6588 17.9103ZM13.3988 16.3503C14.3588 17.3103 15.0188 19.3503 15.6188 22.8303C16.6388 28.7103 16.6388 28.7703 16.0388 28.7703C15.7988 28.7703 15.0788 26.4303 14.5388 23.5503C13.9388 20.6703 12.9188 17.6103 12.2588 16.6503C10.7588 14.6103 11.5988 14.4303 13.3988 16.3503ZM26.1188 18.2103C26.1188 18.3303 26.2988 18.8703 26.4788 19.4103C26.7788 20.1903 26.3588 20.3703 24.1388 20.3703C21.0188 20.3703 19.9388 19.4703 22.0388 18.6303C23.4788 18.0303 26.1188 17.7903 26.1188 18.2103ZM28.8788 22.2303C29.0588 22.5303 27.7388 22.7703 25.9988 22.8303C24.2588 22.8303 21.4988 23.0703 19.9388 23.3103C18.3788 23.5503 16.9388 23.5503 16.7588 23.2503C16.2788 22.5303 17.6588 22.1103 22.3388 21.6303C26.5988 21.2103 28.3388 21.3303 28.8788 22.2303ZM20.7788 28.1703C21.4388 32.3103 22.1588 33.0903 24.8588 32.6103C27.8588 32.0703 28.0388 31.8903 27.0188 30.3903C26.5388 29.6703 25.9988 27.8703 25.7588 26.4303C25.3988 24.0903 25.4588 23.8503 26.4788 24.0903C27.2588 24.2103 27.7388 25.0503 28.0388 26.7903C28.6988 30.7503 29.4788 31.7703 31.8188 31.7703C33.9788 31.7703 35.1188 32.9703 35.1188 35.3103C35.1188 36.7503 34.5788 36.9303 27.3188 37.7703C19.9388 38.7303 18.3188 38.1903 18.3188 34.8903C18.3188 33.6303 18.0188 30.9903 17.6588 29.0703C17.0588 25.8903 17.1188 25.4703 18.0788 24.7503C19.5788 23.6703 20.1788 24.5103 20.7788 28.1703ZM24.6188 26.1903C24.8588 27.4503 25.2188 29.0703 25.5188 29.7903C25.9388 30.8703 25.8188 31.1703 24.7988 31.4703C23.0588 32.0703 22.0988 30.7503 21.6788 27.0903C21.2588 24.0303 21.3188 23.9703 22.7588 23.9703C24.0188 23.9703 24.3188 24.3303 24.6188 26.1903ZM31.7588 24.6903C31.9388 25.1103 32.1788 26.6103 32.2988 27.9903C32.5388 30.2103 32.4188 30.5703 31.4588 30.5703C30.1388 30.5703 29.4188 29.3103 28.9388 26.1903C28.6388 24.1503 28.6988 23.9703 30.0788 23.9703C30.9188 23.9703 31.6388 24.3303 31.7588 24.6903ZM6.9188 26.6703C8.7788 27.6303 8.9588 28.0503 8.3588 29.6103C7.8188 31.0503 7.0388 30.7503 5.7188 28.5903C3.8588 25.5303 4.0988 25.1703 6.9188 26.6703ZM17.1188 34.2303C17.1188 39.0303 16.2188 38.7303 16.0988 33.8703C16.0388 31.5303 16.2188 30.0903 16.5788 30.2703C16.8788 30.5103 17.1188 32.2503 17.1188 34.2303ZM6.3188 31.5903C6.3188 31.8903 5.6588 32.3703 4.8188 32.7903C3.9788 33.1503 3.3188 33.2703 3.3188 33.0303C3.3188 32.7303 3.9188 32.2503 4.6988 31.8903C6.3788 31.0503 6.3188 31.1103 6.3188 31.5903Z" fill="white"/>
<mask id="mask1_114_1687" style="mask-type:luminance" maskUnits="userSpaceOnUse" x="-1" y="-1" width="38" height="42">
<path d="M36.4609 0.0390625H-0.539062V40.0391H36.4609V0.0390625Z" fill="white" stroke="white" stroke-width="0.6"/>
<path d="M2.8988 1.89031C1.0988 3.81031 0.1388 8.07031 0.5588 12.0303C0.9788 16.1703 3.1388 25.3503 4.3388 28.1703C5.1788 30.1503 5.1788 30.2703 3.6788 31.3503C2.7788 32.0103 2.1188 33.0303 2.1188 33.8703C2.1188 35.0703 2.5988 35.4303 5.4188 36.2103C7.2188 36.7503 10.1588 37.5903 11.8988 38.0703C13.5788 38.5503 16.0988 38.9703 17.4188 39.0303C24.0188 39.0903 28.5788 38.8503 32.1188 38.1903L36.0188 37.4103L35.8988 34.8303C35.8388 33.0303 35.3588 31.7103 34.3988 30.6903C33.4388 29.6703 33.2588 29.1303 33.7988 28.9503C35.4188 28.3503 34.2188 18.0303 32.1188 15.4503C31.5188 14.6703 29.6588 13.5903 27.9788 12.9303C25.3388 11.9703 24.9788 11.6703 25.2788 10.5303C25.7588 8.55031 21.9788 3.39031 19.7588 2.97031C18.7988 2.79031 16.9988 2.13031 15.7988 1.59031C14.2988 0.930313 12.0188 0.570312 8.8388 0.570312C4.6988 0.570312 3.9788 0.750313 2.8988 1.89031ZM15.7388 2.67031C16.3988 3.15031 17.2988 4.41031 17.6588 5.43031C18.3188 7.29031 18.2588 7.29031 17.2388 6.39031C16.3988 5.61031 14.9588 5.37031 11.8388 5.37031C8.4188 5.37031 7.5188 5.19031 7.5188 4.47031C7.5188 3.99031 6.8588 3.45031 6.0188 3.21031C3.0188 2.43031 4.6388 1.77031 9.4988 1.77031C12.9188 1.77031 14.8388 2.07031 15.7388 2.67031ZM22.5788 6.75031C24.6188 9.63031 24.7388 10.6503 23.0588 12.8103C21.3188 15.0303 20.1188 14.8503 20.1188 12.3903C20.1188 11.2503 19.6988 9.03031 19.2188 7.41031C18.0788 3.63031 18.0788 3.63031 19.5788 3.99031C20.2388 4.17031 21.6188 5.43031 22.5788 6.75031ZM3.1388 6.93031C3.2588 11.1903 4.3388 13.0503 7.2188 14.4303C8.5988 15.0903 10.3388 16.2303 11.0588 17.0103C12.6188 18.6903 14.9588 28.5303 13.8788 29.0103C13.4588 29.1903 13.4588 29.4903 14.0588 29.8503C15.0188 30.5103 15.7988 37.7703 14.9588 37.7703C13.3388 37.7103 4.8188 34.8303 4.6388 34.2903C4.5788 33.9903 4.9988 33.5103 5.7188 33.2703C7.3988 32.7303 9.3188 30.6303 9.3188 29.3103C9.3188 28.7103 9.7988 28.1703 10.3988 28.0503C11.0588 27.8703 10.2788 27.2103 7.9988 26.0703C4.7588 24.4503 4.5788 24.2103 3.3788 20.4903C1.8188 15.8103 1.2188 10.6503 1.7588 6.93031C2.2988 3.39031 2.9588 3.39031 3.1388 6.93031ZM6.5588 4.71031C7.1588 5.67031 7.6988 10.6503 7.3388 11.6103C6.7388 13.1703 5.1788 11.9703 4.8188 9.69031C4.6388 8.43031 4.3388 6.75031 4.2188 5.79031C3.9788 4.53031 4.1588 4.17031 5.1188 4.17031C5.7188 4.17031 6.3788 4.41031 6.5588 4.71031ZM17.4188 8.61031C18.7988 11.1303 18.3788 12.2703 15.9188 12.8103C13.3388 13.2903 9.7388 13.2303 9.0188 12.6903C8.7188 12.4503 8.4188 11.0103 8.4188 9.39031L8.3588 6.57031H12.3788C16.2788 6.57031 16.3388 6.63031 17.4188 8.61031ZM19.5188 14.9103C19.5188 16.1703 19.6988 18.0303 19.8788 18.9903C20.1788 20.6703 20.0588 20.8503 18.3788 21.0903C16.6988 21.3303 16.5188 21.2103 16.1588 19.3503C15.9188 18.2103 15.0788 16.4703 14.2988 15.5103L12.7988 13.7703H15.2588C16.5788 13.7703 17.8388 13.4703 18.0188 13.1703C18.7988 11.8503 19.5188 12.6903 19.5188 14.9103ZM28.7588 14.3703C31.7588 15.8103 32.7188 17.4903 33.0788 22.1703L33.3788 25.4703L32.5388 23.3703C32.0588 22.2303 31.3388 20.0703 30.8588 18.5703C30.1988 16.4703 29.4788 15.6303 27.6188 14.5503C24.6188 12.8703 25.2788 12.7503 28.7588 14.3703ZM29.6588 17.9103C29.9588 18.7503 30.4388 20.1303 30.6788 20.9103L31.0388 22.3503L29.3588 21.0303C28.3988 20.3103 27.4388 19.1103 27.2588 18.3903C26.9588 17.1903 26.5988 17.0703 23.8388 17.2503C20.2988 17.4303 19.6988 16.4703 22.3988 14.9103C23.8988 14.0703 24.1988 14.0703 26.5388 15.1503C28.0388 15.8703 29.2988 17.0103 29.6588 17.9103ZM13.3988 16.3503C14.3588 17.3103 15.0188 19.3503 15.6188 22.8303C16.6388 28.7103 16.6388 28.7703 16.0388 28.7703C15.7988 28.7703 15.0788 26.4303 14.5388 23.5503C13.9388 20.6703 12.9188 17.6103 12.2588 16.6503C10.7588 14.6103 11.5988 14.4303 13.3988 16.3503ZM26.1188 18.2103C26.1188 18.3303 26.2988 18.8703 26.4788 19.4103C26.7788 20.1903 26.3588 20.3703 24.1388 20.3703C21.0188 20.3703 19.9388 19.4703 22.0388 18.6303C23.4788 18.0303 26.1188 17.7903 26.1188 18.2103ZM28.8788 22.2303C29.0588 22.5303 27.7388 22.7703 25.9988 22.8303C24.2588 22.8303 21.4988 23.0703 19.9388 23.3103C18.3788 23.5503 16.9388 23.5503 16.7588 23.2503C16.2788 22.5303 17.6588 22.1103 22.3388 21.6303C26.5988 21.2103 28.3388 21.3303 28.8788 22.2303ZM20.7788 28.1703C21.4388 32.3103 22.1588 33.0903 24.8588 32.6103C27.8588 32.0703 28.0388 31.8903 27.0188 30.3903C26.5388 29.6703 25.9988 27.8703 25.7588 26.4303C25.3988 24.0903 25.4588 23.8503 26.4788 24.0903C27.2588 24.2103 27.7388 25.0503 28.0388 26.7903C28.6988 30.7503 29.4788 31.7703 31.8188 31.7703C33.9788 31.7703 35.1188 32.9703 35.1188 35.3103C35.1188 36.7503 34.5788 36.9303 27.3188 37.7703C19.9388 38.7303 18.3188 38.1903 18.3188 34.8903C18.3188 33.6303 18.0188 30.9903 17.6588 29.0703C17.0588 25.8903 17.1188 25.4703 18.0788 24.7503C19.5788 23.6703 20.1788 24.5103 20.7788 28.1703ZM24.6188 26.1903C24.8588 27.4503 25.2188 29.0703 25.5188 29.7903C25.9388 30.8703 25.8188 31.1703 24.7988 31.4703C23.0588 32.0703 22.0988 30.7503 21.6788 27.0903C21.2588 24.0303 21.3188 23.9703 22.7588 23.9703C24.0188 23.9703 24.3188 24.3303 24.6188 26.1903ZM31.7588 24.6903C31.9388 25.1103 32.1788 26.6103 32.2988 27.9903C32.5388 30.2103 32.4188 30.5703 31.4588 30.5703C30.1388 30.5703 29.4188 29.3103 28.9388 26.1903C28.6388 24.1503 28.6988 23.9703 30.0788 23.9703C30.9188 23.9703 31.6388 24.3303 31.7588 24.6903ZM6.9188 26.6703C8.7788 27.6303 8.9588 28.0503 8.3588 29.6103C7.8188 31.0503 7.0388 30.7503 5.7188 28.5903C3.8588 25.5303 4.0988 25.1703 6.9188 26.6703ZM17.1188 34.2303C17.1188 39.0303 16.2188 38.7303 16.0988 33.8703C16.0388 31.5303 16.2188 30.0903 16.5788 30.2703C16.8788 30.5103 17.1188 32.2503 17.1188 34.2303ZM6.3188 31.5903C6.3188 31.8903 5.6588 32.3703 4.8188 32.7903C3.9788 33.1503 3.3188 33.2703 3.3188 33.0303C3.3188 32.7303 3.9188 32.2503 4.6988 31.8903C6.3788 31.0503 6.3188 31.1103 6.3188 31.5903Z" stroke="white" stroke-width="0.6"/>
</mask>
<g mask="url(#mask1_114_1687)">
<path d="M2.8988 1.89031C1.0988 3.81031 0.1388 8.07031 0.5588 12.0303C0.9788 16.1703 3.1388 25.3503 4.3388 28.1703C5.1788 30.1503 5.1788 30.2703 3.6788 31.3503C2.7788 32.0103 2.1188 33.0303 2.1188 33.8703C2.1188 35.0703 2.5988 35.4303 5.4188 36.2103C7.2188 36.7503 10.1588 37.5903 11.8988 38.0703C13.5788 38.5503 16.0988 38.9703 17.4188 39.0303C24.0188 39.0903 28.5788 38.8503 32.1188 38.1903L36.0188 37.4103L35.8988 34.8303C35.8388 33.0303 35.3588 31.7103 34.3988 30.6903C33.4388 29.6703 33.2588 29.1303 33.7988 28.9503C35.4188 28.3503 34.2188 18.0303 32.1188 15.4503C31.5188 14.6703 29.6588 13.5903 27.9788 12.9303C25.3388 11.9703 24.9788 11.6703 25.2788 10.5303C25.7588 8.55031 21.9788 3.39031 19.7588 2.97031C18.7988 2.79031 16.9988 2.13031 15.7988 1.59031C14.2988 0.930313 12.0188 0.570312 8.8388 0.570312C4.6988 0.570312 3.9788 0.750313 2.8988 1.89031ZM15.7388 2.67031C16.3988 3.15031 17.2988 4.41031 17.6588 5.43031C18.3188 7.29031 18.2588 7.29031 17.2388 6.39031C16.3988 5.61031 14.9588 5.37031 11.8388 5.37031C8.4188 5.37031 7.5188 5.19031 7.5188 4.47031C7.5188 3.99031 6.8588 3.45031 6.0188 3.21031C3.0188 2.43031 4.6388 1.77031 9.4988 1.77031C12.9188 1.77031 14.8388 2.07031 15.7388 2.67031ZM22.5788 6.75031C24.6188 9.63031 24.7388 10.6503 23.0588 12.8103C21.3188 15.0303 20.1188 14.8503 20.1188 12.3903C20.1188 11.2503 19.6988 9.03031 19.2188 7.41031C18.0788 3.63031 18.0788 3.63031 19.5788 3.99031C20.2388 4.17031 21.6188 5.43031 22.5788 6.75031ZM3.1388 6.93031C3.2588 11.1903 4.3388 13.0503 7.2188 14.4303C8.5988 15.0903 10.3388 16.2303 11.0588 17.0103C12.6188 18.6903 14.9588 28.5303 13.8788 29.0103C13.4588 29.1903 13.4588 29.4903 14.0588 29.8503C15.0188 30.5103 15.7988 37.7703 14.9588 37.7703C13.3388 37.7103 4.8188 34.8303 4.6388 34.2903C4.5788 33.9903 4.9988 33.5103 5.7188 33.2703C7.3988 32.7303 9.3188 30.6303 9.3188 29.3103C9.3188 28.7103 9.7988 28.1703 10.3988 28.0503C11.0588 27.8703 10.2788 27.2103 7.9988 26.0703C4.7588 24.4503 4.5788 24.2103 3.3788 20.4903C1.8188 15.8103 1.2188 10.6503 1.7588 6.93031C2.2988 3.39031 2.9588 3.39031 3.1388 6.93031ZM6.5588 4.71031C7.1588 5.67031 7.6988 10.6503 7.3388 11.6103C6.7388 13.1703 5.1788 11.9703 4.8188 9.69031C4.6388 8.43031 4.3388 6.75031 4.2188 5.79031C3.9788 4.53031 4.1588 4.17031 5.1188 4.17031C5.7188 4.17031 6.3788 4.41031 6.5588 4.71031ZM17.4188 8.61031C18.7988 11.1303 18.3788 12.2703 15.9188 12.8103C13.3388 13.2903 9.7388 13.2303 9.0188 12.6903C8.7188 12.4503 8.4188 11.0103 8.4188 9.39031L8.3588 6.57031H12.3788C16.2788 6.57031 16.3388 6.63031 17.4188 8.61031ZM19.5188 14.9103C19.5188 16.1703 19.6988 18.0303 19.8788 18.9903C20.1788 20.6703 20.0588 20.8503 18.3788 21.0903C16.6988 21.3303 16.5188 21.2103 16.1588 19.3503C15.9188 18.2103 15.0788 16.4703 14.2988 15.5103L12.7988 13.7703H15.2588C16.5788 13.7703 17.8388 13.4703 18.0188 13.1703C18.7988 11.8503 19.5188 12.6903 19.5188 14.9103ZM28.7588 14.3703C31.7588 15.8103 32.7188 17.4903 33.0788 22.1703L33.3788 25.4703L32.5388 23.3703C32.0588 22.2303 31.3388 20.0703 30.8588 18.5703C30.1988 16.4703 29.4788 15.6303 27.6188 14.5503C24.6188 12.8703 25.2788 12.7503 28.7588 14.3703ZM29.6588 17.9103C29.9588 18.7503 30.4388 20.1303 30.6788 20.9103L31.0388 22.3503L29.3588 21.0303C28.3988 20.3103 27.4388 19.1103 27.2588 18.3903C26.9588 17.1903 26.5988 17.0703 23.8388 17.2503C20.2988 17.4303 19.6988 16.4703 22.3988 14.9103C23.8988 14.0703 24.1988 14.0703 26.5388 15.1503C28.0388 15.8703 29.2988 17.0103 29.6588 17.9103ZM13.3988 16.3503C14.3588 17.3103 15.0188 19.3503 15.6188 22.8303C16.6388 28.7103 16.6388 28.7703 16.0388 28.7703C15.7988 28.7703 15.0788 26.4303 14.5388 23.5503C13.9388 20.6703 12.9188 17.6103 12.2588 16.6503C10.7588 14.6103 11.5988 14.4303 13.3988 16.3503ZM26.1188 18.2103C26.1188 18.3303 26.2988 18.8703 26.4788 19.4103C26.7788 20.1903 26.3588 20.3703 24.1388 20.3703C21.0188 20.3703 19.9388 19.4703 22.0388 18.6303C23.4788 18.0303 26.1188 17.7903 26.1188 18.2103ZM28.8788 22.2303C29.0588 22.5303 27.7388 22.7703 25.9988 22.8303C24.2588 22.8303 21.4988 23.0703 19.9388 23.3103C18.3788 23.5503 16.9388 23.5503 16.7588 23.2503C16.2788 22.5303 17.6588 22.1103 22.3388 21.6303C26.5988 21.2103 28.3388 21.3303 28.8788 22.2303ZM20.7788 28.1703C21.4388 32.3103 22.1588 33.0903 24.8588 32.6103C27.8588 32.0703 28.0388 31.8903 27.0188 30.3903C26.5388 29.6703 25.9988 27.8703 25.7588 26.4303C25.3988 24.0903 25.4588 23.8503 26.4788 24.0903C27.2588 24.2103 27.7388 25.0503 28.0388 26.7903C28.6988 30.7503 29.4788 31.7703 31.8188 31.7703C33.9788 31.7703 35.1188 32.9703 35.1188 35.3103C35.1188 36.7503 34.5788 36.9303 27.3188 37.7703C19.9388 38.7303 18.3188 38.1903 18.3188 34.8903C18.3188 33.6303 18.0188 30.9903 17.6588 29.0703C17.0588 25.8903 17.1188 25.4703 18.0788 24.7503C19.5788 23.6703 20.1788 24.5103 20.7788 28.1703ZM24.6188 26.1903C24.8588 27.4503 25.2188 29.0703 25.5188 29.7903C25.9388 30.8703 25.8188 31.1703 24.7988 31.4703C23.0588 32.0703 22.0988 30.7503 21.6788 27.0903C21.2588 24.0303 21.3188 23.9703 22.7588 23.9703C24.0188 23.9703 24.3188 24.3303 24.6188 26.1903ZM31.7588 24.6903C31.9388 25.1103 32.1788 26.6103 32.2988 27.9903C32.5388 30.2103 32.4188 30.5703 31.4588 30.5703C30.1388 30.5703 29.4188 29.3103 28.9388 26.1903C28.6388 24.1503 28.6988 23.9703 30.0788 23.9703C30.9188 23.9703 31.6388 24.3303 31.7588 24.6903ZM6.9188 26.6703C8.7788 27.6303 8.9588 28.0503 8.3588 29.6103C7.8188 31.0503 7.0388 30.7503 5.7188 28.5903C3.8588 25.5303 4.0988 25.1703 6.9188 26.6703ZM17.1188 34.2303C17.1188 39.0303 16.2188 38.7303 16.0988 33.8703C16.0388 31.5303 16.2188 30.0903 16.5788 30.2703C16.8788 30.5103 17.1188 32.2503 17.1188 34.2303ZM6.3188 31.5903C6.3188 31.8903 5.6588 32.3703 4.8188 32.7903C3.9788 33.1503 3.3188 33.2703 3.3188 33.0303C3.3188 32.7303 3.9188 32.2503 4.6988 31.8903C6.3788 31.0503 6.3188 31.1103 6.3188 31.5903Z" stroke="white" stroke-width="0.6"/>
</g>
<path d="M6.55915 22.4703C7.21915 22.9503 8.17915 23.3703 8.65915 23.3703C9.43915 23.3103 9.37915 23.1303 8.47915 22.4703C7.81915 21.9903 6.85915 21.5703 6.37915 21.5703C5.59915 21.6303 5.65915 21.8103 6.55915 22.4703Z" fill="white"/>
</g>
</g>
<defs>
<clipPath id="clip0_114_1687">
<rect width="36" height="39" fill="white" transform="translate(0.320312 0.570312)"/>
</clipPath>
</defs>
</svg>
