<svg width="35" height="35" viewBox="0 0 35 35" fill="none" xmlns="http://www.w3.org/2000/svg">
<path d="M16.9141 6.875C11.263 6.875 6.70569 11.4778 6.70569 17.0833C6.70569 22.7344 11.263 27.2916 16.9141 27.2916C22.5195 27.2916 27.1224 22.7344 27.1224 17.0833C27.1224 11.4778 22.5195 6.875 16.9141 6.875ZM16.9141 25.1041C12.4479 25.1041 8.89319 21.5495 8.89319 17.0833C8.89319 12.6627 12.4479 9.0625 16.9141 9.0625C21.3346 9.0625 24.9349 12.6627 24.9349 17.0833C24.9349 21.5495 21.3346 25.1041 16.9141 25.1041ZM16.9141 20C16.0937 20 15.4557 20.6836 15.4557 21.4583C15.4557 22.2786 16.0937 22.9166 16.9141 22.9166C17.6888 22.9166 18.3724 22.2786 18.3724 21.4583C18.3724 20.6836 17.6888 20 16.9141 20ZM17.9167 11.25H15.8659C15.4557 11.25 15.0911 11.6601 15.1367 12.0703L15.7292 17.9036C15.7747 18.2682 16.0937 18.5416 16.4583 18.5416H17.3242C17.6888 18.5416 18.0078 18.2682 18.0534 17.9036L18.6458 12.0703C18.6914 11.6601 18.3268 11.25 17.9167 11.25ZM4.51819 17.0833C4.51819 14.3945 5.38407 11.7513 7.0247 9.60937C7.25256 9.29036 7.20699 8.88021 6.93355 8.60677L6.38668 8.15104C6.06767 7.8776 5.56637 7.92318 5.29293 8.24219C3.37887 10.7943 2.33069 13.8932 2.33069 17.0833C2.33069 20.319 3.37887 23.4179 5.29293 25.97C5.56637 26.289 6.06767 26.3346 6.38668 26.0612L6.93355 25.6054C7.20699 25.332 7.25256 24.9219 7.0247 24.6028C5.38407 22.4609 4.51819 19.8177 4.51819 17.0833ZM28.3984 8.15104C28.1706 7.83203 27.6693 7.78646 27.3503 8.0599L26.8034 8.5612C26.4844 8.78906 26.4844 9.24479 26.7122 9.5638C28.3984 11.7057 29.3099 14.3489 29.3099 17.0833C29.3099 19.8633 28.3984 22.5065 26.7122 24.6484C26.4844 24.9674 26.4844 25.4232 26.8034 25.651L27.3503 26.1523C27.6693 26.4258 28.1706 26.3802 28.3984 26.0612C30.4036 23.5091 31.4974 20.3646 31.4974 17.0833C31.4974 13.8476 30.4036 10.7031 28.3984 8.15104Z" fill="white"/>
</svg>
