<svg width="36" height="39" viewBox="0 0 36 39" fill="none" xmlns="http://www.w3.org/2000/svg">
<g clip-path="url(#clip0_560_13099)">
<mask id="path-1-outside-1_560_13099" maskUnits="userSpaceOnUse" x="-0.859375" y="-0.53125" width="37" height="40" fill="black">
<rect fill="white" x="-0.859375" y="-0.53125" width="37" height="40"/>
<path d="M2.57849 1.31987C0.778488 3.23987 -0.181512 7.49987 0.238488 11.4599C0.658488 15.5999 2.81849 24.7799 4.01849 27.5999C4.85849 29.5799 4.85849 29.6999 3.35849 30.7799C2.45849 31.4399 1.79849 32.4599 1.79849 33.2999C1.79849 34.4999 2.27849 34.8599 5.09849 35.6399C6.89849 36.1799 9.83849 37.0199 11.5785 37.4999C13.2585 37.9799 15.7785 38.3999 17.0985 38.4599C23.6985 38.5199 28.2585 38.2799 31.7985 37.6199L35.6985 36.8399L35.5785 34.2599C35.5185 32.4599 35.0385 31.1399 34.0785 30.1199C33.1185 29.0999 32.9385 28.5599 33.4785 28.3799C35.0985 27.7799 33.8985 17.4599 31.7985 14.8799C31.1985 14.0999 29.3385 13.0199 27.6585 12.3599C25.0185 11.3999 24.6585 11.0999 24.9585 9.95987C25.4385 7.97987 21.6585 2.81987 19.4385 2.39987C18.4785 2.21987 16.6785 1.55987 15.4785 1.01987C13.9785 0.359867 11.6985 -0.000133514 8.51849 -0.000133514C4.37849 -0.000133514 3.65849 0.179867 2.57849 1.31987ZM15.4185 2.09986C16.0785 2.57987 16.9785 3.83987 17.3385 4.85987C17.9985 6.71987 17.9385 6.71987 16.9185 5.81987C16.0785 5.03987 14.6385 4.79987 11.5185 4.79987C8.09849 4.79987 7.19849 4.61987 7.19849 3.89987C7.19849 3.41986 6.53849 2.87987 5.69849 2.63987C2.69849 1.85987 4.31849 1.19987 9.17849 1.19987C12.5985 1.19987 14.5185 1.49987 15.4185 2.09986ZM22.2585 6.17987C24.2985 9.05987 24.4185 10.0799 22.7385 12.2399C20.9985 14.4599 19.7985 14.2799 19.7985 11.8199C19.7985 10.6799 19.3785 8.45987 18.8985 6.83987C17.7585 3.05987 17.7585 3.05987 19.2585 3.41986C19.9185 3.59986 21.2985 4.85987 22.2585 6.17987ZM2.81849 6.35987C2.93849 10.6199 4.01849 12.4799 6.89849 13.8599C8.27849 14.5199 10.0185 15.6599 10.7385 16.4399C12.2985 18.1199 14.6385 27.9599 13.5585 28.4399C13.1385 28.6199 13.1385 28.9199 13.7385 29.2799C14.6985 29.9399 15.4785 37.1999 14.6385 37.1999C13.0185 37.1399 4.49849 34.2599 4.31849 33.7199C4.25849 33.4199 4.67849 32.9399 5.39849 32.6999C7.07849 32.1599 8.99849 30.0599 8.99849 28.7399C8.99849 28.1399 9.47849 27.5999 10.0785 27.4799C10.7385 27.2999 9.95849 26.6399 7.67849 25.4999C4.43849 23.8799 4.25849 23.6399 3.05849 19.9199C1.49849 15.2399 0.898488 10.0799 1.43849 6.35987C1.97849 2.81987 2.63849 2.81987 2.81849 6.35987ZM6.23849 4.13987C6.83849 5.09986 7.37849 10.0799 7.01849 11.0399C6.41849 12.5999 4.85849 11.3999 4.49849 9.11987C4.31849 7.85987 4.01849 6.17987 3.89849 5.21987C3.65849 3.95987 3.83849 3.59986 4.79849 3.59986C5.39849 3.59986 6.05849 3.83987 6.23849 4.13987ZM17.0985 8.03987C18.4785 10.5599 18.0585 11.6999 15.5985 12.2399C13.0185 12.7199 9.41849 12.6599 8.69849 12.1199C8.39849 11.8799 8.09849 10.4399 8.09849 8.81987L8.03849 5.99987H12.0585C15.9585 5.99987 16.0185 6.05987 17.0985 8.03987ZM19.1985 14.3399C19.1985 15.5999 19.3785 17.4599 19.5585 18.4199C19.8585 20.0999 19.7385 20.2799 18.0585 20.5199C16.3785 20.7599 16.1985 20.6399 15.8385 18.7799C15.5985 17.6399 14.7585 15.8999 13.9785 14.9399L12.4785 13.1999H14.9385C16.2585 13.1999 17.5185 12.8999 17.6985 12.5999C18.4785 11.2799 19.1985 12.1199 19.1985 14.3399ZM28.4385 13.7999C31.4385 15.2399 32.3985 16.9199 32.7585 21.5999L33.0585 24.8999L32.2185 22.7999C31.7385 21.6599 31.0185 19.4999 30.5385 17.9999C29.8785 15.8999 29.1585 15.0599 27.2985 13.9799C24.2985 12.2999 24.9585 12.1799 28.4385 13.7999ZM29.3385 17.3399C29.6385 18.1799 30.1185 19.5599 30.3585 20.3399L30.7185 21.7799L29.0385 20.4599C28.0785 19.7399 27.1185 18.5399 26.9385 17.8199C26.6385 16.6199 26.2785 16.4999 23.5185 16.6799C19.9785 16.8599 19.3785 15.8999 22.0785 14.3399C23.5785 13.4999 23.8785 13.4999 26.2185 14.5799C27.7185 15.2999 28.9785 16.4399 29.3385 17.3399ZM13.0785 15.7799C14.0385 16.7399 14.6985 18.7799 15.2985 22.2599C16.3185 28.1399 16.3185 28.1999 15.7185 28.1999C15.4785 28.1999 14.7585 25.8599 14.2185 22.9799C13.6185 20.0999 12.5985 17.0399 11.9385 16.0799C10.4385 14.0399 11.2785 13.8599 13.0785 15.7799ZM25.7985 17.6399C25.7985 17.7599 25.9785 18.2999 26.1585 18.8399C26.4585 19.6199 26.0385 19.7999 23.8185 19.7999C20.6985 19.7999 19.6185 18.8999 21.7185 18.0599C23.1585 17.4599 25.7985 17.2199 25.7985 17.6399ZM28.5585 21.6599C28.7385 21.9599 27.4185 22.1999 25.6785 22.2599C23.9385 22.2599 21.1785 22.4999 19.6185 22.7399C18.0585 22.9799 16.6185 22.9799 16.4385 22.6799C15.9585 21.9599 17.3385 21.5399 22.0185 21.0599C26.2785 20.6399 28.0185 20.7599 28.5585 21.6599ZM20.4585 27.5999C21.1185 31.7399 21.8385 32.5199 24.5385 32.0399C27.5385 31.4999 27.7185 31.3199 26.6985 29.8199C26.2185 29.0999 25.6785 27.2999 25.4385 25.8599C25.0785 23.5199 25.1385 23.2799 26.1585 23.5199C26.9385 23.6399 27.4185 24.4799 27.7185 26.2199C28.3785 30.1799 29.1585 31.1999 31.4985 31.1999C33.6585 31.1999 34.7985 32.3999 34.7985 34.7399C34.7985 36.1799 34.2585 36.3599 26.9985 37.1999C19.6185 38.1599 17.9985 37.6199 17.9985 34.3199C17.9985 33.0599 17.6985 30.4199 17.3385 28.4999C16.7385 25.3199 16.7985 24.8999 17.7585 24.1799C19.2585 23.0999 19.8585 23.9399 20.4585 27.5999ZM24.2985 25.6199C24.5385 26.8799 24.8985 28.4999 25.1985 29.2199C25.6185 30.2999 25.4985 30.5999 24.4785 30.8999C22.7385 31.4999 21.7785 30.1799 21.3585 26.5199C20.9385 23.4599 20.9985 23.3999 22.4385 23.3999C23.6985 23.3999 23.9985 23.7599 24.2985 25.6199ZM31.4385 24.1199C31.6185 24.5399 31.8585 26.0399 31.9785 27.4199C32.2185 29.6399 32.0985 29.9999 31.1385 29.9999C29.8185 29.9999 29.0985 28.7399 28.6185 25.6199C28.3185 23.5799 28.3785 23.3999 29.7585 23.3999C30.5985 23.3999 31.3185 23.7599 31.4385 24.1199ZM6.59849 26.0999C8.45849 27.0599 8.63849 27.4799 8.03849 29.0399C7.49849 30.4799 6.71849 30.1799 5.39849 28.0199C3.53849 24.9599 3.77849 24.5999 6.59849 26.0999ZM16.7985 33.6599C16.7985 38.4599 15.8985 38.1599 15.7785 33.2999C15.7185 30.9599 15.8985 29.5199 16.2585 29.6999C16.5585 29.9399 16.7985 31.6799 16.7985 33.6599ZM5.99849 31.0199C5.99849 31.3199 5.33849 31.7999 4.49849 32.2199C3.65849 32.5799 2.99849 32.6999 2.99849 32.4599C2.99849 32.1599 3.59849 31.6799 4.37849 31.3199C6.05849 30.4799 5.99849 30.5399 5.99849 31.0199Z"/>
</mask>
<path d="M2.57849 1.31987C0.778488 3.23987 -0.181512 7.49987 0.238488 11.4599C0.658488 15.5999 2.81849 24.7799 4.01849 27.5999C4.85849 29.5799 4.85849 29.6999 3.35849 30.7799C2.45849 31.4399 1.79849 32.4599 1.79849 33.2999C1.79849 34.4999 2.27849 34.8599 5.09849 35.6399C6.89849 36.1799 9.83849 37.0199 11.5785 37.4999C13.2585 37.9799 15.7785 38.3999 17.0985 38.4599C23.6985 38.5199 28.2585 38.2799 31.7985 37.6199L35.6985 36.8399L35.5785 34.2599C35.5185 32.4599 35.0385 31.1399 34.0785 30.1199C33.1185 29.0999 32.9385 28.5599 33.4785 28.3799C35.0985 27.7799 33.8985 17.4599 31.7985 14.8799C31.1985 14.0999 29.3385 13.0199 27.6585 12.3599C25.0185 11.3999 24.6585 11.0999 24.9585 9.95987C25.4385 7.97987 21.6585 2.81987 19.4385 2.39987C18.4785 2.21987 16.6785 1.55987 15.4785 1.01987C13.9785 0.359867 11.6985 -0.000133514 8.51849 -0.000133514C4.37849 -0.000133514 3.65849 0.179867 2.57849 1.31987ZM15.4185 2.09986C16.0785 2.57987 16.9785 3.83987 17.3385 4.85987C17.9985 6.71987 17.9385 6.71987 16.9185 5.81987C16.0785 5.03987 14.6385 4.79987 11.5185 4.79987C8.09849 4.79987 7.19849 4.61987 7.19849 3.89987C7.19849 3.41986 6.53849 2.87987 5.69849 2.63987C2.69849 1.85987 4.31849 1.19987 9.17849 1.19987C12.5985 1.19987 14.5185 1.49987 15.4185 2.09986ZM22.2585 6.17987C24.2985 9.05987 24.4185 10.0799 22.7385 12.2399C20.9985 14.4599 19.7985 14.2799 19.7985 11.8199C19.7985 10.6799 19.3785 8.45987 18.8985 6.83987C17.7585 3.05987 17.7585 3.05987 19.2585 3.41986C19.9185 3.59986 21.2985 4.85987 22.2585 6.17987ZM2.81849 6.35987C2.93849 10.6199 4.01849 12.4799 6.89849 13.8599C8.27849 14.5199 10.0185 15.6599 10.7385 16.4399C12.2985 18.1199 14.6385 27.9599 13.5585 28.4399C13.1385 28.6199 13.1385 28.9199 13.7385 29.2799C14.6985 29.9399 15.4785 37.1999 14.6385 37.1999C13.0185 37.1399 4.49849 34.2599 4.31849 33.7199C4.25849 33.4199 4.67849 32.9399 5.39849 32.6999C7.07849 32.1599 8.99849 30.0599 8.99849 28.7399C8.99849 28.1399 9.47849 27.5999 10.0785 27.4799C10.7385 27.2999 9.95849 26.6399 7.67849 25.4999C4.43849 23.8799 4.25849 23.6399 3.05849 19.9199C1.49849 15.2399 0.898488 10.0799 1.43849 6.35987C1.97849 2.81987 2.63849 2.81987 2.81849 6.35987ZM6.23849 4.13987C6.83849 5.09986 7.37849 10.0799 7.01849 11.0399C6.41849 12.5999 4.85849 11.3999 4.49849 9.11987C4.31849 7.85987 4.01849 6.17987 3.89849 5.21987C3.65849 3.95987 3.83849 3.59986 4.79849 3.59986C5.39849 3.59986 6.05849 3.83987 6.23849 4.13987ZM17.0985 8.03987C18.4785 10.5599 18.0585 11.6999 15.5985 12.2399C13.0185 12.7199 9.41849 12.6599 8.69849 12.1199C8.39849 11.8799 8.09849 10.4399 8.09849 8.81987L8.03849 5.99987H12.0585C15.9585 5.99987 16.0185 6.05987 17.0985 8.03987ZM19.1985 14.3399C19.1985 15.5999 19.3785 17.4599 19.5585 18.4199C19.8585 20.0999 19.7385 20.2799 18.0585 20.5199C16.3785 20.7599 16.1985 20.6399 15.8385 18.7799C15.5985 17.6399 14.7585 15.8999 13.9785 14.9399L12.4785 13.1999H14.9385C16.2585 13.1999 17.5185 12.8999 17.6985 12.5999C18.4785 11.2799 19.1985 12.1199 19.1985 14.3399ZM28.4385 13.7999C31.4385 15.2399 32.3985 16.9199 32.7585 21.5999L33.0585 24.8999L32.2185 22.7999C31.7385 21.6599 31.0185 19.4999 30.5385 17.9999C29.8785 15.8999 29.1585 15.0599 27.2985 13.9799C24.2985 12.2999 24.9585 12.1799 28.4385 13.7999ZM29.3385 17.3399C29.6385 18.1799 30.1185 19.5599 30.3585 20.3399L30.7185 21.7799L29.0385 20.4599C28.0785 19.7399 27.1185 18.5399 26.9385 17.8199C26.6385 16.6199 26.2785 16.4999 23.5185 16.6799C19.9785 16.8599 19.3785 15.8999 22.0785 14.3399C23.5785 13.4999 23.8785 13.4999 26.2185 14.5799C27.7185 15.2999 28.9785 16.4399 29.3385 17.3399ZM13.0785 15.7799C14.0385 16.7399 14.6985 18.7799 15.2985 22.2599C16.3185 28.1399 16.3185 28.1999 15.7185 28.1999C15.4785 28.1999 14.7585 25.8599 14.2185 22.9799C13.6185 20.0999 12.5985 17.0399 11.9385 16.0799C10.4385 14.0399 11.2785 13.8599 13.0785 15.7799ZM25.7985 17.6399C25.7985 17.7599 25.9785 18.2999 26.1585 18.8399C26.4585 19.6199 26.0385 19.7999 23.8185 19.7999C20.6985 19.7999 19.6185 18.8999 21.7185 18.0599C23.1585 17.4599 25.7985 17.2199 25.7985 17.6399ZM28.5585 21.6599C28.7385 21.9599 27.4185 22.1999 25.6785 22.2599C23.9385 22.2599 21.1785 22.4999 19.6185 22.7399C18.0585 22.9799 16.6185 22.9799 16.4385 22.6799C15.9585 21.9599 17.3385 21.5399 22.0185 21.0599C26.2785 20.6399 28.0185 20.7599 28.5585 21.6599ZM20.4585 27.5999C21.1185 31.7399 21.8385 32.5199 24.5385 32.0399C27.5385 31.4999 27.7185 31.3199 26.6985 29.8199C26.2185 29.0999 25.6785 27.2999 25.4385 25.8599C25.0785 23.5199 25.1385 23.2799 26.1585 23.5199C26.9385 23.6399 27.4185 24.4799 27.7185 26.2199C28.3785 30.1799 29.1585 31.1999 31.4985 31.1999C33.6585 31.1999 34.7985 32.3999 34.7985 34.7399C34.7985 36.1799 34.2585 36.3599 26.9985 37.1999C19.6185 38.1599 17.9985 37.6199 17.9985 34.3199C17.9985 33.0599 17.6985 30.4199 17.3385 28.4999C16.7385 25.3199 16.7985 24.8999 17.7585 24.1799C19.2585 23.0999 19.8585 23.9399 20.4585 27.5999ZM24.2985 25.6199C24.5385 26.8799 24.8985 28.4999 25.1985 29.2199C25.6185 30.2999 25.4985 30.5999 24.4785 30.8999C22.7385 31.4999 21.7785 30.1799 21.3585 26.5199C20.9385 23.4599 20.9985 23.3999 22.4385 23.3999C23.6985 23.3999 23.9985 23.7599 24.2985 25.6199ZM31.4385 24.1199C31.6185 24.5399 31.8585 26.0399 31.9785 27.4199C32.2185 29.6399 32.0985 29.9999 31.1385 29.9999C29.8185 29.9999 29.0985 28.7399 28.6185 25.6199C28.3185 23.5799 28.3785 23.3999 29.7585 23.3999C30.5985 23.3999 31.3185 23.7599 31.4385 24.1199ZM6.59849 26.0999C8.45849 27.0599 8.63849 27.4799 8.03849 29.0399C7.49849 30.4799 6.71849 30.1799 5.39849 28.0199C3.53849 24.9599 3.77849 24.5999 6.59849 26.0999ZM16.7985 33.6599C16.7985 38.4599 15.8985 38.1599 15.7785 33.2999C15.7185 30.9599 15.8985 29.5199 16.2585 29.6999C16.5585 29.9399 16.7985 31.6799 16.7985 33.6599ZM5.99849 31.0199C5.99849 31.3199 5.33849 31.7999 4.49849 32.2199C3.65849 32.5799 2.99849 32.6999 2.99849 32.4599C2.99849 32.1599 3.59849 31.6799 4.37849 31.3199C6.05849 30.4799 5.99849 30.5399 5.99849 31.0199Z" fill="white"/>
<path d="M2.57849 1.31987C0.778488 3.23987 -0.181512 7.49987 0.238488 11.4599C0.658488 15.5999 2.81849 24.7799 4.01849 27.5999C4.85849 29.5799 4.85849 29.6999 3.35849 30.7799C2.45849 31.4399 1.79849 32.4599 1.79849 33.2999C1.79849 34.4999 2.27849 34.8599 5.09849 35.6399C6.89849 36.1799 9.83849 37.0199 11.5785 37.4999C13.2585 37.9799 15.7785 38.3999 17.0985 38.4599C23.6985 38.5199 28.2585 38.2799 31.7985 37.6199L35.6985 36.8399L35.5785 34.2599C35.5185 32.4599 35.0385 31.1399 34.0785 30.1199C33.1185 29.0999 32.9385 28.5599 33.4785 28.3799C35.0985 27.7799 33.8985 17.4599 31.7985 14.8799C31.1985 14.0999 29.3385 13.0199 27.6585 12.3599C25.0185 11.3999 24.6585 11.0999 24.9585 9.95987C25.4385 7.97987 21.6585 2.81987 19.4385 2.39987C18.4785 2.21987 16.6785 1.55987 15.4785 1.01987C13.9785 0.359867 11.6985 -0.000133514 8.51849 -0.000133514C4.37849 -0.000133514 3.65849 0.179867 2.57849 1.31987ZM15.4185 2.09986C16.0785 2.57987 16.9785 3.83987 17.3385 4.85987C17.9985 6.71987 17.9385 6.71987 16.9185 5.81987C16.0785 5.03987 14.6385 4.79987 11.5185 4.79987C8.09849 4.79987 7.19849 4.61987 7.19849 3.89987C7.19849 3.41986 6.53849 2.87987 5.69849 2.63987C2.69849 1.85987 4.31849 1.19987 9.17849 1.19987C12.5985 1.19987 14.5185 1.49987 15.4185 2.09986ZM22.2585 6.17987C24.2985 9.05987 24.4185 10.0799 22.7385 12.2399C20.9985 14.4599 19.7985 14.2799 19.7985 11.8199C19.7985 10.6799 19.3785 8.45987 18.8985 6.83987C17.7585 3.05987 17.7585 3.05987 19.2585 3.41986C19.9185 3.59986 21.2985 4.85987 22.2585 6.17987ZM2.81849 6.35987C2.93849 10.6199 4.01849 12.4799 6.89849 13.8599C8.27849 14.5199 10.0185 15.6599 10.7385 16.4399C12.2985 18.1199 14.6385 27.9599 13.5585 28.4399C13.1385 28.6199 13.1385 28.9199 13.7385 29.2799C14.6985 29.9399 15.4785 37.1999 14.6385 37.1999C13.0185 37.1399 4.49849 34.2599 4.31849 33.7199C4.25849 33.4199 4.67849 32.9399 5.39849 32.6999C7.07849 32.1599 8.99849 30.0599 8.99849 28.7399C8.99849 28.1399 9.47849 27.5999 10.0785 27.4799C10.7385 27.2999 9.95849 26.6399 7.67849 25.4999C4.43849 23.8799 4.25849 23.6399 3.05849 19.9199C1.49849 15.2399 0.898488 10.0799 1.43849 6.35987C1.97849 2.81987 2.63849 2.81987 2.81849 6.35987ZM6.23849 4.13987C6.83849 5.09986 7.37849 10.0799 7.01849 11.0399C6.41849 12.5999 4.85849 11.3999 4.49849 9.11987C4.31849 7.85987 4.01849 6.17987 3.89849 5.21987C3.65849 3.95987 3.83849 3.59986 4.79849 3.59986C5.39849 3.59986 6.05849 3.83987 6.23849 4.13987ZM17.0985 8.03987C18.4785 10.5599 18.0585 11.6999 15.5985 12.2399C13.0185 12.7199 9.41849 12.6599 8.69849 12.1199C8.39849 11.8799 8.09849 10.4399 8.09849 8.81987L8.03849 5.99987H12.0585C15.9585 5.99987 16.0185 6.05987 17.0985 8.03987ZM19.1985 14.3399C19.1985 15.5999 19.3785 17.4599 19.5585 18.4199C19.8585 20.0999 19.7385 20.2799 18.0585 20.5199C16.3785 20.7599 16.1985 20.6399 15.8385 18.7799C15.5985 17.6399 14.7585 15.8999 13.9785 14.9399L12.4785 13.1999H14.9385C16.2585 13.1999 17.5185 12.8999 17.6985 12.5999C18.4785 11.2799 19.1985 12.1199 19.1985 14.3399ZM28.4385 13.7999C31.4385 15.2399 32.3985 16.9199 32.7585 21.5999L33.0585 24.8999L32.2185 22.7999C31.7385 21.6599 31.0185 19.4999 30.5385 17.9999C29.8785 15.8999 29.1585 15.0599 27.2985 13.9799C24.2985 12.2999 24.9585 12.1799 28.4385 13.7999ZM29.3385 17.3399C29.6385 18.1799 30.1185 19.5599 30.3585 20.3399L30.7185 21.7799L29.0385 20.4599C28.0785 19.7399 27.1185 18.5399 26.9385 17.8199C26.6385 16.6199 26.2785 16.4999 23.5185 16.6799C19.9785 16.8599 19.3785 15.8999 22.0785 14.3399C23.5785 13.4999 23.8785 13.4999 26.2185 14.5799C27.7185 15.2999 28.9785 16.4399 29.3385 17.3399ZM13.0785 15.7799C14.0385 16.7399 14.6985 18.7799 15.2985 22.2599C16.3185 28.1399 16.3185 28.1999 15.7185 28.1999C15.4785 28.1999 14.7585 25.8599 14.2185 22.9799C13.6185 20.0999 12.5985 17.0399 11.9385 16.0799C10.4385 14.0399 11.2785 13.8599 13.0785 15.7799ZM25.7985 17.6399C25.7985 17.7599 25.9785 18.2999 26.1585 18.8399C26.4585 19.6199 26.0385 19.7999 23.8185 19.7999C20.6985 19.7999 19.6185 18.8999 21.7185 18.0599C23.1585 17.4599 25.7985 17.2199 25.7985 17.6399ZM28.5585 21.6599C28.7385 21.9599 27.4185 22.1999 25.6785 22.2599C23.9385 22.2599 21.1785 22.4999 19.6185 22.7399C18.0585 22.9799 16.6185 22.9799 16.4385 22.6799C15.9585 21.9599 17.3385 21.5399 22.0185 21.0599C26.2785 20.6399 28.0185 20.7599 28.5585 21.6599ZM20.4585 27.5999C21.1185 31.7399 21.8385 32.5199 24.5385 32.0399C27.5385 31.4999 27.7185 31.3199 26.6985 29.8199C26.2185 29.0999 25.6785 27.2999 25.4385 25.8599C25.0785 23.5199 25.1385 23.2799 26.1585 23.5199C26.9385 23.6399 27.4185 24.4799 27.7185 26.2199C28.3785 30.1799 29.1585 31.1999 31.4985 31.1999C33.6585 31.1999 34.7985 32.3999 34.7985 34.7399C34.7985 36.1799 34.2585 36.3599 26.9985 37.1999C19.6185 38.1599 17.9985 37.6199 17.9985 34.3199C17.9985 33.0599 17.6985 30.4199 17.3385 28.4999C16.7385 25.3199 16.7985 24.8999 17.7585 24.1799C19.2585 23.0999 19.8585 23.9399 20.4585 27.5999ZM24.2985 25.6199C24.5385 26.8799 24.8985 28.4999 25.1985 29.2199C25.6185 30.2999 25.4985 30.5999 24.4785 30.8999C22.7385 31.4999 21.7785 30.1799 21.3585 26.5199C20.9385 23.4599 20.9985 23.3999 22.4385 23.3999C23.6985 23.3999 23.9985 23.7599 24.2985 25.6199ZM31.4385 24.1199C31.6185 24.5399 31.8585 26.0399 31.9785 27.4199C32.2185 29.6399 32.0985 29.9999 31.1385 29.9999C29.8185 29.9999 29.0985 28.7399 28.6185 25.6199C28.3185 23.5799 28.3785 23.3999 29.7585 23.3999C30.5985 23.3999 31.3185 23.7599 31.4385 24.1199ZM6.59849 26.0999C8.45849 27.0599 8.63849 27.4799 8.03849 29.0399C7.49849 30.4799 6.71849 30.1799 5.39849 28.0199C3.53849 24.9599 3.77849 24.5999 6.59849 26.0999ZM16.7985 33.6599C16.7985 38.4599 15.8985 38.1599 15.7785 33.2999C15.7185 30.9599 15.8985 29.5199 16.2585 29.6999C16.5585 29.9399 16.7985 31.6799 16.7985 33.6599ZM5.99849 31.0199C5.99849 31.3199 5.33849 31.7999 4.49849 32.2199C3.65849 32.5799 2.99849 32.6999 2.99849 32.4599C2.99849 32.1599 3.59849 31.6799 4.37849 31.3199C6.05849 30.4799 5.99849 30.5399 5.99849 31.0199Z" stroke="white" stroke-width="0.6" mask="url(#path-1-outside-1_560_13099)"/>
<path d="M6.23884 21.9008C6.89884 22.3808 7.85884 22.8008 8.33884 22.8008C9.11884 22.7408 9.05884 22.5608 8.15884 21.9008C7.49884 21.4208 6.53884 21.0008 6.05884 21.0008C5.27884 21.0608 5.33884 21.2408 6.23884 21.9008Z" fill="white"/>
</g>
<defs>
<clipPath id="clip0_560_13099">
<rect width="36" height="39" fill="white"/>
</clipPath>
</defs>
</svg>
