<svg width="22" height="35" viewBox="0 0 22 35" fill="none" xmlns="http://www.w3.org/2000/svg">
<path d="M13.1302 27.8698C13.1302 26.7381 12.1317 25.7396 11 25.7396C9.80176 25.7396 8.86979 26.7381 8.86979 27.8698C8.86979 29.068 9.80176 30 11 30C12.1317 30 13.1302 29.068 13.1302 27.8698ZM16.3255 23.8757V6.30143C16.3255 5.90202 15.9261 5.50261 15.5267 5.50261H6.47331C6.00732 5.50261 5.67448 5.90202 5.67448 6.30143V23.8757C5.67448 24.3416 6.00732 24.6745 6.47331 24.6745H15.5267C15.9261 24.6745 16.3255 24.3416 16.3255 23.8757ZM21.651 3.3724C21.651 1.6416 20.1865 0.177084 18.4557 0.177084H3.54427C1.74691 0.177084 0.348959 1.6416 0.348959 3.3724V31.0651C0.348959 32.8625 1.74691 34.2604 3.54427 34.2604H18.4557C20.1865 34.2604 21.651 32.8625 21.651 31.0651V3.3724ZM18.4557 30.6657C18.4557 30.932 18.256 31.0651 18.0563 31.0651H3.94369C3.67741 31.0651 3.54427 30.932 3.54427 30.6657V3.77181C3.54427 3.5721 3.67741 3.3724 3.94369 3.3724H18.0563C18.256 3.3724 18.4557 3.5721 18.4557 3.77181V30.6657Z" fill="white"/>
</svg>
