<svg width="57" height="57" viewBox="0 0 57 57" fill="none" xmlns="http://www.w3.org/2000/svg">
<path d="M28.2461 44.4297L29.7305 43.0195C30.1016 42.6484 30.1016 42.0547 29.7305 41.7578L18.2266 30.1797H43.6094C44.0547 30.1797 44.5 29.8086 44.5 29.2891V27.2109C44.5 26.7656 44.0547 26.3203 43.6094 26.3203H18.2266L29.7305 14.8164C30.1016 14.5195 30.1016 13.9258 29.7305 13.5547L28.2461 12.1445C27.9492 11.7734 27.3555 11.7734 26.9844 12.1445L11.4727 27.6562C11.1016 28.0273 11.1016 28.5469 11.4727 28.918L26.9844 44.4297C27.3555 44.8008 27.9492 44.8008 28.2461 44.4297Z" fill="white"/>
</svg>
