<svg width="70" height="70" viewBox="0 0 70 70" fill="none" xmlns="http://www.w3.org/2000/svg">
<path d="M51.0104 24.0462L47.9115 14.8405C47.3646 13.1087 45.724 11.8327 43.8099 11.8327H15.099C13.1849 11.8327 11.5443 13.1087 10.9974 14.8405L6.34897 28.6947C6.16668 29.1504 6.16668 29.6061 6.16668 30.0618V54.1243C6.16668 56.5853 8.08074 58.4993 10.5417 58.4993H47C56.6615 58.4993 64.5 50.6608 64.5 40.9993C64.5 32.7962 58.7578 25.8691 51.0104 24.0462ZM31.6875 16.2077H43.8099L46.2708 23.5905C41.7136 23.7728 37.612 25.6868 34.6042 28.6035H31.6875V16.2077ZM15.099 16.2077H27.3125V28.6035H10.9974L15.099 16.2077ZM10.5417 54.1243V32.9785H31.4141C30.138 35.4395 29.5 38.1738 29.5 40.9993C29.5 46.2858 31.7787 50.9342 35.4245 54.1243H10.5417ZM47 54.1243C39.7083 54.1243 33.875 48.291 33.875 40.9993C33.875 33.7988 39.7083 27.8743 47 27.8743C54.2005 27.8743 60.125 33.7988 60.125 40.9993C60.125 48.291 54.2005 54.1243 47 54.1243ZM52.8333 35.4395C52.5599 35.166 52.1042 35.166 51.8307 35.4395L45.4505 41.7285L42.7162 38.903C42.4427 38.6296 41.987 38.6296 41.7136 38.903L39.9818 40.6348C39.7083 40.9082 39.7083 41.3639 39.9818 41.6374L44.9037 46.6504C45.1771 46.9238 45.6328 46.9238 45.9063 46.6504L54.5651 38.1738C54.8386 37.9004 54.8386 37.4447 54.5651 37.0801L52.8333 35.4395Z" fill="#383838"/>
</svg>
