<svg width="70" height="70" viewBox="0 0 70 70" fill="none" xmlns="http://www.w3.org/2000/svg">
<path d="M58.1354 27.2363L49.0209 36.3509C48.5651 36.8066 47.836 36.8066 47.4714 36.3509L45.6485 34.528C45.1927 34.1634 45.1927 33.4342 45.6485 32.9785L50.2969 28.6035H12.9271C12.2891 28.6035 11.8334 28.1478 11.8334 27.5098V25.3223C11.8334 24.7754 12.2891 24.2285 12.9271 24.2285H50.2969L45.6485 19.9447C45.1927 19.4889 45.1927 18.7598 45.6485 18.3952L47.4714 16.5723C47.836 16.1165 48.5651 16.1165 49.0209 16.5723L58.1354 25.6868C58.5912 26.1426 58.5912 26.7806 58.1354 27.2363ZM12.1068 44.7363C11.6511 44.2806 11.6511 43.6426 12.1068 43.1868L21.2214 34.0723C21.6771 33.6165 22.4063 33.6165 22.7709 34.0723L24.5938 35.8952C25.0495 36.2598 25.0495 36.9889 24.5938 37.4447L19.9453 41.7285H57.4063C57.9531 41.7285 58.5 42.2754 58.5 42.8223V45.0098C58.5 45.6478 57.9531 46.1035 57.4063 46.1035H19.9453L24.5938 50.4785C25.0495 50.9342 25.0495 51.6634 24.5938 52.028L22.7709 53.8509C22.4063 54.3066 21.6771 54.3066 21.2214 53.8509L12.1068 44.7363Z" fill="#383838"/>
</svg>
