<svg width="24" height="25" viewBox="0 0 24 25" fill="none" xmlns="http://www.w3.org/2000/svg">
<path d="M19.625 4.97266C19.8125 4.97266 20 5.16016 20 5.34766V11.3477C20 11.5664 19.8125 11.7227 19.625 11.7227H13.625C13.4062 11.7227 13.25 11.5664 13.25 11.3477V10.5039C13.25 10.2852 13.4062 10.1289 13.625 10.1289L17.5625 10.2227C16.5938 8.09766 14.4688 6.59766 12 6.59766C9.03125 6.59766 6.59375 8.69141 6 11.4414C5.96875 11.6289 5.8125 11.7227 5.625 11.7227H4.75C4.5 11.7227 4.3125 11.5352 4.375 11.2852C5.03125 7.69141 8.1875 4.97266 12 4.97266C14.6875 4.97266 17.0625 6.37891 18.4375 8.44141L18.375 5.37891C18.375 5.16016 18.5312 4.97266 18.75 4.97266H19.625ZM19.2188 13.7227C19.4688 13.7227 19.6562 13.9414 19.5938 14.1914C18.9375 17.7852 15.7812 20.4727 12 20.4727C9.28125 20.4727 6.90625 19.0977 5.53125 17.0352L5.59375 20.0977C5.59375 20.3164 5.4375 20.4727 5.21875 20.4727H4.375C4.15625 20.4727 4 20.3164 4 20.0977V14.0977C4 13.9102 4.15625 13.7227 4.375 13.7227H10.375C10.5625 13.7227 10.75 13.9102 10.75 14.0977V14.9727C10.75 15.1914 10.5625 15.3477 10.3438 15.3477L6.40625 15.2539C7.375 17.3789 9.5 18.8477 12 18.8477C14.9375 18.8477 17.375 16.7852 17.9688 14.0352C18 13.8477 18.1562 13.7227 18.3438 13.7227H19.2188Z" fill="#181818"/>
</svg>
