<svg width="185" height="29" viewBox="0 0 185 29" fill="none" xmlns="http://www.w3.org/2000/svg">
<path fill-rule="evenodd" clip-rule="evenodd" d="M150.238 0.058624C151.195 0.0620049 152.13 0.348638 152.924 0.882375C153.718 1.41611 154.337 2.17306 154.702 3.05777C155.066 3.94249 155.161 4.91538 154.973 5.85374C154.786 6.79209 154.324 7.65393 153.648 8.33057C152.971 9.00721 152.109 9.46837 151.171 9.65585C150.232 9.84343 149.26 9.7489 148.375 9.38424C147.49 9.01961 146.733 8.40119 146.199 7.60696C145.666 6.81272 145.38 5.87824 145.376 4.92133C145.374 4.28212 145.497 3.64876 145.741 3.05777C145.985 2.46678 146.343 1.92983 146.795 1.47783C147.247 1.02584 147.784 0.667745 148.375 0.424169C148.966 0.180593 149.599 0.0563649 150.238 0.058624Z" fill="#F58220"/>
<path fill-rule="evenodd" clip-rule="evenodd" d="M121.353 0.0586238C122.311 0.0552498 123.249 0.336136 124.048 0.865766C124.847 1.39539 125.471 2.14999 125.84 3.03411C126.21 3.91823 126.309 4.89217 126.126 5.83278C125.942 6.77338 125.483 7.63841 124.809 8.31846C124.133 8.99851 123.271 9.46308 122.332 9.6534C121.393 9.84362 120.418 9.75116 119.532 9.38748C118.645 9.02386 117.886 8.40547 117.351 7.61049C116.816 6.81552 116.528 5.87969 116.524 4.92133C116.526 3.63824 117.035 2.40784 117.939 1.49737C118.843 0.58689 120.07 0.0698775 121.353 0.0586238Z" fill="#F58220"/>
<path d="M174.565 27.6711V23.945H181.073V16.886H174.565V13.0744H180.351C180.954 13.0734 181.551 13.1986 182.103 13.4418C182.656 13.6975 183.157 14.0523 183.582 14.4888C184.016 14.9191 184.36 15.4319 184.594 15.9971C184.842 16.5479 184.968 17.1452 184.966 17.7491V23.1929C184.961 23.5879 184.909 23.9809 184.812 24.3638C184.698 24.7435 184.533 25.1058 184.321 25.4405C184.114 25.7776 183.854 26.0791 183.551 26.3336C183.262 26.6064 182.94 26.8431 182.594 27.0386C181.888 27.4373 181.097 27.6602 180.287 27.6881L174.565 27.6711ZM174.565 13.0573V16.8688H168.014V23.945H174.565V27.6711H168.904C168.26 27.6762 167.621 27.5498 167.028 27.2993C166.47 27.0843 165.966 26.7487 165.553 26.3165C165.113 25.9018 164.766 25.3977 164.536 24.8381C164.297 24.2424 164.183 23.604 164.199 22.9622V17.4158C164.18 16.8025 164.328 16.1956 164.626 15.6596C164.929 15.1317 165.324 14.6627 165.793 14.2751C166.313 13.8933 166.89 13.5935 167.502 13.3863C168.127 13.1782 168.783 13.0742 169.442 13.0786L174.565 13.0573ZM96.1338 27.6711V23.945H102.655V16.886H96.1338V13.0744H101.919C102.523 13.0708 103.12 13.1961 103.671 13.4418C104.224 13.6975 104.725 14.0523 105.15 14.4888C105.583 14.9203 105.928 15.4328 106.163 15.9971C106.419 16.546 106.556 17.1433 106.564 17.7491V23.1929C106.564 23.5903 106.502 23.9854 106.381 24.3638C106.267 24.7443 106.1 25.1068 105.884 25.4405C105.68 25.7785 105.42 26.0803 105.116 26.3336C104.833 26.6131 104.513 26.8505 104.163 27.0386C103.821 27.2514 103.448 27.4073 103.057 27.5001C102.667 27.623 102.262 27.6863 101.855 27.6881L96.1338 27.6711ZM112.987 27.8249L109.418 27.7309V16.6723C109.416 15.7068 109.792 14.7788 110.466 14.0871C110.785 13.7522 111.173 13.4899 111.602 13.318C112.043 13.1055 112.528 13 113.017 13.0103C113.47 13.0096 113.919 13.0937 114.342 13.2581C114.738 13.4347 115.109 13.6616 115.448 13.9333C115.786 14.2348 116.086 14.5763 116.341 14.9503C116.586 15.3439 116.802 15.7552 116.986 16.1809L120.31 24.3936L123.969 15.7493C124.237 14.9512 124.729 14.2468 125.387 13.7196C126.035 13.2397 126.824 12.99 127.63 13.0103C128.143 13.0061 128.65 13.1173 129.113 13.3354C129.577 13.5536 129.986 13.8734 130.31 14.2709C130.624 14.6543 130.873 15.0876 131.044 15.5527C131.221 16.046 131.305 16.5674 131.292 17.091V27.7352H127.724V16.9201L124.186 24.6415C123.938 25.1628 123.724 25.6243 123.477 26.0558C123.283 26.4554 123.022 26.8195 122.708 27.1326C122.436 27.4382 122.101 27.6803 121.725 27.842C121.298 28.0245 120.835 28.1079 120.37 28.0855C119.928 28.0925 119.488 27.9975 119.088 27.8078C118.69 27.5984 118.328 27.3288 118.012 27.0088C117.688 26.6712 117.402 26.3003 117.157 25.9021C116.907 25.4885 116.681 25.0605 116.482 24.6201L113.004 17.0484V27.842L112.987 27.8249ZM162.199 12.9932V16.715H145V24.039H162.199V27.7309H146.035C145.424 27.7251 144.819 27.6107 144.248 27.3934C143.681 27.1807 143.152 26.8792 142.68 26.5003C142.22 26.1315 141.843 25.67 141.573 25.1457C141.299 24.5923 141.161 23.9814 141.171 23.3638V18.4071C141.157 17.6029 141.282 16.8021 141.539 16.0399C141.761 15.3866 142.143 14.7991 142.65 14.3307C143.151 13.8717 143.75 13.534 144.402 13.3436C145.17 13.1117 145.968 12.9978 146.769 13.006L162.199 12.9932ZM96.1338 13.0573V16.8688H89.6302V23.945H96.1509V27.6711H90.4849C89.8408 27.6762 89.2024 27.5498 88.609 27.2993C88.0557 27.0758 87.554 26.7413 87.1348 26.3165C86.6944 25.9018 86.3477 25.3977 86.1179 24.8381C85.8973 24.2401 85.7845 23.608 85.7846 22.9707V17.4158C85.7655 16.8025 85.9132 16.1956 86.2119 15.6596C86.5254 15.1307 86.9304 14.6619 87.4082 14.2751C87.9138 13.8958 88.4744 13.5962 89.0705 13.3863C89.6959 13.1782 90.3513 13.0742 91.0105 13.0786L96.1338 13.0573ZM54.2581 23.8553V20.0693H55.9673L54.2581 16.9629V12.9932H54.3179C54.7919 12.9752 55.2642 13.0597 55.7025 13.241C56.0883 13.4305 56.4417 13.68 56.7493 13.9803C57.0809 14.3435 57.3678 14.7452 57.6039 15.1767C57.8517 15.6382 58.1594 16.1638 58.4372 16.7492L64.1886 27.7309H60.0994L57.8817 23.8553H54.2581ZM62.347 12.9932H83.3618V16.7492H74.7558V27.7309H71.0341V16.7492H62.3555L62.347 12.9932ZM10.1648 12.9932H10.2288C10.7032 12.9695 11.1767 13.0542 11.6133 13.241C12.0023 13.4231 12.3554 13.6734 12.6559 13.9803C12.9862 14.3447 13.2729 14.7462 13.5106 15.1767C13.7883 15.6382 14.0661 16.1638 14.3651 16.7492L20.1167 27.7309H16.0487L13.8353 23.8553H10.1733V20.0693H11.9296L10.1733 16.9885V13.0188L10.1648 12.9932ZM54.2581 12.9932V16.9885L52.5019 20.095H54.2581V23.8809H50.5748L48.5408 27.7566H44.3361L50.0578 16.6466C50.3654 16.0912 50.6432 15.5698 50.9123 15.1383C51.1597 14.712 51.4598 14.3187 51.8054 13.9674C52.111 13.6596 52.4779 13.4195 52.8822 13.2624C53.3244 13.0946 53.7938 13.0106 54.2667 13.0146L54.2581 12.9932ZM22.1336 16.2236C22.1299 15.7543 22.2352 15.2907 22.4412 14.8691C22.6544 14.4569 22.9346 14.0829 23.2701 13.7624C23.6081 13.434 24.0054 13.173 24.441 12.9932C24.8788 12.804 25.3487 12.6996 25.8254 12.6855C26.9022 12.6855 27.9192 13.177 28.902 14.1341L38.9949 24.009V13.0402H42.7466V23.8254C42.7468 24.369 42.6631 24.9095 42.4988 25.4277C42.3366 25.9022 42.0906 26.3436 41.7723 26.731C41.4581 27.1046 41.0696 27.4087 40.6315 27.6241C40.1405 27.8522 39.6046 27.9676 39.0633 27.9616C38.804 27.9652 38.5456 27.935 38.2941 27.8719C38.0394 27.8165 37.7915 27.7333 37.5549 27.6241C37.3 27.4843 37.0532 27.3301 36.8157 27.1625C36.5422 26.9788 36.2644 26.7651 35.961 26.5173L25.8681 16.7321V27.7479H22.1463L22.1336 16.2236ZM4.44319 27.7309H0.238525L5.99002 16.621C6.26777 16.0656 6.54551 15.5442 6.81899 15.1126C7.07759 14.694 7.37671 14.3019 7.71204 13.9418C8.02936 13.6342 8.40589 13.3944 8.81877 13.2368C9.24987 13.0669 9.71001 12.9827 10.1733 12.9889V16.9885L8.42137 20.095H10.1733V23.8809H6.51132L4.44319 27.7309Z" fill="#383838"/>
<path d="M138.301 13.0098V27.8414H134.148V13.0098H138.301Z" fill="#383838"/>
<path fill-rule="evenodd" clip-rule="evenodd" d="M136.242 0.0585938C137.199 0.0619747 138.133 0.348608 138.928 0.882346C139.722 1.41608 140.34 2.17303 140.704 3.05774C141.069 3.94247 141.164 4.91534 140.976 5.85371C140.789 6.79206 140.328 7.6539 139.651 8.33054C138.975 9.00718 138.113 9.46837 137.175 9.65585C136.236 9.84333 135.263 9.74881 134.378 9.38424C133.494 9.01958 132.737 8.40116 132.203 7.60692C131.669 6.81269 131.382 5.87821 131.38 4.9213C131.38 3.63163 131.891 2.39478 132.803 1.48285C133.715 0.570917 134.953 0.0585938 136.242 0.0585938Z" fill="#F58220"/>
</svg>
