<svg width="24" height="24" viewBox="0 0 24 24" fill="none" xmlns="http://www.w3.org/2000/svg">
<path d="M12 4.25C16.2812 4.25 19.75 7.71875 19.75 12C19.75 16.2812 16.2812 19.75 12 19.75C7.71875 19.75 4.25 16.2812 4.25 12C4.25 7.71875 7.71875 4.25 12 4.25ZM12 18.25C15.4375 18.25 18.25 15.4688 18.25 12C18.25 8.5625 15.4375 5.75 12 5.75C8.53125 5.75 5.75 8.5625 5.75 12C5.75 15.4688 8.53125 18.25 12 18.25ZM13.9062 15L11.25 13.0625C11.1562 13 11.125 12.875 11.125 12.7812V7.625C11.125 7.4375 11.2812 7.25 11.5 7.25H12.5C12.6875 7.25 12.875 7.4375 12.875 7.625V12.0625L14.9375 13.5938C15.125 13.7188 15.1562 13.9375 15.0312 14.125L14.4375 14.9062C14.3125 15.0938 14.0938 15.125 13.9062 15Z" fill="#181818"/>
</svg>
