<svg width="150" height="37" viewBox="0 0 150 37" fill="none" xmlns="http://www.w3.org/2000/svg">
<path d="M90.5459 12.781C92.298 12.417 94.2809 12.5798 95.7696 13.6423C97.1961 14.6781 97.714 16.519 97.717 18.2089C97.6578 20.035 97.0747 22.0386 95.4736 23.1011C94.0438 23.9695 92.3506 24.2981 90.6998 24.0274C90.4423 23.6368 90.6228 23.1129 90.5666 22.6719C90.5706 19.375 90.5637 16.078 90.5459 12.781Z" fill="white"/>
<path d="M132.062 19.612C132.702 17.3775 133.297 15.1341 133.838 12.873C134.406 15.1223 135.049 17.3509 135.721 19.5705C134.492 19.6031 133.267 19.5617 132.062 19.612Z" fill="white"/>
<path d="M149.462 0.214844H0.973633V36.5379H149.462V0.214844Z" fill="white"/>
<path d="M0.990385 0.214844C50.4747 0.214844 99.9599 0.214844 149.446 0.214844C149.446 12.3166 149.479 24.4184 149.467 36.5201C99.9688 36.5438 50.4697 36.5438 0.969668 36.5201C0.948951 24.4243 0.990385 12.3225 0.990385 0.214844ZM4.19266 3.21586C4.16306 13.2578 4.19266 23.2967 4.19266 33.3386C16.9307 33.3386 29.6668 33.3386 42.4009 33.3386C42.4216 23.3056 42.4009 13.2726 42.4453 3.23954C29.6806 3.17443 16.9544 3.2277 4.19266 3.21586ZM46.0116 3.21586C46.0116 13.243 46.0382 23.273 46.0116 33.3001C79.4283 33.3741 112.848 33.3001 146.268 33.3326C146.282 23.2967 146.268 13.2578 146.303 3.21882C112.876 3.20501 79.445 3.20501 46.0116 3.21882V3.21586Z" fill="#231F20"/>
<path d="M112.596 13.0056C114.076 10.9605 116.485 9.7501 118.959 9.4719C120.921 9.4363 122.975 9.27948 124.807 10.1318C124.553 11.2121 124.245 12.2835 123.961 13.3578C121.64 12.4226 118.654 12.3249 116.733 14.148C114.632 16.3855 114.617 20.3335 116.733 22.5621C118.651 24.3645 121.673 24.2165 123.984 23.3523C124.207 24.4553 124.414 25.5612 124.603 26.67C121.868 27.5579 118.802 27.7147 116.073 26.7233C114.915 26.2935 113.878 25.5912 113.049 24.6758C112.219 23.7604 111.622 22.6588 111.309 21.4641C110.557 18.6436 110.888 15.4265 112.596 13.0056Z" fill="#231F20"/>
<path d="M65.4947 13.7468C65.0566 15.783 64.447 17.3338 63.9379 19.0533C63.1152 21.6282 62.3427 24.2178 61.517 26.7956C60.4574 26.7956 59.395 26.7956 58.3354 26.7956C57.1042 22.4539 55.8494 18.1122 54.9645 13.6846C54.8342 18.1536 54.556 22.6137 54.4051 27.0827C53.1532 27.0827 51.9013 27.0827 50.6523 27.0827C50.8566 21.2671 51.4396 15.4693 51.6852 9.65365C53.461 9.60625 55.2693 9.65365 57.0598 9.63295C58.1963 13.5899 59.4837 17.5114 60.2207 21.569C61.1086 17.5114 62.4167 13.5781 63.7041 9.62695C65.4532 9.62695 67.1994 9.62695 68.9485 9.62695C69.2267 15.4426 69.6055 21.2582 69.8778 27.0886C68.5697 27.0886 67.2615 27.0886 65.9534 27.0886L65.4947 13.7468Z" fill="#231F20"/>
<path d="M72.7473 9.64648C76.3669 9.64648 79.9864 9.64648 83.609 9.64648C83.609 10.7593 83.609 11.8692 83.609 12.982C81.339 12.982 79.0719 12.982 76.8019 12.982C76.8019 14.1303 76.8019 15.2786 76.8019 16.4269C78.9387 16.4447 81.0756 16.4269 83.2153 16.4269V19.7979C81.0785 19.7979 78.9447 19.7979 76.8078 19.7979C76.8078 21.1031 76.8078 22.4112 76.8078 23.7194C79.1962 23.7194 81.5816 23.7194 83.9671 23.7194C84.0263 24.8381 83.9878 25.9686 84.0055 27.0933C80.2469 27.0933 76.4882 27.0933 72.7266 27.0933C72.7414 21.2777 72.7591 15.4621 72.7473 9.64648Z" fill="#231F20"/>
<path d="M86.5267 9.8719C88.9485 9.5308 91.3983 9.4316 93.8398 9.5759C96.2519 9.7565 98.7853 10.6325 100.309 12.6036C101.905 14.5776 102.168 17.2856 101.834 19.7066C101.52 22.4146 99.8744 25.0338 97.3144 26.117C93.9197 27.5968 90.0959 27.3985 86.4971 27.0049C86.5059 21.3077 86.506 15.6046 86.5267 9.8719ZM90.5458 24.0276C92.2461 24.2982 93.9876 23.9708 95.4735 23.1012C97.0746 22.0387 97.6577 20.0351 97.7169 18.209C97.7169 16.5191 97.196 14.6782 95.7694 13.6424C94.2897 12.5799 92.2979 12.4171 90.5458 12.7812V24.0276Z" fill="#231F20"/>
<path d="M104.425 9.64453H108.471C108.471 15.4601 108.471 21.2757 108.486 27.1061C107.127 27.1061 105.766 27.1061 104.407 27.1061C104.411 21.2836 104.417 15.4631 104.425 9.64453Z" fill="#231F20"/>
<path d="M131.338 9.65311C133.114 9.65311 134.866 9.62941 136.63 9.65311C138.406 15.4746 140.261 21.2695 142.058 27.0851C140.578 27.0851 139.119 27.0851 137.651 27.0851C137.204 25.6201 136.739 24.161 136.343 22.6812C134.721 22.6043 133.087 22.6605 131.474 22.6486C131.054 24.1284 130.657 25.6082 130.231 27.088C128.846 27.088 127.461 27.088 126.088 27.088C127.722 21.2517 129.625 15.4776 131.338 9.65311ZM132.063 19.6121C133.277 19.5618 134.493 19.6121 135.71 19.5707C135.038 17.351 134.395 15.1313 133.827 12.8731C133.297 15.1343 132.703 17.3806 132.063 19.6121Z" fill="#231F20"/>
<path d="M27.3678 11.5092C28.4392 10.2454 30.0877 9.62689 31.6977 9.43749C33.6126 9.27468 35.5984 9.45519 37.3653 10.2543C37.0457 11.3227 36.7734 12.4 36.4419 13.4684C34.9177 12.8558 33.2248 12.3852 31.5912 12.8232C30.7299 13.057 29.9545 14.1195 30.502 14.9748C31.2567 16.0225 32.627 16.2741 33.7576 16.7684C35.4297 17.4076 37.17 18.4494 37.7708 20.24C38.3124 21.9447 38.0283 23.9897 36.7527 25.3097C35.4741 26.68 33.5563 27.2187 31.7214 27.2956C29.7742 27.4154 27.8271 27.0599 26.0479 26.2597C26.3142 25.1588 26.5954 24.0608 26.841 22.9539C28.6168 23.7323 30.6411 24.3597 32.5856 23.8418C32.822 23.7897 33.0449 23.6886 33.24 23.5452C33.435 23.4017 33.5979 23.219 33.718 23.0088C33.8382 22.7986 33.913 22.5655 33.9377 22.3247C33.9623 22.0838 33.9362 21.8404 33.8612 21.6102C33.4823 20.7224 32.4909 20.3938 31.677 20.0328C30.0463 19.4409 28.306 18.7809 27.1962 17.3692C25.8348 15.7207 25.9798 13.1162 27.3678 11.5092Z" fill="#F57F29"/>
<path d="M9.20508 9.61523C10.5231 9.63493 11.8381 9.63493 13.1502 9.61523C13.1502 12.779 13.1502 15.9428 13.1502 19.1066C13.1709 20.4206 13.2153 21.8294 13.973 22.954C14.8105 24.3332 16.8911 24.4841 18.1164 23.5459C19.2262 22.6048 19.3949 21.0421 19.4334 19.6778C19.4334 16.3186 19.4334 12.9595 19.4186 9.61523C20.7563 9.62703 22.0941 9.62703 23.4318 9.61523C23.4318 12.8786 23.4318 16.142 23.4318 19.4055C23.4022 21.5423 22.9908 23.8182 21.4903 25.4341C19.8537 27.1063 17.3469 27.5059 15.1065 27.2987C13.4106 27.1862 11.7059 26.4286 10.6671 25.0346C9.6283 23.6406 9.27315 21.9478 9.21692 20.2815C9.20212 16.73 9.22875 13.1726 9.20508 9.61523Z" fill="#F57F29"/>
</svg>
