<svg width="184" height="37" viewBox="0 0 184 37" fill="none" xmlns="http://www.w3.org/2000/svg">
<path d="M68.3581 7.74609H60.3619L57.5352 28.715H63.2518L63.5393 24.8993H65.4682L65.7488 28.7009H71.5249L68.3581 7.74609ZM65.4472 21.0731H63.5393L64.367 12.4035C64.367 12.4035 65.5208 21.0239 65.4472 21.0731Z" fill="#383838"/>
<path d="M127.913 24.8753C128.017 25.6155 128.314 26.3156 128.772 26.9058C129.343 27.6176 130.098 28.1606 130.954 28.477C132.025 28.8983 133.169 29.1033 134.32 29.0803C135.342 29.097 136.358 28.9221 137.316 28.5647C138.114 28.2609 138.816 27.7471 139.346 27.0777C139.872 26.4184 140.177 25.1734 140.283 24.5491C140.423 23.5632 140.478 22.567 140.447 21.5716V7.72559H134.906V23.3146C134.946 23.957 134.894 24.6018 134.752 25.2295C134.701 25.3608 134.608 25.4716 134.488 25.5446C134.367 25.6175 134.226 25.6485 134.085 25.6328C133.959 25.6468 133.83 25.6204 133.718 25.5575C133.607 25.4946 133.518 25.3983 133.465 25.2821C133.337 24.7247 133.289 24.1521 133.321 23.5811V7.7326H127.78V20.0075C127.78 22.3046 127.822 24.1633 127.906 24.8683" fill="#383838"/>
<path d="M183.301 7.72168H177.767V28.7046H183.301V7.72168Z" fill="#383838"/>
<path d="M166.708 19.7584H168.368V28.7015H173.898V7.72559H168.368V15.1957H166.708V7.72559H161.174V28.7015H166.708V19.7584Z" fill="#383838"/>
<path d="M146.918 28.2517C148.167 28.8497 149.543 29.1349 150.926 29.0829C152.306 29.1266 153.67 28.788 154.869 28.1044C155.792 27.6031 156.518 26.8031 156.927 25.8353C157.24 24.976 157.393 22.8999 157.393 20.8412V20.0205H151.852V23.1769C151.893 23.8769 151.829 24.579 151.663 25.2602C151.574 25.3962 151.452 25.5078 151.309 25.5852C151.166 25.6624 151.005 25.7028 150.843 25.7028C150.679 25.7028 150.52 25.6624 150.376 25.5852C150.233 25.5078 150.111 25.3962 150.022 25.2602C149.896 24.9691 149.857 24.3377 149.857 23.3698V13.5254C149.857 12.5153 149.896 11.5088 150.022 11.2002C150.148 10.8916 150.407 10.7584 150.86 10.7584C151.312 10.7584 151.561 10.8775 151.67 11.1091C151.779 11.3405 151.852 12.34 151.852 13.3395V16.808H157.383V14.9248C157.383 13.0625 157.212 11.351 156.882 10.4742C156.477 9.51073 155.737 8.7268 154.798 8.26827C153.583 7.64115 152.226 7.34025 150.86 7.39501C149.739 7.37275 148.623 7.56439 147.574 7.95965C146.721 8.28186 145.969 8.82538 145.396 9.53434C144.908 10.1298 144.586 10.8437 144.464 11.6036C144.334 12.789 144.279 13.9814 144.298 15.1737V20.9745C144.298 22.928 144.478 24.9901 144.82 25.9651C145.195 26.9737 145.952 27.7948 146.925 28.2517" fill="#383838"/>
<path d="M79.2001 28.691L79.1966 14.8871L81.1571 28.6875H84.4959L86.579 14.9397V28.6875H91.4469L91.4189 7.72559H84.2538L82.8896 17.4964L81.5254 7.72559H74.3603L74.3639 28.6875L79.2001 28.691Z" fill="#383838"/>
<path d="M47.5687 28.7075H52.6821V21.0762L56.7292 7.74219H51.6405L50.2236 15.9804L48.7576 7.74219H43.6793L47.5687 21.0762V28.7075Z" fill="#383838"/>
<path d="M100.4 24.892H102.328L102.605 28.6937H108.381L105.225 7.73535H97.222L94.3953 28.7043H100.112L100.4 24.892ZM101.224 12.4068C101.224 12.4068 102.378 21.0308 102.307 21.0728H100.4L101.224 12.4068Z" fill="#383838"/>
<path d="M111.938 26.7969C112.38 27.488 112.991 28.0533 113.716 28.4382C114.518 28.8592 115.412 29.0748 116.318 29.0659C117.1 29.0659 117.928 28.9502 118.458 28.568C119.088 28.1716 119.592 27.605 119.913 26.9337L120.421 28.6872H123.928V17.5838H117.528V20.3719H118.51V23.2442C118.551 23.8813 118.477 24.5207 118.289 25.131C118.221 25.288 118.103 25.4191 117.955 25.5054C117.807 25.5918 117.636 25.6289 117.465 25.6115C117.311 25.628 117.156 25.596 117.022 25.5199C116.887 25.4438 116.779 25.3275 116.715 25.1871C116.563 24.6071 116.503 24.0074 116.535 23.409V13.1648C116.535 12.1407 116.602 11.4955 116.715 11.2535C116.802 11.1264 116.922 11.0251 117.062 10.9597C117.202 10.8943 117.357 10.8674 117.51 10.8818C117.907 10.8818 118.212 10.9624 118.338 11.2535C118.454 11.6882 118.512 12.1364 118.51 12.5862C118.51 12.8176 118.51 13.1789 118.51 13.4629V15.1498H123.932V14.6939C123.932 13.0526 123.757 11.5375 123.427 10.6572C123.097 9.77699 122.399 9.04752 121.323 8.40922C120.085 7.7167 118.686 7.36682 117.269 7.39568C115.83 7.36018 114.415 7.77054 113.218 8.57055C112.165 9.29301 111.537 10.0927 111.32 10.9589C111.052 12.4265 110.935 13.9178 110.969 15.4093V21.4836C110.947 22.5966 111.001 23.7098 111.131 24.8154C111.242 25.5273 111.513 26.2049 111.923 26.7969" fill="#383838"/>
<path d="M17.8496 33.7803C26.2232 33.7803 33.0113 26.9922 33.0113 18.6187C33.0113 10.2451 26.2232 3.45703 17.8496 3.45703C9.4761 3.45703 2.68799 10.2451 2.68799 18.6187C2.68799 26.9922 9.4761 33.7803 17.8496 33.7803Z" fill="white"/>
<path d="M17.8465 0.78125C21.3745 0.780558 24.8235 1.8261 27.7573 3.78567C30.691 5.74522 32.9779 8.53077 34.3285 11.79C35.6792 15.0493 36.0328 18.6359 35.345 22.0962C34.6572 25.5565 32.9586 28.7351 30.4641 31.23C27.9697 33.725 24.7914 35.4242 21.3311 36.1127C17.8709 36.8012 14.2843 36.4482 11.0246 35.0983C7.76512 33.7483 4.97909 31.462 3.01894 28.5287C1.0588 25.5952 0.0125609 22.1465 0.0125608 18.6185C0.0125608 13.8884 1.89137 9.35191 5.23576 6.00689C8.58017 2.66187 13.1163 0.782179 17.8465 0.78125ZM26.6566 13.3031C27.0508 12.9088 27.2723 12.3741 27.2723 11.8166C27.2723 11.2591 27.0508 10.7244 26.6566 10.3302C26.2623 9.93592 25.7277 9.71445 25.1702 9.71445C24.6126 9.71445 24.0779 9.93592 23.6837 10.3302L18.144 15.8697H17.7169L12.1773 10.3302C11.783 9.93545 11.2482 9.71353 10.6903 9.71322C10.1325 9.71289 9.59732 9.93417 9.20262 10.3284C8.80793 10.7226 8.58601 11.2575 8.58568 11.8154C8.58535 12.3732 8.80664 12.9083 9.20087 13.3031L15.7839 19.879V29.2914C15.8062 29.8388 16.0393 30.3564 16.4345 30.7358C16.8297 31.1153 17.3563 31.3272 17.9042 31.3272C18.4521 31.3272 18.9787 31.1153 19.3739 30.7358C19.7691 30.3564 20.0022 29.8388 20.0245 29.2914V19.9316L26.6566 13.3031Z" fill="#E03638"/>
</svg>
