<svg width="93" height="44" viewBox="0 0 93 44" fill="none" xmlns="http://www.w3.org/2000/svg">
<path d="M55.0721 8.79297C51.777 8.79385 48.7735 10.0386 46.5098 12.083C44.2444 10.0412 41.2427 8.7956 37.9511 8.7956C37.9238 8.7956 37.8956 8.7956 37.8692 8.7956C30.8598 8.84125 25.1839 14.5242 25.1839 21.5195C25.1839 28.5429 30.9038 34.2426 37.9502 34.2426C41.2418 34.2426 44.2435 32.9987 46.5081 30.9552C46.0351 30.5294 45.607 30.0581 45.2027 29.5647H47.839C47.4417 30.0502 47.0084 30.5049 46.5424 30.928H46.5407C46.5301 30.9394 46.5186 30.9464 46.5081 30.9561C48.7744 33.0014 51.7797 34.2479 55.0765 34.247C62.1273 34.2444 67.8411 28.5456 67.8393 21.5195C67.8393 21.5169 67.8393 21.5152 67.8393 21.5134C67.8402 14.4874 62.1229 8.79121 55.0721 8.79297ZM45.3489 13.3971H47.7756C48.1332 13.829 48.4652 14.2837 48.7665 14.7595H44.4373C44.7165 14.3048 45.0231 13.8369 45.3489 13.3971ZM43.6834 16.0955H49.5028C49.7098 16.5362 49.893 16.9918 50.0533 17.4588H42.9937C43.0641 17.3271 43.3108 16.7969 43.6834 16.0955ZM30.3956 24.7604L31.1698 19.8956L29.4232 24.7604H28.4869L28.3654 19.8956L27.5383 24.7604H26.2268L27.3137 18.3085H29.2972L29.3668 22.2674L30.7065 18.3085H32.8583L31.7864 24.7604H30.3956ZM35.033 24.7499L35.0779 24.2346C35.0568 24.2373 34.6428 24.857 33.6836 24.857C33.1816 24.857 32.3712 24.584 32.3712 23.3972C32.3712 21.8882 33.6061 21.3879 34.782 21.3879C34.967 21.3879 35.366 21.4212 35.366 21.4212C35.366 21.4212 35.4109 21.3291 35.4109 21.0798C35.4109 20.6698 35.0409 20.6136 34.5345 20.6136C33.6422 20.6136 33.053 20.8515 33.053 20.8515L33.2503 19.684C33.2503 19.684 33.9655 19.3856 34.8965 19.3856C35.3783 19.3856 36.7638 19.4365 36.7638 21.0192L36.23 24.7499H35.033ZM40.0914 23.1066C40.0914 24.907 38.3413 24.8298 38.0357 24.8298C36.895 24.8298 36.5427 24.6727 36.5101 24.6639L36.6916 23.4788C36.6933 23.4683 37.2641 23.6851 37.8991 23.6851C38.2655 23.6851 38.7412 23.6491 38.7412 23.2128C38.7412 22.5598 37.0395 22.716 37.0395 21.1649C37.0395 19.7964 38.0594 19.3961 39.0653 19.3961C39.8422 19.3961 40.3196 19.5023 40.3196 19.5023L40.1478 20.6979C40.1478 20.6979 39.4106 20.6373 39.2195 20.6373C38.7359 20.6373 38.4725 20.7427 38.4725 21.0798C38.4717 21.7574 40.0914 21.4256 40.0914 23.1066ZM42.193 23.5789C42.3137 23.5789 42.4502 23.5376 42.5436 23.5376L42.3736 24.6885C42.2371 24.7262 41.8504 24.8631 41.3545 24.8667C40.7212 24.8719 40.2711 24.519 40.2711 23.7185C40.2711 23.1812 41.0436 18.7544 41.0735 18.7255H42.4326L42.2943 19.5172H42.9725L42.799 20.7927H42.0794L41.6971 23.1426C41.6681 23.3296 41.72 23.5789 42.193 23.5789ZM45.1825 19.368C46.6746 19.368 47.1211 20.4565 47.1211 21.3492C47.1211 21.7065 46.9414 22.5843 46.9414 22.5843H44.1792C44.1792 22.5843 43.9238 23.6684 45.3833 23.6684C46.0677 23.6684 46.8269 23.3349 46.8269 23.3349L46.5874 24.6402C46.5874 24.6402 46.1487 24.8631 45.1516 24.8631C44.0709 24.8631 42.8034 24.4076 42.8034 22.4939C42.8043 20.8357 43.8155 19.368 45.1825 19.368ZM48.7823 28.2541H44.2532C43.9775 27.8152 43.7203 27.3649 43.4993 26.8918H49.5266C49.3046 27.3623 49.0562 27.817 48.7823 28.2541ZM48.4784 24.7701H47.0832L47.9315 19.519H49.1972L49.0756 20.2801C49.0756 20.2801 49.5266 19.4523 50.1352 19.4523C50.3123 19.4523 50.3977 19.4698 50.3977 19.4698C50.2171 19.8368 50.0577 20.173 49.8921 21.0411C48.9479 20.7076 48.8757 22.5273 48.4784 24.7701ZM53.7941 24.6885C53.7941 24.6885 53.063 24.8746 52.605 24.8746C50.9825 24.8746 50.159 23.7589 50.159 22.0691C50.159 19.5208 51.6854 18.1637 53.2541 18.1637C53.9632 18.1637 54.785 18.4955 54.785 18.4955L54.563 19.9307C54.563 19.9307 54.0072 19.5436 53.3158 19.5436C52.3909 19.5436 51.5612 20.4232 51.5612 22.0217C51.5612 22.8091 51.9479 23.5429 52.9133 23.5429C53.3722 23.5429 54.0372 23.2102 54.0372 23.2102L53.7941 24.6885ZM57.0662 24.7525L57.112 24.2337C57.09 24.2364 56.676 24.8561 55.7177 24.8561C55.2157 24.8561 54.4053 24.5831 54.4053 23.3963C54.4053 21.8873 55.6402 21.387 56.8152 21.387C57.0002 21.387 57.4001 21.4204 57.4001 21.4204C57.4001 21.4204 57.4459 21.3291 57.4459 21.0798C57.4459 20.6698 57.0759 20.6136 56.5686 20.6136C55.6763 20.6136 55.088 20.8515 55.088 20.8515L55.2853 19.684C55.2853 19.684 56.0005 19.3856 56.9324 19.3856C57.4133 19.3856 58.7997 19.4365 58.7988 21.0192L58.265 24.7499C58.2641 24.7525 57.0662 24.7525 57.0662 24.7525ZM59.891 24.7701H58.4958L59.344 19.519H60.6106L60.489 20.2801C60.489 20.2801 60.9409 19.4523 61.5495 19.4523C61.7266 19.4523 61.8111 19.4698 61.8111 19.4698C61.6314 19.8368 61.4702 20.173 61.3055 21.0411C60.3604 20.7076 60.2882 22.5273 59.891 24.7701ZM64.0563 24.756L64.1153 24.2724C64.1153 24.2724 63.6643 24.8394 62.8487 24.8394C61.7186 24.8394 61.1646 23.7518 61.1646 22.6405C61.1646 20.9218 62.2022 19.4233 63.4476 19.4233C64.2492 19.4251 64.7609 20.13 64.7609 20.13L65.0551 18.3173L66.4177 18.3146L65.3783 24.756H64.0563ZM66.7445 24.5743C66.7084 24.6393 66.6573 24.6893 66.5921 24.728C66.5278 24.764 66.4591 24.7824 66.3869 24.7824C66.3164 24.7824 66.2486 24.764 66.1834 24.728C66.1182 24.6893 66.0671 24.6393 66.031 24.5743C65.994 24.5085 65.9764 24.4418 65.9764 24.3707C65.9764 24.2987 65.9949 24.2302 66.031 24.1653C66.0671 24.1003 66.1209 24.0477 66.1852 24.0125C66.2521 23.9766 66.3182 23.9581 66.3869 23.9581C66.4573 23.9581 66.5243 23.9766 66.5895 24.0125C66.6564 24.0485 66.7075 24.0986 66.7445 24.1653C66.7823 24.2311 66.7991 24.2996 66.7991 24.3707C66.7991 24.4418 66.7815 24.5094 66.7445 24.5743Z" fill="white"/>
<path d="M66.6339 28.455C66.625 28.4488 66.6171 28.4391 66.6029 28.4338C66.5887 28.4284 66.5666 28.4258 66.532 28.4258H66.4487V28.5587H66.5373C66.579 28.5587 66.6064 28.5551 66.6224 28.5401C66.6374 28.5277 66.6445 28.5126 66.6445 28.4913C66.6445 28.4772 66.641 28.4674 66.6339 28.455Z" fill="white"/>
<path d="M66.92 28.3758C66.8821 28.3071 66.8301 28.2587 66.7641 28.2226C66.698 28.1865 66.6311 28.168 66.5624 28.168C66.4919 28.168 66.425 28.1865 66.3598 28.2226C66.2946 28.2587 66.2409 28.3089 66.2048 28.3758C66.1669 28.441 66.1501 28.5097 66.1501 28.5802C66.1501 28.6506 66.1686 28.7202 66.2048 28.7845C66.2426 28.8497 66.2937 28.9026 66.358 28.9387C66.4232 28.9748 66.4919 28.9933 66.5641 28.9933C66.6346 28.9933 66.7033 28.9748 66.7676 28.9387C66.8319 28.9026 66.8839 28.8497 66.92 28.7845C66.957 28.7202 66.9746 28.6515 66.9746 28.5802C66.9746 28.5088 66.9561 28.4401 66.92 28.3758ZM66.6663 28.8092L66.6275 28.7396C66.5967 28.685 66.5712 28.6489 66.5518 28.6348C66.5395 28.626 66.5201 28.6189 66.4954 28.6189H66.454V28.8083H66.3818V28.3635H66.5351C66.5879 28.3635 66.6258 28.3679 66.6469 28.3767C66.6707 28.3855 66.691 28.3979 66.7033 28.4199C66.7174 28.4401 66.7235 28.4622 66.7235 28.4851C66.7235 28.5176 66.7112 28.545 66.6892 28.5705C66.6663 28.5934 66.6346 28.6084 66.5967 28.611C66.6126 28.6163 66.6249 28.6251 66.6346 28.6348C66.6531 28.6524 66.6742 28.6815 66.7006 28.722L66.7553 28.8092H66.6663Z" fill="white"/>
<path d="M34.8924 22.3945C33.8962 22.3945 33.6945 22.842 33.6945 23.2146C33.6945 23.4066 33.8046 23.7272 34.2265 23.7272C35.0448 23.7272 35.2148 22.6544 35.1884 22.4262C35.1496 22.4183 35.1249 22.3954 34.8924 22.3945Z" fill="white"/>
<path d="M45.1872 20.5801C44.4464 20.5801 44.3037 21.423 44.3037 21.512H45.8125C45.8125 21.4441 45.9543 20.5801 45.1872 20.5801Z" fill="white"/>
<path d="M63.681 20.7266C63.0829 20.7266 62.6099 21.4206 62.6108 22.475C62.6108 23.1179 62.8398 23.5301 63.3295 23.5301C64.0659 23.5301 64.4208 22.5692 64.4208 21.8531C64.4208 21.063 64.1698 20.7266 63.681 20.7266Z" fill="white"/>
<path d="M66.6814 24.2028C66.6505 24.1482 66.6074 24.1059 66.5528 24.0751C66.4982 24.0443 66.4427 24.0293 66.3845 24.0293C66.3282 24.0293 66.2709 24.0452 66.2163 24.0751C66.1617 24.1033 66.1185 24.1473 66.0877 24.2028C66.0569 24.2583 66.041 24.3173 66.041 24.3746C66.041 24.4336 66.0569 24.4917 66.0859 24.5454C66.1185 24.6001 66.1599 24.6415 66.2145 24.674C66.2691 24.704 66.3255 24.7216 66.3845 24.7216C66.4435 24.7216 66.5017 24.704 66.5545 24.674C66.6091 24.6432 66.6514 24.6009 66.6831 24.5454C66.7139 24.4908 66.728 24.4336 66.728 24.3746C66.728 24.3164 66.7122 24.2583 66.6814 24.2028ZM66.4902 24.6009L66.4506 24.5322C66.4198 24.4767 66.3951 24.4415 66.3766 24.4283C66.3616 24.4169 66.344 24.4116 66.3185 24.4116H66.278V24.6001H66.204V24.1561H66.3581C66.4101 24.1561 66.4488 24.1605 66.4708 24.1702C66.4929 24.1782 66.5122 24.1931 66.5272 24.2125C66.5422 24.2319 66.5475 24.2539 66.5475 24.2777C66.5475 24.3103 66.5351 24.3376 66.5122 24.3622C66.4893 24.3878 66.4576 24.3984 66.4206 24.4028C66.4383 24.4098 66.4497 24.4177 66.4585 24.4257C66.477 24.4442 66.4982 24.4706 66.5237 24.5129L66.5783 24.6009H66.4902Z" fill="white"/>
<path d="M56.9254 22.3945C55.9292 22.3945 55.7275 22.842 55.7275 23.2146C55.7275 23.4066 55.8368 23.7272 56.2595 23.7272C57.0778 23.7272 57.2469 22.6544 57.2214 22.4262C57.1817 22.4183 57.1571 22.3954 56.9254 22.3945Z" fill="white"/>
<path d="M66.4599 24.238C66.4528 24.2292 66.4431 24.2221 66.4298 24.2159C66.4147 24.2115 66.3926 24.207 66.3571 24.207V24.2079H66.2765V24.3426H66.3642C66.4058 24.3426 66.4333 24.3373 66.4501 24.324C66.4634 24.3107 66.4714 24.2939 66.4714 24.2744C66.4714 24.2593 66.4679 24.2504 66.4599 24.238Z" fill="white"/>
</svg>
