<svg width="81" height="21" viewBox="0 0 81 21" fill="none" xmlns="http://www.w3.org/2000/svg">
<g clip-path="url(#clip0_15_1937)">
<path fill-rule="evenodd" clip-rule="evenodd" d="M0.88855 0.322347H8.18463C8.76092 0.320131 9.32898 0.448243 9.8388 0.695373C10.3486 0.942504 10.7846 1.30109 11.1083 1.7396C11.6167 2.53202 11.9815 3.39524 12.1883 4.29544C13.0707 7.02089 13.9399 9.75846 14.8222 12.4839C14.8222 12.7383 15.2305 12.823 15.3095 12.5687C16.2182 9.80688 17.0875 7.04512 17.9435 4.29544C18.1678 3.28538 18.6161 2.32871 19.2605 1.48519C19.7302 0.972046 20.36 0.604148 21.0647 0.43136C21.6672 0.322349 22.2826 0.285709 22.8954 0.322347C25.0289 0.322347 27.1756 0.322347 29.3091 0.322347C29.3091 7.17836 29.3091 14.0344 29.3091 20.9146C26.9912 20.9146 24.6864 20.9146 22.3817 20.9146C22.3817 16.8931 22.3817 12.8836 22.3817 8.86207C22.3817 8.49867 21.7232 8.53501 21.6837 8.86207C20.3053 12.8998 18.9312 16.9173 17.5616 20.9146C15.9285 20.9146 14.2955 20.9146 12.6624 20.9146C11.3454 16.9052 9.93623 12.8836 8.54022 8.87419C8.54022 8.53503 8.05295 8.53503 7.82906 8.72884V20.9146C5.52434 20.9146 3.21962 20.9146 0.914895 20.9146V0.322347H0.88855ZM32.4962 0.322347C34.8141 0.322347 37.1188 0.322347 39.4235 0.322347C39.4235 4.39235 39.4235 8.46233 39.4235 12.5323C39.621 12.6898 39.9898 12.7383 40.1083 12.5323C41.636 9.57674 43.1681 6.61307 44.7046 3.64132C45.1055 2.68102 45.6701 1.78555 46.3772 0.988552C46.7137 0.638442 47.1871 0.425067 47.6942 0.395022C50.0384 0.395022 52.3958 0.395022 54.74 0.395022C54.74 7.25104 54.74 14.1151 54.74 20.9873H47.8259C47.8259 16.9496 47.8259 12.8917 47.8259 8.81364C47.8259 8.46236 47.1805 8.48659 47.1147 8.81364C45.666 11.745 44.2305 14.6885 42.7818 17.6199C42.3833 18.5354 41.8707 19.4053 41.2541 20.2121C41.084 20.4477 40.8558 20.6429 40.588 20.7818C40.3202 20.9208 40.0204 20.9995 39.7132 21.0115H32.5093C32.5093 14.1636 32.5093 7.29948 32.5093 0.419235L32.4962 0.322347ZM58.1247 9.71C65.3813 9.71 72.6115 9.71 79.8812 9.71C79.581 10.6256 79.038 11.4581 78.3009 12.1326C77.6281 12.8068 76.8153 13.3502 75.9106 13.7309C75.0059 14.1116 74.0274 14.3219 73.033 14.3493H65.1311C65.1311 16.5418 65.1311 18.7343 65.1311 20.9267H58.0983C58.0852 17.1111 58.1115 13.3924 58.0852 9.66154L58.1247 9.71Z" fill="white"/>
<path fill-rule="evenodd" clip-rule="evenodd" d="M57.2157 0.322266H73.5068C74.9473 0.42446 76.3224 0.917727 77.4577 1.73951C78.2738 2.32424 78.9524 3.05509 79.4527 3.88788C79.953 4.72067 80.2644 5.63811 80.3683 6.58475C80.4143 7.26787 80.3879 7.95345 80.2892 8.63183C76.9704 8.63183 73.7043 8.63183 70.3328 8.63183C69.1942 8.66454 68.0544 8.62409 66.9219 8.51073C64.3305 8.25917 61.9077 7.20899 60.0472 5.53088C58.5247 4.11612 57.5327 2.29141 57.2157 0.322266Z" fill="white"/>
</g>
<defs>
<clipPath id="clip0_15_1937">
<rect width="79.4273" height="20.5923" fill="white" transform="translate(0.887939 0.25)"/>
</clipPath>
</defs>
</svg>
