<svg width="72" height="22" viewBox="0 0 72 22" fill="none" xmlns="http://www.w3.org/2000/svg">
<path d="M28.9968 0.429688L25.4211 21.3421H31.1398L34.7185 0.429688H28.9968Z" fill="white"/>
<path d="M20.628 0.453617L15.0269 14.7153L14.4297 12.5619C13.3251 9.96726 10.1892 6.24096 6.50757 3.8926L11.6292 21.3323L17.6803 21.3221L26.6865 0.449219L20.628 0.453617Z" fill="white"/>
<path d="M12.2568 1.94897C11.9244 0.675109 10.961 0.295443 9.76518 0.25H0.898739L0.825195 0.666314C7.72508 2.3345 12.2907 6.35398 14.1852 11.187L12.2568 1.94897Z" fill="white"/>
<path d="M46.3091 4.43867C48.18 4.40935 49.5362 4.81687 50.5893 5.23905L51.1056 5.48092L51.8793 0.948381C50.7467 0.524738 48.9714 0.0703125 46.7562 0.0703125C41.1051 0.0703125 37.122 2.90681 37.0911 6.97173C37.0543 9.97534 39.9284 11.6523 42.0994 12.6535C44.3278 13.6797 45.075 14.332 45.0647 15.2482C45.0471 16.6481 43.2879 17.2901 41.6449 17.2901C39.3548 17.2901 38.1384 16.975 36.26 16.1951L35.5231 15.8609L34.7186 20.5415C36.0571 21.1264 38.5267 21.6292 41.0904 21.6556C47.1019 21.6556 51.0085 18.8528 51.0497 14.5093C51.0747 12.1331 49.5494 10.3198 46.2444 8.83195C44.244 7.86153 43.0202 7.21654 43.032 6.23732C43.032 5.36805 44.0704 4.43867 46.3091 4.43867Z" fill="white"/>
<path d="M66.5558 0.455078H62.1373C60.7649 0.455078 59.7441 0.827415 59.1411 2.1907L50.6497 21.3558H56.6553C56.6553 21.3558 57.6349 18.7787 57.857 18.2144C58.5145 18.2144 64.3495 18.2232 65.1805 18.2232C65.3511 18.9532 65.8777 21.3558 65.8777 21.3558H71.1831L66.5558 0.455078ZM59.5029 13.934C59.9736 12.7334 61.7813 8.08945 61.7813 8.08945C61.7504 8.14662 62.2476 6.88009 62.5432 6.0929L62.9286 7.89595C62.9286 7.89595 64.0244 12.8888 64.2539 13.934H59.5029Z" fill="white"/>
</svg>
