<svg width="12" height="17" viewBox="0 0 12 17" fill="none" xmlns="http://www.w3.org/2000/svg">
<path d="M6 0C9.28125 0 12 2.6875 12 6C12 8.25 11.25 8.9375 7.25 15.3125C6.65625 16.25 5.3125 16.25 4.71875 15.3125C0.71875 8.9375 0 8.25 0 6C0 2.71875 2.65625 0 6 0ZM6 14.5C10 8.0625 10.5 7.71875 10.5 6C10.5 3.53125 8.46875 1.5 6 1.5C3.5 1.5 1.5 3.53125 1.5 6C1.5 7.71875 2 8.125 6 14.5ZM3.5 6C3.5 4.625 4.59375 3.5 6 3.5C7.375 3.5 8.5 4.625 8.5 6C8.5 7.40625 7.375 8.5 6 8.5C4.59375 8.5 3.5 7.40625 3.5 6Z" fill="#181818"/>
</svg>
