<svg width="19" height="25" viewBox="0 0 19 25" fill="none" xmlns="http://www.w3.org/2000/svg">
<path d="M9.3691 0.416016C4.3535 0.416016 0.36914 4.49409 0.36914 9.41599C0.36914 12.791 1.4473 13.8223 7.4473 23.3848C8.3379 24.791 10.3535 24.791 11.2441 23.3848C17.2441 13.8223 18.3691 12.791 18.3691 9.41599C18.3691 4.44729 14.291 0.416016 9.3691 0.416016ZM9.3691 22.166C3.3691 12.6035 2.6191 11.9941 2.6191 9.41599C2.6191 5.71289 5.6191 2.66602 9.3691 2.66602C13.0723 2.66602 16.1191 5.71289 16.1191 9.41599C16.1191 11.9941 15.3691 12.5098 9.3691 22.166ZM5.6191 9.41599C5.6191 11.5254 7.2598 13.166 9.3691 13.166C11.4316 13.166 13.1191 11.5254 13.1191 9.41599C13.1191 7.35349 11.4316 5.666 9.3691 5.666C7.2598 5.666 5.6191 7.35349 5.6191 9.41599Z" fill="#333333"/>
</svg>
