<svg width="19" height="20" viewBox="0 0 19 20" fill="none" xmlns="http://www.w3.org/2000/svg">
<path d="M9.21653 17.5666C8.24644 16.6931 7.34725 15.7356 6.52837 14.7039C5.2995 13.1547 3.84021 10.8474 3.84021 8.64871C3.83912 6.3524 5.14915 4.28171 7.15899 3.4029C9.16882 2.52409 11.4823 3.01039 13.0199 4.63487C14.031 5.6974 14.5974 7.14272 14.5929 8.64871C14.5929 10.8474 13.1336 13.1547 11.9047 14.7039C11.0858 15.7356 10.1866 16.6931 9.21653 17.5666ZM9.21653 4.59514C7.09668 4.59782 5.37884 6.4111 5.3763 8.64871C5.3763 9.59401 5.78106 11.2308 7.70732 13.6638C8.18208 14.2621 8.68582 14.8342 9.21653 15.3776C9.74728 14.8348 10.2513 14.2636 10.7265 13.6662C12.652 11.23 13.0568 9.5932 13.0568 8.64871C13.0542 6.4111 11.3364 4.59782 9.21653 4.59514ZM9.21653 11.0809C7.94399 11.0809 6.91239 9.99195 6.91239 8.64871C6.91239 7.30548 7.94399 6.21657 9.21653 6.21657C10.4891 6.21657 11.5207 7.30548 11.5207 8.64871C11.5207 9.29376 11.2779 9.91238 10.8458 10.3685C10.4137 10.8246 9.82762 11.0809 9.21653 11.0809Z" fill="white"/>
</svg>
