<svg width="30" height="32" viewBox="0 0 30 32" fill="none" xmlns="http://www.w3.org/2000/svg">
<path d="M15 27.7061C13.4212 26.2845 11.9577 24.7261 10.625 23.0471C8.625 20.5257 6.25 16.7705 6.25 13.1922C6.24823 9.45492 8.38031 6.08485 11.6513 4.65458C14.9224 3.22431 18.6876 4.01576 21.19 6.65961C22.8356 8.38889 23.7574 10.7412 23.75 13.1922C23.75 16.7705 21.375 20.5257 19.375 23.0471C18.0423 24.7261 16.5788 26.2845 15 27.7061ZM15 6.59496C11.5499 6.59932 8.75413 9.55044 8.75 13.1922C8.75 14.7307 9.40875 17.3946 12.5438 21.3543C13.3164 22.3281 14.1363 23.2591 15 24.1436C15.8638 23.2601 16.6841 22.3305 17.4575 21.3582C20.5913 17.3933 21.25 14.7293 21.25 13.1922C21.2459 9.55044 18.4501 6.59932 15 6.59496ZM15 17.1505C12.9289 17.1505 11.25 15.3783 11.25 13.1922C11.25 11.0061 12.9289 9.23385 15 9.23385C17.0711 9.23385 18.75 11.0061 18.75 13.1922C18.75 14.242 18.3549 15.2488 17.6517 15.9911C16.9484 16.7335 15.9946 17.1505 15 17.1505Z" fill="#383838"/>
</svg>
