<svg width="477" height="80" viewBox="0 0 477 80" fill="none" xmlns="http://www.w3.org/2000/svg">
<path opacity="0.9" d="M127.98 20.8665C127.98 23.7309 127.437 26.1678 126.351 28.1771C125.273 30.1865 123.803 31.7213 121.939 32.7816C120.083 33.8333 117.997 34.3591 115.68 34.3591C113.345 34.3591 111.251 33.829 109.395 32.7687C107.54 31.7085 106.073 30.1737 104.996 28.1643C103.919 26.1549 103.38 23.7223 103.38 20.8665C103.38 18.002 103.919 15.5652 104.996 13.5558C106.073 11.5464 107.54 10.0159 109.395 8.96418C111.251 7.90392 113.345 7.37379 115.68 7.37379C117.997 7.37379 120.083 7.90392 121.939 8.96418C123.803 10.0159 125.273 11.5464 126.351 13.5558C127.437 15.5652 127.98 18.002 127.98 20.8665ZM122.349 20.8665C122.349 19.011 122.071 17.4463 121.515 16.1722C120.968 14.8982 120.194 13.932 119.194 13.2736C118.194 12.6152 117.022 12.286 115.68 12.286C114.337 12.286 113.166 12.6152 112.165 13.2736C111.165 13.932 110.387 14.8982 109.831 16.1722C109.284 17.4463 109.01 19.011 109.01 20.8665C109.01 22.7219 109.284 24.2866 109.831 25.5607C110.387 26.8347 111.165 27.8009 112.165 28.4593C113.166 29.1177 114.337 29.4469 115.68 29.4469C117.022 29.4469 118.194 29.1177 119.194 28.4593C120.194 27.8009 120.968 26.8347 121.515 25.5607C122.071 24.2866 122.349 22.7219 122.349 20.8665ZM142.482 10.5546H148.356C150.46 10.5546 152.324 10.9992 153.948 11.8884C155.582 12.7777 156.86 14.0303 157.783 15.6464C158.715 17.2539 159.181 19.1435 159.181 21.3154C159.181 23.4188 158.715 25.2529 157.783 26.8176C156.86 28.3823 155.582 29.6008 153.948 30.4729C152.324 31.3365 150.46 31.7683 148.356 31.7683H142.482C140.37 31.7683 138.498 31.3408 136.865 30.4858C135.231 29.6222 133.949 28.408 133.017 26.8432C132.093 25.2785 131.632 23.4316 131.632 21.3025C131.632 19.1307 132.098 17.241 133.03 15.6336C133.97 14.0175 135.257 12.7691 136.89 11.8884C138.523 10.9992 140.387 10.5546 142.482 10.5546ZM142.482 15.1975C141.354 15.1975 140.357 15.4241 139.494 15.8772C138.639 16.3219 137.972 16.9974 137.493 17.9037C137.014 18.8101 136.775 19.943 136.775 21.3025C136.775 22.6022 137.019 23.6838 137.506 24.5474C138.002 25.411 138.677 26.0566 139.532 26.4841C140.387 26.9116 141.371 27.1254 142.482 27.1254H148.395C149.515 27.1254 150.494 26.9074 151.332 26.4713C152.179 26.0352 152.833 25.3854 153.294 24.5218C153.765 23.6582 154 22.5894 154 21.3154C154 19.9558 153.765 18.8229 153.294 17.9165C152.833 17.0102 152.179 16.3304 151.332 15.8772C150.494 15.4241 149.515 15.1975 148.395 15.1975H142.482ZM148.049 7.27118V35.0774H142.777V7.27118H148.049ZM163.273 7.73291H168.814V24.2524H169.032L180.382 7.73291H185.243V34H179.69V17.4676H179.497L168.082 34H163.273V7.73291ZM215.137 29.5623L214.816 40.2077H209.532V34H207.685V29.5623H215.137ZM189.832 34V7.73291H195.167V29.5366H206.095V7.73291H211.494V34H189.832ZM218.507 7.73291H224.047V24.2524H224.266L235.616 7.73291H240.477V34H234.924V17.4676H234.731L223.316 34H218.507V7.73291ZM249.593 34H243.642L252.71 7.73291H259.867L268.922 34H262.97L256.391 13.7354H256.186L249.593 34ZM249.221 23.6753H263.278V28.0104H249.221V23.6753ZM270.659 34V29.5366L271.403 29.4725C272.361 29.3956 273.135 29.0322 273.725 28.3823C274.315 27.7239 274.755 26.6765 275.046 25.24C275.345 23.795 275.537 21.854 275.623 19.4171L276.059 7.73291H293.887V34H288.487V12.1834H281.215L280.805 21.3282C280.668 24.2695 280.317 26.6722 279.753 28.5362C279.197 30.4002 278.308 31.7769 277.085 32.6661C275.871 33.5554 274.208 34 272.096 34H270.659ZM302.121 17.442H308.38C310.466 17.442 312.262 17.7797 313.767 18.4552C315.28 19.1222 316.447 20.067 317.268 21.2897C318.089 22.5124 318.495 23.9532 318.487 25.612C318.495 27.2622 318.089 28.7201 317.268 29.9855C316.447 31.2425 315.28 32.2258 313.767 32.9355C312.262 33.6452 310.466 34 308.38 34H298.568V7.73291H304.109V29.5366H308.38C309.38 29.5366 310.222 29.3571 310.907 28.998C311.591 28.6303 312.108 28.1472 312.458 27.5487C312.818 26.9416 312.993 26.2789 312.984 25.5607C312.993 24.5175 312.6 23.6368 311.804 22.9186C311.018 22.1918 309.876 21.8284 308.38 21.8284H302.121V17.442ZM322.908 34V7.73291H328.462V18.5706H339.736V7.73291H345.276V34H339.736V23.1494H328.462V34H322.908ZM353.51 17.442H359.769C361.856 17.442 363.651 17.7797 365.156 18.4552C366.67 19.1222 367.837 20.067 368.658 21.2897C369.478 22.5124 369.885 23.9532 369.876 25.612C369.885 27.2622 369.478 28.7201 368.658 29.9855C367.837 31.2425 366.67 32.2258 365.156 32.9355C363.651 33.6452 361.856 34 359.769 34H349.958V7.73291H355.498V29.5366H359.769C360.77 29.5366 361.612 29.3571 362.296 28.998C362.98 28.6303 363.497 28.1472 363.848 27.5487C364.207 26.9416 364.382 26.2789 364.374 25.5607C364.382 24.5175 363.989 23.6368 363.194 22.9186C362.407 22.1918 361.266 21.8284 359.769 21.8284H353.51V17.442ZM377.559 7.73291V34H372.018V7.73291H377.559ZM382.128 7.73291H387.669V24.2524H387.887L399.237 7.73291H404.098V34H398.545V17.4676H398.352L386.937 34H382.128V7.73291ZM395.672 0.858318H399.481C399.472 2.41451 398.895 3.66715 397.75 4.61626C396.612 5.56536 395.073 6.03991 393.132 6.03991C391.183 6.03991 389.639 5.56536 388.502 4.61626C387.365 3.66715 386.796 2.41451 386.796 0.858318H390.58C390.571 1.4483 390.76 1.97843 391.144 2.44871C391.538 2.91899 392.2 3.15412 393.132 3.15412C394.039 3.15412 394.688 2.92326 395.082 2.46154C395.475 1.99981 395.672 1.4654 395.672 0.858318ZM127.018 54.929H121.4C121.297 54.2022 121.088 53.5566 120.772 52.9923C120.455 52.4194 120.049 51.932 119.553 51.5301C119.057 51.1283 118.484 50.8204 117.834 50.6067C117.193 50.3929 116.496 50.286 115.744 50.286C114.384 50.286 113.2 50.6238 112.191 51.2993C111.182 51.9662 110.4 52.941 109.844 54.2235C109.288 55.4976 109.01 57.0452 109.01 58.8665C109.01 60.739 109.288 62.3123 109.844 63.5863C110.408 64.8603 111.195 65.8223 112.204 66.4721C113.213 67.1219 114.38 67.4469 115.705 67.4469C116.449 67.4469 117.138 67.3485 117.77 67.1519C118.412 66.9552 118.98 66.6688 119.476 66.2926C119.972 65.9078 120.382 65.4418 120.707 64.8945C121.041 64.3473 121.272 63.7231 121.4 63.022L127.018 63.0476C126.872 64.2533 126.509 65.4161 125.927 66.5362C125.355 67.6478 124.581 68.6439 123.606 69.5246C122.64 70.3968 121.485 71.0894 120.143 71.6024C118.809 72.1069 117.3 72.3591 115.616 72.3591C113.273 72.3591 111.178 71.829 109.331 70.7687C107.493 69.7085 106.039 68.1737 104.97 66.1643C103.91 64.1549 103.38 61.7223 103.38 58.8665C103.38 56.002 103.919 53.5652 104.996 51.5558C106.073 49.5464 107.535 48.0159 109.382 46.9642C111.229 45.9039 113.307 45.3738 115.616 45.3738C117.138 45.3738 118.548 45.5876 119.848 46.0151C121.156 46.4426 122.315 47.0668 123.324 47.8876C124.333 48.6999 125.154 49.6961 125.786 50.876C126.428 52.056 126.838 53.407 127.018 54.929ZM131 72V45.7329H148.7V50.3117H136.554V56.5706H147.789V61.1494H136.554V67.4212H148.751V72H131ZM153.115 72V45.7329H163.478C165.47 45.7329 167.168 46.1134 168.57 46.8744C169.972 47.6268 171.041 48.6743 171.776 50.0167C172.52 51.3506 172.892 52.8897 172.892 54.634C172.892 56.3783 172.516 57.9174 171.763 59.2512C171.011 60.5851 169.921 61.624 168.493 62.3679C167.073 63.1118 165.355 63.4837 163.337 63.4837H156.732V59.0332H162.439C163.508 59.0332 164.389 58.8494 165.081 58.4817C165.782 58.1055 166.304 57.5882 166.646 56.9298C166.997 56.2628 167.172 55.4976 167.172 54.634C167.172 53.7618 166.997 53.0008 166.646 52.351C166.304 51.6926 165.782 51.1838 165.081 50.8247C164.38 50.4571 163.491 50.2732 162.413 50.2732H158.668V72H153.115ZM176.499 72V45.7329H187.016C188.949 45.7329 190.561 46.0194 191.852 46.5922C193.143 47.1651 194.113 47.9603 194.763 48.9778C195.413 49.9868 195.738 51.1496 195.738 52.4664C195.738 53.4925 195.533 54.3946 195.122 55.1726C194.712 55.9422 194.148 56.5749 193.429 57.0709C192.72 57.5582 191.907 57.9045 190.992 58.1097V58.3663C191.993 58.409 192.929 58.6912 193.801 59.2127C194.682 59.7343 195.396 60.4654 195.943 61.4059C196.49 62.338 196.764 63.4495 196.764 64.7406C196.764 66.1344 196.418 67.3785 195.725 68.4729C195.041 69.5588 194.028 70.4182 192.685 71.0509C191.343 71.6836 189.688 72 187.722 72H176.499ZM182.053 67.4597H186.58C188.128 67.4597 189.257 67.1647 189.966 66.5747C190.676 65.9762 191.031 65.181 191.031 64.1891C191.031 63.4623 190.856 62.8211 190.505 62.2653C190.154 61.7095 189.654 61.2734 189.004 60.957C188.363 60.6407 187.598 60.4825 186.709 60.4825H182.053V67.4597ZM182.053 56.7246H186.17C186.931 56.7246 187.606 56.592 188.196 56.327C188.795 56.0533 189.265 55.6686 189.607 55.1726C189.958 54.6767 190.133 54.0825 190.133 53.3899C190.133 52.4408 189.795 51.6755 189.12 51.0941C188.453 50.5126 187.504 50.2219 186.273 50.2219H182.053V56.7246ZM200.378 45.7329H205.918V62.2524H206.136L217.487 45.7329H222.348V72H216.795V55.4676H216.602L205.187 72H200.378V45.7329ZM250.113 54.929H244.495C244.392 54.2022 244.183 53.5566 243.866 52.9923C243.55 52.4194 243.144 51.932 242.648 51.5301C242.152 51.1283 241.579 50.8204 240.929 50.6067C240.288 50.3929 239.591 50.286 238.839 50.286C237.479 50.286 236.295 50.6238 235.286 51.2993C234.277 51.9662 233.495 52.941 232.939 54.2235C232.383 55.4976 232.105 57.0452 232.105 58.8665C232.105 60.739 232.383 62.3123 232.939 63.5863C233.503 64.8603 234.29 65.8223 235.299 66.4721C236.308 67.1219 237.475 67.4469 238.8 67.4469C239.544 67.4469 240.233 67.3485 240.865 67.1519C241.507 66.9552 242.075 66.6688 242.571 66.2926C243.067 65.9078 243.477 65.4418 243.802 64.8945C244.136 64.3473 244.367 63.7231 244.495 63.022L250.113 63.0476C249.967 64.2533 249.604 65.4161 249.022 66.5362C248.45 67.6478 247.676 68.6439 246.701 69.5246C245.735 70.3968 244.58 71.0894 243.238 71.6024C241.904 72.1069 240.395 72.3591 238.711 72.3591C236.368 72.3591 234.273 71.829 232.426 70.7687C230.588 69.7085 229.134 68.1737 228.065 66.1643C227.005 64.1549 226.475 61.7223 226.475 58.8665C226.475 56.002 227.013 53.5652 228.091 51.5558C229.168 49.5464 230.63 48.0159 232.477 46.9642C234.324 45.9039 236.402 45.3738 238.711 45.3738C240.233 45.3738 241.643 45.5876 242.943 46.0151C244.251 46.4426 245.41 47.0668 246.419 47.8876C247.428 48.6999 248.249 49.6961 248.881 50.876C249.523 52.056 249.933 53.407 250.113 54.929ZM266.267 56.6989V61.034H254.287V56.6989H266.267ZM296.33 67.5623L296.009 78.2077H290.725V72H288.878V67.5623H296.33ZM271.025 72V45.7329H276.36V67.5366H287.288V45.7329H292.688V72H271.025ZM299.7 72V45.7329H317.4V50.3117H305.254V56.5706H316.489V61.1494H305.254V67.4212H317.451V72H299.7ZM321.815 72V45.7329H327.368V56.5706H338.642V45.7329H344.183V72H338.642V61.1494H327.368V72H321.815ZM347.761 50.3117V45.7329H369.334V50.3117H361.292V72H355.803V50.3117H347.761ZM372.887 72V45.7329H383.25C385.242 45.7329 386.94 46.1134 388.342 46.8744C389.744 47.6268 390.813 48.6743 391.548 50.0167C392.292 51.3506 392.664 52.8897 392.664 54.634C392.664 56.3783 392.288 57.9174 391.535 59.2512C390.783 60.5851 389.693 61.624 388.265 62.3679C386.846 63.1118 385.127 63.4837 383.109 63.4837H376.504V59.0332H382.211C383.28 59.0332 384.161 58.8494 384.853 58.4817C385.554 58.1055 386.076 57.5882 386.418 56.9298C386.769 56.2628 386.944 55.4976 386.944 54.634C386.944 53.7618 386.769 53.0008 386.418 52.351C386.076 51.6926 385.554 51.1838 384.853 50.8247C384.152 50.4571 383.263 50.2732 382.186 50.2732H378.44V72H372.887Z" fill="white"/>
<circle cx="39.2192" cy="41.4487" r="33.6167" fill="white"/>
<path d="M38.6852 2.23047C46.3382 2.22897 53.8198 4.49698 60.1838 8.74769C66.5478 12.9984 71.5084 19.0409 74.4381 26.1109C77.3678 33.181 78.1351 40.961 76.643 48.4672C75.1509 55.9734 71.4664 62.8685 66.0554 68.2805C60.6444 73.6926 53.75 77.3784 46.2442 78.872C38.7383 80.3656 30.9581 79.5998 23.8875 76.6715C16.8168 73.7431 10.7734 68.7838 6.52144 62.4206C2.26948 56.0575 1.47464e-07 48.5763 0 40.9233C-1.97709e-07 30.6626 4.07551 20.8221 11.3302 13.566C18.5848 6.30992 28.4245 2.23248 38.6852 2.23047ZM57.7961 29.3929C58.6513 28.5377 59.1317 27.3779 59.1317 26.1685C59.1317 24.9591 58.6513 23.7993 57.7961 22.9441C56.941 22.0889 55.7811 21.6085 54.5717 21.6085C53.3623 21.6085 52.2025 22.0889 51.3473 22.9441L39.3308 34.9606H38.4042L26.3877 22.9441C25.5325 22.0879 24.3723 21.6065 23.1622 21.6058C21.9521 21.6051 20.7912 22.0851 19.9351 22.9403C19.0789 23.7955 18.5975 24.9557 18.5968 26.1658C18.5961 27.3759 19.0761 28.5367 19.9313 29.3929L34.2113 43.6577V64.0751C34.2596 65.2626 34.7652 66.3854 35.6225 67.2085C36.4797 68.0316 37.6221 68.4912 38.8105 68.4912C39.999 68.4912 41.1413 68.0316 41.9986 67.2085C42.8558 66.3854 43.3615 65.2626 43.4098 64.0751V43.7717L57.7961 29.3929Z" fill="#E03638"/>
</svg>
