<svg width="171" height="30" viewBox="0 0 171 30" fill="none" xmlns="http://www.w3.org/2000/svg">
<path opacity="0.9" d="M40.4476 13.1942C39.783 13.1942 39.1831 13.0432 38.6479 12.741C38.1127 12.4303 37.6941 12.0117 37.392 11.4851C37.0899 10.9499 36.9388 10.3544 36.9388 9.69834V7.05701C36.9388 6.39236 37.0899 5.79677 37.392 5.27023C37.6941 4.73506 38.1127 4.31642 38.6479 4.0143C39.1831 3.70356 39.783 3.54819 40.4476 3.54819H41.5611C42.2344 3.54819 42.8386 3.70356 43.3738 4.0143C43.909 4.31642 44.3276 4.73506 44.6297 5.27023C44.9319 5.79677 45.0829 6.39236 45.0829 7.05701V9.69834C45.0829 10.3544 44.9275 10.9499 44.6168 11.4851C44.3147 12.0117 43.896 12.4303 43.3609 12.741C42.8257 13.0432 42.2258 13.1942 41.5611 13.1942H40.4476ZM41.4446 11.3815C41.997 11.3815 42.4286 11.2262 42.7394 10.9154C43.0501 10.6047 43.2055 10.1731 43.2055 9.62065V7.1347C43.2055 6.58226 43.0501 6.15067 42.7394 5.83993C42.4286 5.52055 41.997 5.36086 41.4446 5.36086H40.5642C40.0117 5.36086 39.5801 5.51624 39.2694 5.82698C38.9673 6.13773 38.8162 6.57363 38.8162 7.1347V9.62065C38.8162 10.1731 38.9673 10.6047 39.2694 10.9154C39.5801 11.2262 40.0117 11.3815 40.5642 11.3815H41.4446ZM50.0411 12.5468C49.3074 12.5468 48.6427 12.3958 48.0471 12.0937C47.4515 11.7829 46.9854 11.3556 46.6488 10.8118C46.3121 10.268 46.1438 9.66381 46.1438 8.99916V7.78208C46.1438 7.11743 46.3121 6.51321 46.6488 5.9694C46.9854 5.4256 47.4515 5.00264 48.0471 4.70053C48.6427 4.38979 49.3074 4.23441 50.0411 4.23441H50.6237V2.96554H52.4364V4.23441H53.0061C53.7398 4.23441 54.4044 4.38979 55 4.70053C55.5956 5.00264 56.0617 5.4256 56.3984 5.9694C56.7437 6.51321 56.9163 7.11743 56.9163 7.78208V8.99916C56.9163 9.66381 56.7437 10.268 56.3984 10.8118C56.0617 11.3556 55.5956 11.7829 55 12.0937C54.4044 12.3958 53.7398 12.5468 53.0061 12.5468H52.4364V13.8416H50.6237V12.5468H50.0411ZM53.0061 10.7342C53.6535 10.7342 54.1498 10.5615 54.4951 10.2162C54.849 9.87098 55.0259 9.37896 55.0259 8.74021V8.04104C55.0259 7.40228 54.849 6.91027 54.4951 6.565C54.1498 6.21973 53.6535 6.04709 53.0061 6.04709H52.4234V10.7342H53.0061ZM48.0212 8.74021C48.0212 9.37896 48.1939 9.87098 48.5391 10.2162C48.893 10.5615 49.3937 10.7342 50.0411 10.7342H50.6367V6.04709H50.0411C49.3937 6.04709 48.893 6.21973 48.5391 6.565C48.1939 6.91027 48.0212 7.40228 48.0212 8.04104V8.74021ZM58.0984 3.7424H59.9499V7.7044L59.8593 10.3069L60.675 8.80495L64.0932 3.7424H65.9447V13H64.0932V9.07685L64.1838 6.46142L63.394 7.92451L59.9499 13H58.0984V3.7424ZM74.6272 13H67.493V3.7424H69.3446V11.2003H73.2548V3.7424H75.1063V11.2003H76.3493V15.3176H74.6272V13ZM77.2038 3.7424H79.0553V7.7044L78.9647 10.3069L79.7804 8.80495L83.1986 3.7424H85.0501V13H83.1986V9.07685L83.2892 6.46142L82.4994 7.92451L79.0553 13H77.2038V3.7424ZM89.3952 3.7424H91.3891L95.0662 13H93.0594L92.3343 11.1355H88.4241L87.699 13H85.6921L89.3952 3.7424ZM91.7775 9.42644L90.3921 5.80108L89.0067 9.42644H91.7775ZM95.197 11.1873H95.6373C95.8962 11.1873 96.1034 11.1398 96.2587 11.0449C96.4141 10.9499 96.535 10.7903 96.6213 10.5658C96.7076 10.3328 96.7767 10.0091 96.8284 9.59476L97.5406 3.7424H103.613V13H101.762V5.54213H99.1979L98.68 9.73718C98.5332 10.9025 98.2354 11.7398 97.7866 12.249C97.3377 12.7497 96.6644 13 95.7667 13H95.197V11.1873ZM105.173 3.7424H107.011V6.72037L109.536 6.73332C110.425 6.73332 111.133 6.98796 111.66 7.49723C112.186 8.00651 112.449 8.68842 112.449 9.54297V10.2421C112.449 10.7946 112.329 11.278 112.087 11.6923C111.854 12.1066 111.517 12.4303 111.077 12.6634C110.637 12.8878 110.123 13 109.536 13H105.173V3.7424ZM109.213 11.2262C109.627 11.2262 109.955 11.1398 110.197 10.9672C110.438 10.7946 110.559 10.5184 110.559 10.1386V9.56886C110.559 9.18043 110.438 8.8999 110.197 8.72726C109.955 8.55463 109.627 8.46831 109.213 8.46831L107.011 8.45536V11.2262H109.213ZM119.36 9.21927H115.268V13H113.417V3.7424H115.268V7.41955H119.36V3.7424H121.211V13H119.36V9.21927ZM131.022 3.7424H132.873V13H131.022V3.7424ZM122.761 3.7424H124.6V6.72037L127.124 6.73332C128.013 6.73332 128.721 6.98796 129.248 7.49723C129.774 8.00651 130.038 8.68842 130.038 9.54297V10.2421C130.038 10.7946 129.917 11.278 129.675 11.6923C129.442 12.1066 129.105 12.4303 128.665 12.6634C128.225 12.8878 127.711 13 127.124 13H122.761V3.7424ZM126.801 11.2262C127.215 11.2262 127.543 11.1398 127.785 10.9672C128.026 10.7946 128.147 10.5184 128.147 10.1386V9.56886C128.147 9.18043 128.026 8.8999 127.785 8.72726C127.543 8.55463 127.215 8.46831 126.801 8.46831L124.6 8.45536V11.2262H126.801ZM134.432 3.7424H136.283V7.7044L136.192 10.3069L137.008 8.80495L140.426 3.7424H142.278V13H140.426V9.07685L140.517 6.46142L139.727 7.92451L136.283 13H134.432V3.7424ZM137.41 0.777382C137.41 1.01907 137.427 1.20034 137.461 1.32118C137.496 1.44203 137.569 1.53266 137.681 1.59309C137.794 1.65351 137.971 1.68372 138.212 1.68372H138.756C138.998 1.68372 139.175 1.65351 139.287 1.59309C139.399 1.53266 139.473 1.44203 139.507 1.32118C139.542 1.20034 139.559 1.01907 139.559 0.777382H141.074C141.074 1.54561 140.901 2.10236 140.556 2.44763C140.219 2.79291 139.71 2.96554 139.028 2.96554H137.94C137.258 2.96554 136.745 2.79291 136.4 2.44763C136.063 2.10236 135.895 1.54561 135.895 0.777382H137.41ZM40.4476 27.1942C39.783 27.1942 39.1831 27.0432 38.6479 26.741C38.1127 26.4303 37.6941 26.0117 37.392 25.4851C37.0899 24.9499 36.9388 24.3544 36.9388 23.6983V21.057C36.9388 20.3924 37.0899 19.7968 37.392 19.2702C37.6941 18.7351 38.1127 18.3164 38.6479 18.0143C39.1831 17.7036 39.783 17.5482 40.4476 17.5482H41.2763C41.9841 17.5482 42.6013 17.7079 43.1278 18.0273C43.663 18.338 44.073 18.7653 44.3578 19.3091C44.6513 19.8529 44.7981 20.4571 44.7981 21.1217H42.9336C42.9336 20.5779 42.7782 20.1507 42.4675 19.8399C42.1567 19.5206 41.7295 19.3609 41.1857 19.3609H40.5642C40.0117 19.3609 39.5801 19.5162 39.2694 19.827C38.9673 20.1377 38.8162 20.5736 38.8162 21.1347V23.6207C38.8162 24.1731 38.9673 24.6047 39.2694 24.9154C39.5801 25.2262 40.0117 25.3815 40.5642 25.3815H41.1857C41.7381 25.3815 42.1654 25.2262 42.4675 24.9154C42.7782 24.6047 42.9336 24.1688 42.9336 23.6077H44.7981C44.7981 24.2724 44.6513 24.8809 44.3578 25.4333C44.073 25.9771 43.663 26.4087 43.1278 26.7281C42.6013 27.0388 41.9841 27.1942 41.2763 27.1942H40.4476ZM45.9978 17.7424H52.5235V19.5033H47.8494V21.4843H52.1092V23.2063H47.8494V25.2262H52.5882V27H45.9978V17.7424ZM58.369 17.7424C58.8869 17.7424 59.3573 17.8632 59.7803 18.1049C60.2118 18.3466 60.5528 18.679 60.8031 19.1019C61.0534 19.5162 61.1786 19.978 61.1786 20.4873V21.4972C61.1786 22.0151 61.0534 22.4942 60.8031 22.9344C60.5528 23.366 60.2118 23.7113 59.7803 23.9702C59.3573 24.2206 58.8912 24.3457 58.3819 24.3457L55.6888 24.3587V27H53.8373V17.7424H58.369ZM55.6888 22.5848L58.1488 22.5719C58.9257 22.5719 59.3141 22.1662 59.3141 21.3548V20.7333C59.3141 19.9133 58.9257 19.5033 58.1488 19.5033H55.6888V22.5848ZM62.1319 17.7424H66.9614C67.6864 17.7424 68.2648 17.9582 68.6964 18.3898C69.1366 18.8214 69.3567 19.3868 69.3567 20.0859V20.2025C69.3567 20.6513 69.2617 21.0484 69.0718 21.3937C68.8906 21.7303 68.6316 21.9892 68.295 22.1705C68.7093 22.3518 69.0287 22.6323 69.2531 23.0121C69.4775 23.3919 69.5897 23.8451 69.5897 24.3716V24.5529C69.5897 25.2866 69.3481 25.8779 68.8647 26.3267C68.3899 26.7756 67.7598 27 66.9743 27H62.1319V17.7424ZM66.806 25.2262C67.0649 25.2262 67.2851 25.1442 67.4663 24.9802C67.6562 24.8162 67.7512 24.5917 67.7512 24.3069V24.1256C67.7512 23.8321 67.6562 23.6034 67.4663 23.4394C67.2851 23.2754 67.0649 23.1934 66.806 23.1934H63.9705V25.2262H66.806ZM66.5988 21.4713C66.8578 21.4713 67.0736 21.3937 67.2462 21.2383C67.4275 21.0743 67.5181 20.8498 67.5181 20.565V20.3967C67.5181 20.1205 67.4275 19.9047 67.2462 19.7493C67.0649 19.5853 66.8492 19.5033 66.5988 19.5033H63.9705V21.4713H66.5988ZM70.7552 17.7424H72.6068V21.7044L72.5161 24.3069L73.3318 22.8049L76.75 17.7424H78.6015V27H76.75V23.0769L76.8407 20.4614L76.0508 21.9245L72.6068 27H70.7552V17.7424ZM83.4127 27.1942C82.7481 27.1942 82.1482 27.0432 81.613 26.741C81.0778 26.4303 80.6592 26.0117 80.3571 25.4851C80.055 24.9499 79.9039 24.3544 79.9039 23.6983V21.057C79.9039 20.3924 80.055 19.7968 80.3571 19.2702C80.6592 18.7351 81.0778 18.3164 81.613 18.0143C82.1482 17.7036 82.7481 17.5482 83.4127 17.5482H84.2414C84.9492 17.5482 85.5664 17.7079 86.0929 18.0273C86.6281 18.338 87.0381 18.7653 87.3229 19.3091C87.6164 19.8529 87.7631 20.4571 87.7631 21.1217H85.8987C85.8987 20.5779 85.7433 20.1507 85.4326 19.8399C85.1218 19.5206 84.6945 19.3609 84.1507 19.3609H83.5292C82.9768 19.3609 82.5452 19.5162 82.2345 19.827C81.9324 20.1377 81.7813 20.5736 81.7813 21.1347V23.6207C81.7813 24.1731 81.9324 24.6047 82.2345 24.9154C82.5452 25.2262 82.9768 25.3815 83.5292 25.3815H84.1507C84.7032 25.3815 85.1304 25.2262 85.4326 24.9154C85.7433 24.6047 85.8987 24.1688 85.8987 23.6077H87.7631C87.7631 24.2724 87.6164 24.8809 87.3229 25.4333C87.0381 25.9771 86.6281 26.4087 86.0929 26.7281C85.5664 27.0388 84.9492 27.1942 84.2414 27.1942H83.4127ZM88.9599 22.3259H93.3751V24.0479H88.9599V22.3259ZM101.951 27H94.8172V17.7424H96.6687V25.2003H100.579V17.7424H102.43V25.2003H103.673V29.3176H101.951V27ZM104.528 17.7424H111.054V19.5033H106.379V21.4843H110.639V23.2063H106.379V25.2262H111.118V27H104.528V17.7424ZM118.31 23.2193H114.219V27H112.367V17.7424H114.219V21.4195H118.31V17.7424H120.162V27H118.31V23.2193ZM123.938 19.5292H121.129V17.7424H128.587V19.5292H125.79V27H123.938V19.5292ZM134.095 17.7424C134.613 17.7424 135.084 17.8632 135.507 18.1049C135.938 18.3466 136.279 18.679 136.529 19.1019C136.78 19.5162 136.905 19.978 136.905 20.4873V21.4972C136.905 22.0151 136.78 22.4942 136.529 22.9344C136.279 23.366 135.938 23.7113 135.507 23.9702C135.084 24.2206 134.617 24.3457 134.108 24.3457L131.415 24.3587V27H129.564V17.7424H134.095ZM131.415 22.5848L133.875 22.5719C134.652 22.5719 135.04 22.1662 135.04 21.3548V20.7333C135.04 19.9133 134.652 19.5033 133.875 19.5033H131.415V22.5848Z" fill="white"/>
<circle cx="14.0598" cy="15.0591" r="12.0513" fill="white"/>
<path d="M13.8683 1C16.6118 0.999462 19.2939 1.81252 21.5753 3.33636C23.8568 4.8602 25.6351 7.02636 26.6853 9.56091C27.7356 12.0955 28.0107 14.8845 27.4758 17.5754C26.9409 20.2663 25.62 22.7381 23.6802 24.6783C21.7404 26.6185 19.2689 27.9398 16.5781 28.4753C13.8873 29.0107 11.0982 28.7362 8.56343 27.6864C6.02867 26.6366 3.86216 24.8587 2.33787 22.5776C0.813589 20.2965 5.28644e-08 17.6145 0 14.871C-7.08769e-08 11.1927 1.46103 7.66492 4.06176 5.06368C6.66249 2.46245 10.1899 1.00072 13.8683 1ZM20.7194 10.7375C21.0259 10.4309 21.1982 10.0151 21.1982 9.58156C21.1982 9.148 21.0259 8.73221 20.7194 8.42564C20.4128 8.11907 19.997 7.94684 19.5634 7.94684C19.1299 7.94684 18.7141 8.11907 18.4075 8.42564L14.0997 12.7334H13.7675L9.45973 8.42564C9.15316 8.11871 8.73722 7.94614 8.30341 7.94588C7.8696 7.94562 7.45346 8.11771 7.14653 8.42428C6.8396 8.73085 6.66703 9.14679 6.66677 9.58059C6.66652 10.0144 6.8386 10.4305 7.14517 10.7375L12.2644 15.8513V23.1707C12.2817 23.5964 12.463 23.9989 12.7703 24.294C13.0776 24.5891 13.4872 24.7538 13.9132 24.7538C14.3392 24.7538 14.7488 24.5891 15.0561 24.294C15.3634 23.9989 15.5447 23.5964 15.562 23.1707V15.8921L20.7194 10.7375Z" fill="#E03638"/>
</svg>
