<svg width="486" height="83" viewBox="0 0 486 83" fill="none" xmlns="http://www.w3.org/2000/svg">
<path opacity="0.9" d="M138.063 25.9368C138.063 29.4763 136.943 32.3898 134.704 34.6772C132.176 37.2536 128.841 38.5418 124.7 38.5418C120.558 38.5418 117.223 37.2536 114.695 34.6772C112.456 32.3898 111.336 29.4763 111.336 25.9368C111.336 22.4214 112.456 19.52 114.695 17.2326C117.223 14.6562 120.558 13.368 124.7 13.368C128.841 13.368 132.176 14.6562 134.704 17.2326C136.943 19.52 138.063 22.4214 138.063 25.9368ZM124.7 21.1332C123.375 21.1332 122.328 21.5426 121.558 22.3612C120.643 23.3244 120.185 24.5283 120.185 25.973C120.185 27.4417 120.643 28.6336 121.558 29.5486C122.376 30.3672 123.424 30.7766 124.7 30.7766C125.976 30.7766 127.023 30.3672 127.842 29.5486C128.757 28.6336 129.214 27.4417 129.214 25.973C129.214 24.432 128.757 23.228 127.842 22.3612C127.023 21.5426 125.976 21.1332 124.7 21.1332ZM152.274 38V34.4966C148.204 34.4966 145.195 33.4974 143.244 31.4989C141.583 29.7893 140.752 27.4538 140.752 24.4921C140.752 21.6268 141.595 19.3515 143.28 17.666C144.388 16.5584 145.76 15.7759 147.398 15.3184C149.059 14.8368 150.684 14.596 152.274 14.596V11.1288H160.689V14.596C164.71 14.6442 167.708 15.6675 169.682 17.666C171.368 19.3755 172.21 21.6389 172.21 24.456C172.21 27.3936 171.38 29.7412 169.718 31.4989C167.84 33.4974 164.83 34.4966 160.689 34.4966V38H152.274ZM159.93 21.1694V27.9594H160.075C161.544 27.9594 162.591 27.6584 163.217 27.0565C163.819 26.5027 164.12 25.6599 164.12 24.5283C164.12 23.3725 163.807 22.5177 163.181 21.9639C162.603 21.4342 161.52 21.1694 159.93 21.1694ZM153.032 21.1694C151.443 21.1694 150.359 21.4342 149.781 21.9639C149.155 22.5177 148.842 23.3725 148.842 24.5283C148.842 25.6599 149.143 26.5027 149.745 27.0565C150.371 27.6584 151.419 27.9594 152.888 27.9594H153.032V21.1694ZM175.978 13.9098H184.285V22.4696C184.285 23.7457 184.14 25.2265 183.851 26.912H184.176C184.802 25.2506 185.332 24.0467 185.766 23.3003L191.039 13.9098H198.876V38H190.569V29.8014C190.569 28.4289 190.714 26.9481 191.003 25.359H190.677C190.172 26.8037 189.642 28.0076 189.088 28.9707L183.815 38H175.978V13.9098ZM203.701 38V13.9098H212.116V30.6321H217.461V13.9098H225.877V30.6321H229.308V42.8036H221.868V38H203.701ZM232.623 13.9098H240.93V22.4696C240.93 23.7457 240.785 25.2265 240.496 26.912H240.821C241.447 25.2506 241.977 24.0467 242.41 23.3003L247.683 13.9098H255.521V38H247.214V29.8014C247.214 28.4289 247.358 26.9481 247.647 25.359H247.322C246.817 26.8037 246.287 28.0076 245.733 28.9707L240.46 38H232.623V13.9098ZM274.467 35.0023H267.822L267.172 38H257.926L266.269 13.9098H275.948L284.544 38H275.262L274.467 35.0023ZM271.831 24.6727C271.638 23.8541 271.482 22.9511 271.361 21.9639H271.036C271.012 22.8308 270.88 23.7337 270.639 24.6727L269.447 29.2957H272.95L271.831 24.6727ZM290.492 13.9098H311.549V38H303.133V21.4944H298.077V28.754C298.077 32.0768 297.306 34.5448 295.765 36.158C294.321 37.6509 292.166 38.3973 289.3 38.3973C288.024 38.3973 286.808 38.301 285.653 38.1084V31.3183C286.014 31.4146 286.495 31.4628 287.097 31.4628C288.181 31.4628 288.975 31.222 289.481 30.7404C290.155 30.0903 290.492 28.8744 290.492 27.0926V13.9098ZM316.391 38V13.9098H324.806V22.8308H328.996C331.668 22.8308 333.739 23.5892 335.208 25.1061C336.532 26.4304 337.194 28.1881 337.194 30.3793C337.194 32.7389 336.472 34.5689 335.027 35.8691C333.438 37.2897 331.006 38 327.731 38H316.391ZM324.806 32.2212H326.467C327.286 32.2212 327.888 32.0888 328.273 31.824C328.779 31.4869 329.032 30.9331 329.032 30.1626C329.032 29.4643 328.803 28.9466 328.345 28.6095C327.984 28.3447 327.418 28.2122 326.648 28.2122H324.806V32.2212ZM349.107 38H340.692V13.9098H349.107V22.0723H354.453V13.9098H362.868V38H354.453V29.6208H349.107V38ZM367.71 38V13.9098H376.125V22.8308H380.17C382.843 22.8308 384.913 23.5892 386.382 25.1061C387.706 26.4304 388.369 28.1881 388.369 30.3793C388.369 32.7389 387.646 34.5689 386.202 35.8691C384.612 37.2897 382.181 38 378.906 38H367.71ZM376.125 32.2212H377.786C378.605 32.2212 379.207 32.0888 379.592 31.824C380.098 31.4869 380.351 30.9331 380.351 30.1626C380.351 29.4643 380.122 28.9466 379.664 28.6095C379.303 28.3447 378.737 28.2122 377.967 28.2122H376.125V32.2212ZM398.481 38H390.066V13.9098H398.481V38ZM403.333 13.9098H411.64V22.4696C411.64 23.7457 411.496 25.2265 411.207 26.912H411.532C412.158 25.2506 412.687 24.0467 413.121 23.3003L418.394 13.9098H426.231V38H417.924V29.8014C417.924 28.4289 418.069 26.9481 418.358 25.359H418.033C417.527 26.8037 416.997 28.0076 416.444 28.9707L411.17 38H403.333V13.9098ZM417.635 5.63894L422.403 7.55316C421.729 8.97377 420.693 10.0332 419.297 10.7315C418.093 11.3334 416.576 11.6344 414.746 11.6344C412.868 11.6344 411.339 11.3334 410.159 10.7315C408.811 10.0573 407.787 8.99785 407.089 7.55316L411.857 5.63894C412.025 6.26498 412.326 6.75858 412.76 7.11975C413.241 7.48092 413.915 7.66151 414.782 7.66151C415.649 7.66151 416.299 7.48092 416.733 7.11975C417.166 6.75858 417.467 6.26498 417.635 5.63894ZM130.045 66.5734L129.792 75.5666C128.083 76.2167 126.06 76.5418 123.725 76.5418C120.137 76.5418 117.175 75.374 114.84 73.0384C112.504 70.751 111.336 67.7893 111.336 64.1535C111.336 60.5177 112.54 57.4719 114.948 55.0159C117.38 52.584 120.414 51.368 124.05 51.368C126.024 51.368 127.938 51.6811 129.792 52.3071L130.045 61.4809C128.456 59.8917 126.758 59.0971 124.953 59.0971C123.532 59.0971 122.364 59.5907 121.449 60.5779C120.606 61.4929 120.185 62.6366 120.185 64.0091C120.185 65.4056 120.655 66.5614 121.594 67.4763C122.557 68.3913 123.749 68.8488 125.169 68.8488C127.047 68.8488 128.673 68.0903 130.045 66.5734ZM150.228 76H133.759V51.9098H150.011V58.5193H142.499V60.7585H149.325V67.079H142.499V69.3905H150.228V76ZM162.492 76H153.969V51.9098H165.526C168.608 51.9098 170.956 52.6923 172.569 54.2574C174.206 55.8466 175.025 57.9775 175.025 60.6502C175.025 63.2747 174.231 65.2973 172.641 66.7179C171.197 68.0662 169.222 68.7404 166.718 68.7404H162.492V76ZM162.492 58.5193V62.6727H163.973C164.84 62.6727 165.49 62.456 165.924 62.0226C166.309 61.6855 166.501 61.1919 166.501 60.5418C166.501 59.8917 166.285 59.3981 165.851 59.061C165.418 58.6998 164.828 58.5193 164.082 58.5193H162.492ZM178.059 76V51.9098H188.569C191.94 51.9098 194.336 52.584 195.756 53.9324C196.984 55.0881 197.598 56.6652 197.598 58.6637C197.598 60.0362 197.261 61.1317 196.587 61.9504C196.057 62.6246 195.359 63.1182 194.492 63.4312L194.456 63.6479C195.371 63.8887 196.214 64.3702 196.984 65.0926C198.164 66.2002 198.754 67.5606 198.754 69.1738C198.754 71.4613 197.887 73.219 196.153 74.447C194.685 75.4823 192.566 76 189.797 76H178.059ZM186.149 57.6886V61.1558H187.521C188.268 61.1558 188.822 60.9752 189.183 60.6141C189.496 60.301 189.652 59.8797 189.652 59.3499C189.652 58.8202 189.472 58.3989 189.111 58.0858C188.774 57.821 188.244 57.6886 187.521 57.6886H186.149ZM186.149 66.2122V70.1851H187.919C188.713 70.1851 189.327 70.0527 189.761 69.7878C190.315 69.4267 190.591 68.8849 190.591 68.1626C190.591 67.5606 190.375 67.079 189.941 66.7179C189.532 66.3808 188.894 66.2122 188.027 66.2122H186.149ZM202.501 51.9098H210.808V60.4696C210.808 61.7457 210.664 63.2265 210.375 64.912H210.7C211.326 63.2506 211.856 62.0467 212.289 61.3003L217.562 51.9098H225.4V76H217.093V67.8014C217.093 66.4289 217.237 64.9481 217.526 63.359H217.201C216.695 64.8037 216.166 66.0076 215.612 66.9707L210.339 76H202.501V51.9098ZM247.849 66.5734L247.597 75.5666C245.887 76.2167 243.864 76.5418 241.529 76.5418C237.941 76.5418 234.98 75.374 232.644 73.0384C230.308 70.751 229.141 67.7893 229.141 64.1535C229.141 60.5177 230.345 57.4719 232.752 55.0159C235.184 52.584 238.218 51.368 241.854 51.368C243.828 51.368 245.743 51.6811 247.597 52.3071L247.849 61.4809C246.26 59.8917 244.563 59.0971 242.757 59.0971C241.336 59.0971 240.168 59.5907 239.253 60.5779C238.411 61.4929 237.989 62.6366 237.989 64.0091C237.989 65.4056 238.459 66.5614 239.398 67.4763C240.361 68.3913 241.553 68.8488 242.974 68.8488C244.852 68.8488 246.477 68.0903 247.849 66.5734ZM262.326 69.6795H250.949V63.1784H262.326V69.6795ZM266.553 76V51.9098H274.968V68.6321H280.314V51.9098H288.729V68.6321H292.16V80.8036H284.72V76H266.553ZM311.945 76H295.475V51.9098H311.728V58.5193H304.215V60.7585H311.042V67.079H304.215V69.3905H311.945V76ZM324.101 76H315.685V51.9098H324.101V60.0723H329.446V51.9098H337.861V76H329.446V67.6208H324.101V76ZM354.043 76H345.447V59.5305L340.536 59.7472V51.9098H358.955V59.7472L354.043 59.5305V76ZM370.167 76H361.643V51.9098H373.201C376.283 51.9098 378.63 52.6923 380.243 54.2574C381.881 55.8466 382.699 57.9775 382.699 60.6502C382.699 63.2747 381.905 65.2973 380.316 66.7179C378.871 68.0662 376.897 68.7404 374.392 68.7404H370.167V76ZM370.167 58.5193V62.6727H371.647C372.514 62.6727 373.164 62.456 373.598 62.0226C373.983 61.6855 374.176 61.1919 374.176 60.5418C374.176 59.8917 373.959 59.3981 373.526 59.061C373.092 58.6998 372.502 58.5193 371.756 58.5193H370.167Z" fill="white"/>
<circle cx="39.2192" cy="39.4487" r="33.6167" fill="white"/>
<path d="M38.6852 0.230469C46.3382 0.228967 53.8198 2.49698 60.1838 6.74769C66.5478 10.9984 71.5084 17.0409 74.4381 24.1109C77.3678 31.181 78.1351 38.961 76.643 46.4672C75.1509 53.9734 71.4664 60.8685 66.0554 66.2805C60.6444 71.6926 53.75 75.3784 46.2442 76.872C38.7383 78.3656 30.9581 77.5998 23.8875 74.6715C16.8168 71.7431 10.7734 66.7838 6.52144 60.4206C2.26948 54.0575 1.47464e-07 46.5763 0 38.9233C-1.97709e-07 28.6626 4.07551 18.8221 11.3302 11.566C18.5848 4.30992 28.4245 0.232484 38.6852 0.230469ZM57.7961 27.3929C58.6513 26.5377 59.1317 25.3779 59.1317 24.1685C59.1317 22.9591 58.6513 21.7993 57.7961 20.9441C56.941 20.0889 55.7811 19.6085 54.5717 19.6085C53.3623 19.6085 52.2025 20.0889 51.3473 20.9441L39.3308 32.9606H38.4042L26.3877 20.9441C25.5325 20.0879 24.3723 19.6065 23.1622 19.6058C21.9521 19.6051 20.7912 20.0851 19.9351 20.9403C19.0789 21.7955 18.5975 22.9557 18.5968 24.1658C18.5961 25.3759 19.0761 26.5367 19.9313 27.3929L34.2113 41.6577V62.0751C34.2596 63.2626 34.7652 64.3854 35.6225 65.2085C36.4797 66.0316 37.6221 66.4912 38.8105 66.4912C39.999 66.4912 41.1413 66.0316 41.9986 65.2085C42.8558 64.3854 43.3615 63.2626 43.4098 62.0751V41.7717L57.7961 27.3929Z" fill="#E03638"/>
</svg>
