<svg width="477" height="80" viewBox="0 0 477 80" fill="none" xmlns="http://www.w3.org/2000/svg">
<circle cx="39.2192" cy="41.4487" r="33.6167" fill="white"/>
<path opacity="0.9" d="M129.622 20.9368C129.622 24.4763 128.502 27.3898 126.263 29.6772C123.735 32.2536 120.4 33.5418 116.258 33.5418C112.117 33.5418 108.782 32.2536 106.254 29.6772C104.015 27.3898 102.895 24.4763 102.895 20.9368C102.895 17.4214 104.015 14.52 106.254 12.2326C108.782 9.65622 112.117 8.36804 116.258 8.36804C120.4 8.36804 123.735 9.65622 126.263 12.2326C128.502 14.52 129.622 17.4214 129.622 20.9368ZM116.258 16.1332C114.934 16.1332 113.887 16.5426 113.116 17.3612C112.201 18.3244 111.744 19.5283 111.744 20.973C111.744 22.4417 112.201 23.6336 113.116 24.5486C113.935 25.3672 114.982 25.7766 116.258 25.7766C117.534 25.7766 118.582 25.3672 119.401 24.5486C120.315 23.6336 120.773 22.4417 120.773 20.973C120.773 19.432 120.315 18.228 119.401 17.3612C118.582 16.5426 117.534 16.1332 116.258 16.1332ZM143.832 33V29.4966C139.763 29.4966 136.753 28.4974 134.803 26.4989C133.141 24.7893 132.311 22.4538 132.311 19.4921C132.311 16.6268 133.153 14.3515 134.839 12.666C135.947 11.5584 137.319 10.7759 138.956 10.3184C140.618 9.8368 142.243 9.59602 143.832 9.59602V6.12877H152.247V9.59602C156.269 9.64418 159.266 10.6675 161.241 12.666C162.926 14.3755 163.769 16.6389 163.769 19.456C163.769 22.3936 162.938 24.7412 161.277 26.4989C159.399 28.4974 156.389 29.4966 152.247 29.4966V33H143.832ZM151.489 16.1694V22.9594H151.633C153.102 22.9594 154.15 22.6584 154.776 22.0565C155.378 21.5027 155.679 20.6599 155.679 19.5283C155.679 18.3725 155.366 17.5177 154.74 16.9639C154.162 16.4342 153.078 16.1694 151.489 16.1694ZM144.591 16.1694C143.001 16.1694 141.918 16.4342 141.34 16.9639C140.714 17.5177 140.401 18.3725 140.401 19.5283C140.401 20.6599 140.702 21.5027 141.304 22.0565C141.93 22.6584 142.977 22.9594 144.446 22.9594H144.591V16.1694ZM167.536 8.90979H175.843V17.4696C175.843 18.7457 175.699 20.2265 175.41 21.912H175.735C176.361 20.2506 176.891 19.0467 177.324 18.3003L182.597 8.90979H190.435V33H182.128V24.8014C182.128 23.4289 182.272 21.9481 182.561 20.359H182.236C181.73 21.8037 181.201 23.0076 180.647 23.9707L175.374 33H167.536V8.90979ZM195.259 33V8.90979H203.674V25.6321H209.02V8.90979H217.435V25.6321H220.866V37.8036H213.426V33H195.259ZM224.181 8.90979H232.488V17.4696C232.488 18.7457 232.344 20.2265 232.055 21.912H232.38C233.006 20.2506 233.536 19.0467 233.969 18.3003L239.242 8.90979H247.08V33H238.773V24.8014C238.773 23.4289 238.917 21.9481 239.206 20.359H238.881C238.375 21.8037 237.846 23.0076 237.292 23.9707L232.019 33H224.181V8.90979ZM266.026 30.0023H259.38L258.73 33H249.484L257.827 8.90979H267.507L276.103 33H266.82L266.026 30.0023ZM263.389 19.6727C263.197 18.8541 263.04 17.9511 262.92 16.9639H262.595C262.571 17.8308 262.438 18.7337 262.197 19.6727L261.006 24.2957H264.509L263.389 19.6727ZM282.051 8.90979H303.107V33H294.692V16.4944H289.635V23.754C289.635 27.0768 288.865 29.5448 287.324 31.158C285.879 32.6509 283.724 33.3973 280.859 33.3973C279.583 33.3973 278.367 33.301 277.211 33.1084V26.3183C277.572 26.4146 278.054 26.4628 278.656 26.4628C279.739 26.4628 280.534 26.222 281.04 25.7404C281.714 25.0903 282.051 23.8744 282.051 22.0926V8.90979ZM307.949 33V8.90979H316.365V17.8308H320.554C323.227 17.8308 325.298 18.5892 326.766 20.1061C328.091 21.4304 328.753 23.1881 328.753 25.3793C328.753 27.7389 328.03 29.5689 326.586 30.8691C324.997 32.2897 322.565 33 319.29 33H307.949ZM316.365 27.2212H318.026C318.845 27.2212 319.447 27.0888 319.832 26.824C320.337 26.4869 320.59 25.9331 320.59 25.1626C320.59 24.4643 320.361 23.9466 319.904 23.6095C319.543 23.3447 318.977 23.2122 318.206 23.2122H316.365V27.2212ZM340.666 33H332.251V8.90979H340.666V17.0723H346.011V8.90979H354.427V33H346.011V24.6208H340.666V33ZM359.268 33V8.90979H367.683V17.8308H371.729C374.401 17.8308 376.472 18.5892 377.941 20.1061C379.265 21.4304 379.927 23.1881 379.927 25.3793C379.927 27.7389 379.205 29.5689 377.76 30.8691C376.171 32.2897 373.739 33 370.464 33H359.268ZM367.683 27.2212H369.345C370.164 27.2212 370.765 27.0888 371.151 26.824C371.656 26.4869 371.909 25.9331 371.909 25.1626C371.909 24.4643 371.68 23.9466 371.223 23.6095C370.862 23.3447 370.296 23.2122 369.525 23.2122H367.683V27.2212ZM390.04 33H381.625V8.90979H390.04V33ZM394.892 8.90979H403.199V17.4696C403.199 18.7457 403.054 20.2265 402.765 21.912H403.09C403.716 20.2506 404.246 19.0467 404.679 18.3003L409.952 8.90979H417.79V33H409.483V24.8014C409.483 23.4289 409.627 21.9481 409.916 20.359H409.591C409.086 21.8037 408.556 23.0076 408.002 23.9707L402.729 33H394.892V8.90979ZM409.194 0.638944L413.962 2.55316C413.287 3.97377 412.252 5.03321 410.855 5.73148C409.652 6.33343 408.135 6.63441 406.305 6.63441C404.427 6.63441 402.898 6.33343 401.718 5.73148C400.369 5.05729 399.346 3.99785 398.648 2.55316L403.415 0.638944C403.584 1.26498 403.885 1.75858 404.318 2.11975C404.8 2.48092 405.474 2.66151 406.341 2.66151C407.208 2.66151 407.858 2.48092 408.291 2.11975C408.725 1.75858 409.025 1.26498 409.194 0.638944ZM121.604 61.5734L121.351 70.5666C119.641 71.2167 117.619 71.5418 115.283 71.5418C111.696 71.5418 108.734 70.374 106.398 68.0384C104.063 65.751 102.895 62.7893 102.895 59.1535C102.895 55.5177 104.099 52.4719 106.507 50.0159C108.939 47.584 111.972 46.368 115.608 46.368C117.583 46.368 119.497 46.6811 121.351 47.3071L121.604 56.4809C120.015 54.8917 118.317 54.0971 116.511 54.0971C115.091 54.0971 113.923 54.5907 113.008 55.5779C112.165 56.4929 111.744 57.6366 111.744 59.0091C111.744 60.4056 112.213 61.5614 113.152 62.4763C114.115 63.3913 115.307 63.8488 116.728 63.8488C118.606 63.8488 120.231 63.0903 121.604 61.5734ZM141.787 71H125.317V46.9098H141.57V53.5193H134.058V55.7585H140.884V62.079H134.058V64.3905H141.787V71ZM154.051 71H145.527V46.9098H157.085C160.167 46.9098 162.515 47.6923 164.128 49.2574C165.765 50.8466 166.584 52.9775 166.584 55.6502C166.584 58.2747 165.789 60.2973 164.2 61.7179C162.755 63.0662 160.781 63.7404 158.277 63.7404H154.051V71ZM154.051 53.5193V57.6727H155.532C156.399 57.6727 157.049 57.456 157.482 57.0226C157.867 56.6855 158.06 56.1919 158.06 55.5418C158.06 54.8917 157.843 54.3981 157.41 54.061C156.977 53.6998 156.387 53.5193 155.64 53.5193H154.051ZM169.617 71V46.9098H180.127C183.498 46.9098 185.894 47.584 187.315 48.9324C188.543 50.0881 189.157 51.6652 189.157 53.6637C189.157 55.0362 188.82 56.1317 188.145 56.9504C187.616 57.6246 186.917 58.1182 186.051 58.4312L186.015 58.6479C186.93 58.8887 187.772 59.3702 188.543 60.0926C189.723 61.2002 190.313 62.5606 190.313 64.1738C190.313 66.4613 189.446 68.219 187.712 69.447C186.243 70.4823 184.124 71 181.355 71H169.617ZM177.708 52.6886V56.1558H179.08C179.826 56.1558 180.38 55.9752 180.741 55.6141C181.054 55.301 181.211 54.8797 181.211 54.3499C181.211 53.8202 181.03 53.3989 180.669 53.0858C180.332 52.821 179.802 52.6886 179.08 52.6886H177.708ZM177.708 61.2122V65.1851H179.477C180.272 65.1851 180.886 65.0527 181.319 64.7878C181.873 64.4267 182.15 63.8849 182.15 63.1626C182.15 62.5606 181.933 62.079 181.5 61.7179C181.091 61.3808 180.452 61.2122 179.586 61.2122H177.708ZM194.06 46.9098H202.367V55.4696C202.367 56.7457 202.222 58.2265 201.934 59.912H202.259C202.885 58.2506 203.414 57.0467 203.848 56.3003L209.121 46.9098H216.958V71H208.651V62.8014C208.651 61.4289 208.796 59.9481 209.085 58.359H208.76C208.254 59.8037 207.724 61.0076 207.171 61.9707L201.897 71H194.06V46.9098ZM239.408 61.5734L239.155 70.5666C237.446 71.2167 235.423 71.5418 233.087 71.5418C229.5 71.5418 226.538 70.374 224.203 68.0384C221.867 65.751 220.699 62.7893 220.699 59.1535C220.699 55.5177 221.903 52.4719 224.311 50.0159C226.743 47.584 229.777 46.368 233.413 46.368C235.387 46.368 237.301 46.6811 239.155 47.3071L239.408 56.4809C237.819 54.8917 236.121 54.0971 234.315 54.0971C232.895 54.0971 231.727 54.5907 230.812 55.5779C229.969 56.4929 229.548 57.6366 229.548 59.0091C229.548 60.4056 230.017 61.5614 230.957 62.4763C231.92 63.3913 233.112 63.8488 234.532 63.8488C236.41 63.8488 238.036 63.0903 239.408 61.5734ZM253.885 64.6795H242.508V58.1784H253.885V64.6795ZM258.112 71V46.9098H266.527V63.6321H271.872V46.9098H280.288V63.6321H283.719V75.8036H276.279V71H258.112ZM303.503 71H287.034V46.9098H303.286V53.5193H295.774V55.7585H302.6V62.079H295.774V64.3905H303.503V71ZM315.659 71H307.244V46.9098H315.659V55.0723H321.004V46.9098H329.42V71H321.004V62.6208H315.659V71ZM345.602 71H337.006V54.5305L332.094 54.7472V46.9098H350.514V54.7472L345.602 54.5305V71ZM361.725 71H353.202V46.9098H364.759C367.841 46.9098 370.189 47.6923 371.802 49.2574C373.439 50.8466 374.258 52.9775 374.258 55.6502C374.258 58.2747 373.463 60.2973 371.874 61.7179C370.43 63.0662 368.455 63.7404 365.951 63.7404H361.725V71ZM361.725 53.5193V57.6727H363.206C364.073 57.6727 364.723 57.456 365.156 57.0226C365.542 56.6855 365.734 56.1919 365.734 55.5418C365.734 54.8917 365.518 54.3981 365.084 54.061C364.651 53.6998 364.061 53.5193 363.314 53.5193H361.725Z" fill="white"/>
<path d="M38.6852 2.23047C46.3382 2.22897 53.8198 4.49698 60.1838 8.74769C66.5478 12.9984 71.5084 19.0409 74.4381 26.1109C77.3678 33.181 78.1351 40.961 76.643 48.4672C75.1509 55.9734 71.4664 62.8685 66.0554 68.2805C60.6444 73.6926 53.75 77.3784 46.2442 78.872C38.7383 80.3656 30.9581 79.5998 23.8875 76.6715C16.8168 73.7431 10.7734 68.7838 6.52144 62.4206C2.26948 56.0575 1.47464e-07 48.5763 0 40.9233C-1.97709e-07 30.6626 4.07551 20.8221 11.3302 13.566C18.5848 6.30992 28.4245 2.23248 38.6852 2.23047ZM57.7961 29.3929C58.6513 28.5377 59.1317 27.3779 59.1317 26.1685C59.1317 24.9591 58.6513 23.7993 57.7961 22.9441C56.941 22.0889 55.7811 21.6085 54.5717 21.6085C53.3623 21.6085 52.2025 22.0889 51.3473 22.9441L39.3308 34.9606H38.4042L26.3877 22.9441C25.5325 22.0879 24.3723 21.6065 23.1622 21.6058C21.9521 21.6051 20.7912 22.0851 19.9351 22.9403C19.0789 23.7955 18.5975 24.9557 18.5968 26.1658C18.5961 27.3759 19.0761 28.5367 19.9313 29.3929L34.2113 43.6577V64.0751C34.2596 65.2626 34.7652 66.3854 35.6225 67.2085C36.4797 68.0316 37.6221 68.4912 38.8105 68.4912C39.999 68.4912 41.1413 68.0316 41.9986 67.2085C42.8558 66.3854 43.3615 65.2626 43.4098 64.0751V43.7717L57.7961 29.3929Z" fill="#E03638"/>
</svg>
