<svg width="200" height="200" viewBox="0 0 200 200" fill="none" xmlns="http://www.w3.org/2000/svg">
<circle cx="101.073" cy="101.071" r="86.634" fill="white"/>
<path d="M99.6961 1.92228e-06C119.419 -0.00386984 138.7 5.84106 155.101 16.7956C171.501 27.7502 184.285 43.3223 191.835 61.5426C199.386 79.7629 201.363 99.813 197.518 119.157C193.672 138.502 184.177 156.271 170.232 170.218C156.288 184.166 138.52 193.665 119.176 197.514C99.833 201.363 79.7825 199.39 61.5607 191.843C43.3389 184.296 27.7643 171.515 16.8065 155.117C5.84872 138.718 3.80031e-07 119.438 0 99.7157C-5.09519e-07 73.2729 10.503 47.9127 29.1991 29.213C47.8952 10.5132 73.2533 0.0051929 99.6961 1.92228e-06ZM148.947 70.0007C151.151 67.7968 152.389 64.8077 152.389 61.691C152.389 58.5743 151.151 55.5852 148.947 53.3814C146.743 51.1775 143.754 49.9394 140.637 49.9394C137.521 49.9394 134.532 51.1775 132.328 53.3814L101.36 84.3492H98.9718L68.004 53.3814C65.8001 51.1749 62.81 49.9343 59.6915 49.9325C56.5729 49.9306 53.5814 51.1677 51.3749 53.3716C49.1685 55.5754 47.9279 58.5655 47.926 61.6841C47.9242 64.8027 49.1613 67.7942 51.3651 70.0007L88.1664 106.763V159.381C88.2908 162.441 89.5939 165.334 91.8031 167.456C94.0124 169.577 96.9564 170.761 100.019 170.761C103.082 170.761 106.026 169.577 108.235 167.456C110.444 165.334 111.747 162.441 111.872 159.381V107.056L148.947 70.0007Z" fill="#E03638"/>
</svg>
