<svg width="82" height="22" viewBox="0 0 82 22" fill="none" xmlns="http://www.w3.org/2000/svg">
<g clip-path="url(#clip0_849_471)">
<path fill-rule="evenodd" clip-rule="evenodd" d="M0.220703 0.658692H7.73294C8.3263 0.65641 8.91119 0.788317 9.43612 1.04277C9.96104 1.29722 10.4099 1.66644 10.7433 2.11793C11.2667 2.93383 11.6422 3.82262 11.8552 4.74949C12.7637 7.55569 13.6587 10.3744 14.5672 13.1806C14.5672 13.4425 14.9876 13.5297 15.0689 13.2678C16.0046 10.4242 16.8995 7.58063 17.7809 4.74949C18.0118 3.70951 18.4735 2.72449 19.1369 1.85599C19.6205 1.32764 20.2691 0.948842 20.9946 0.770935C21.615 0.658694 22.2486 0.620968 22.8795 0.658692C25.0762 0.658692 27.2865 0.658692 29.4832 0.658692C29.4832 7.71782 29.4832 14.777 29.4832 21.861C27.0967 21.861 24.7236 21.861 22.3506 21.861C22.3506 17.7203 22.3506 13.5921 22.3506 9.45141C22.3506 9.07725 21.6726 9.11467 21.632 9.45141C20.2127 13.6087 18.7979 17.7453 17.3877 21.861C15.7062 21.861 14.0248 21.861 12.3434 21.861C10.9874 17.7328 9.53643 13.5921 8.09907 9.4639C8.09907 9.11468 7.59736 9.11469 7.36684 9.31424V21.861C4.99383 21.861 2.62083 21.861 0.247829 21.861V0.658692H0.220703ZM32.7647 0.658692C35.1513 0.658692 37.5243 0.658692 39.8973 0.658692C39.8973 4.84927 39.8973 9.03983 39.8973 13.2304C40.1007 13.3926 40.4804 13.4424 40.6024 13.2304C42.1754 10.1873 43.7529 7.13579 45.3349 4.076C45.7477 3.08725 46.329 2.16525 47.057 1.34463C47.4034 0.984152 47.8909 0.764455 48.413 0.73352C50.8267 0.73352 53.2539 0.73352 55.6676 0.73352C55.6676 7.79265 55.6676 14.8601 55.6676 21.9359H48.5486C48.5486 17.7785 48.5486 13.6004 48.5486 9.40155C48.5486 9.03986 47.8842 9.06481 47.8164 9.40155C46.3248 12.4198 44.8467 15.4504 43.3551 18.4687C42.9448 19.4113 42.417 20.307 41.7821 21.1377C41.607 21.3802 41.372 21.5813 41.0963 21.7243C40.8205 21.8674 40.5119 21.9484 40.1956 21.9608H32.7783C32.7783 14.91 32.7783 7.84253 32.7783 0.758451L32.7647 0.658692ZM59.1525 10.3245C66.6241 10.3245 74.0685 10.3245 81.5537 10.3245C81.2446 11.2672 80.6854 12.1244 79.9265 12.8189C79.2337 13.513 78.3969 14.0725 77.4654 14.4645C76.5338 14.8565 75.5264 15.073 74.5025 15.1012H66.3665C66.3665 17.3586 66.3665 19.6161 66.3665 21.8735H59.1254C59.1118 17.9448 59.139 14.1159 59.1119 10.2746L59.1525 10.3245Z" fill="white"/>
<path fill-rule="evenodd" clip-rule="evenodd" d="M58.2158 0.658203H74.9896C76.4727 0.763425 77.8885 1.27131 79.0576 2.11744C79.8978 2.71949 80.5965 3.47199 81.1116 4.32945C81.6267 5.18692 81.9474 6.13154 82.0543 7.10623C82.1018 7.80957 82.0745 8.51547 81.973 9.21395C78.5558 9.21395 75.1929 9.21395 71.7216 9.21395C70.5492 9.24762 69.3756 9.20598 68.2095 9.08926C65.5414 8.83025 63.0468 7.74896 61.1312 6.02113C59.5636 4.56445 58.5422 2.68569 58.2158 0.658203Z" fill="white"/>
</g>
<defs>
<clipPath id="clip0_849_471">
<rect width="81.7804" height="21.2023" fill="white" transform="translate(0.219727 0.583984)"/>
</clipPath>
</defs>
</svg>
