<svg width="70" height="70" viewBox="0 0 70 70" fill="none" xmlns="http://www.w3.org/2000/svg">
<path d="M56.5859 18.5775C59.0469 21.0384 59.0469 24.9577 56.6771 27.3275L27.875 56.3118L14.2943 58.4993C12.8359 58.7728 11.5599 57.4967 11.8333 56.0384L14.0208 42.4577L43.0052 13.6556C45.375 11.2858 49.2943 11.2858 51.6641 13.6556L56.5859 18.5775ZM30.0625 40.2702C29.2422 39.4499 29.2422 38.265 30.0625 37.4447L40.9088 26.5983L38.2656 23.9551L22.7708 39.3587H26.5989V43.7337H30.9739V47.5618L46.3776 32.0671L43.7344 29.4238L32.888 40.2702C32.5234 40.6348 31.9766 40.8171 31.5208 40.8171C30.9739 40.8171 30.4271 40.6348 30.0625 40.2702ZM19.3073 53.6686L25.9609 52.4837L27.6927 50.8431V47.015H23.3177V42.64H19.4896L17.8489 44.3717L16.6641 51.0254L19.3073 53.6686ZM53.8516 24.502C54.6719 23.6816 54.6719 22.3145 53.7604 21.403L48.8385 16.4811C48.0182 15.6608 46.651 15.6608 45.8307 16.4811L41.3646 20.9473L49.3854 28.9681L53.8516 24.502Z" fill="#383838"/>
</svg>
