<svg width="14" height="12" viewBox="0 0 23 20" fill="none" xmlns="http://www.w3.org/2000/svg">
<path d="M14.67 12.7992H13.47C13.1325 12.7992 12.87 13.0992 12.87 13.3992V14.5992C12.87 14.9367 13.1325 15.1992 13.47 15.1992H14.67C14.97 15.1992 15.27 14.9367 15.27 14.5992V13.3992C15.27 13.0992 14.97 12.7992 14.67 12.7992ZM12.87 9.79922V10.9992C12.87 11.3367 13.1325 11.5992 13.47 11.5992H14.67C14.97 11.5992 15.27 11.3367 15.27 10.9992V9.79922C15.27 9.49922 14.97 9.19922 14.67 9.19922H13.47C13.1325 9.19922 12.87 9.49922 12.87 9.79922ZM17.07 15.1992H18.27C18.57 15.1992 18.87 14.9367 18.87 14.5992V13.3992C18.87 13.0992 18.57 12.7992 18.27 12.7992H17.07C16.7325 12.7992 16.47 13.0992 16.47 13.3992V14.5992C16.47 14.9367 16.7325 15.1992 17.07 15.1992ZM17.07 11.5992H18.27C18.57 11.5992 18.87 11.3367 18.87 10.9992V9.79922C18.87 9.49922 18.57 9.19922 18.27 9.19922H17.07C16.7325 9.19922 16.47 9.49922 16.47 9.79922V10.9992C16.47 11.3367 16.7325 11.5992 17.07 11.5992ZM20.07 1.39922H10.9575C10.695 0.724219 10.02 0.199219 9.27 0.199219H6.27C5.4825 0.199219 4.8075 0.724219 4.545 1.39922H3.27C1.92 1.39922 0.869995 2.48672 0.869995 3.79922V16.9992C0.869995 18.3492 1.92 19.3992 3.27 19.3992H20.07C21.3825 19.3992 22.47 18.3492 22.47 16.9992V3.79922C22.47 2.48672 21.3825 1.39922 20.07 1.39922ZM6.27 1.99922H9.27V13.9992H6.27V1.99922ZM20.67 16.9992C20.67 17.3367 20.37 17.5992 20.07 17.5992H3.27C2.9325 17.5992 2.67 17.3367 2.67 16.9992V3.79922C2.67 3.49922 2.9325 3.19922 3.27 3.19922H4.47V13.9992C4.47 15.0117 5.2575 15.7992 6.27 15.7992H9.27C10.245 15.7992 11.07 15.0117 11.07 13.9992V3.19922H12.87V5.89922C12.87 6.76172 13.5075 7.39922 14.37 7.39922H20.67V16.9992ZM20.67 5.59922H14.67V3.19922H20.07C20.37 3.19922 20.67 3.49922 20.67 3.79922V5.59922Z" fill="white"/>
</svg>
