<svg width="23" height="20" viewBox="0 0 23 20" fill="none" xmlns="http://www.w3.org/2000/svg">
<path d="M14.6701 12.7992H13.4701C13.1326 12.7992 12.8701 13.0992 12.8701 13.3992V14.5992C12.8701 14.9367 13.1326 15.1992 13.4701 15.1992H14.6701C14.9701 15.1992 15.2701 14.9367 15.2701 14.5992V13.3992C15.2701 13.0992 14.9701 12.7992 14.6701 12.7992ZM12.8701 9.79922V10.9992C12.8701 11.3367 13.1326 11.5992 13.4701 11.5992H14.6701C14.9701 11.5992 15.2701 11.3367 15.2701 10.9992V9.79922C15.2701 9.49922 14.9701 9.19922 14.6701 9.19922H13.4701C13.1326 9.19922 12.8701 9.49922 12.8701 9.79922ZM17.0701 15.1992H18.2701C18.5701 15.1992 18.8701 14.9367 18.8701 14.5992V13.3992C18.8701 13.0992 18.5701 12.7992 18.2701 12.7992H17.0701C16.7326 12.7992 16.4701 13.0992 16.4701 13.3992V14.5992C16.4701 14.9367 16.7326 15.1992 17.0701 15.1992ZM17.0701 11.5992H18.2701C18.5701 11.5992 18.8701 11.3367 18.8701 10.9992V9.79922C18.8701 9.49922 18.5701 9.19922 18.2701 9.19922H17.0701C16.7326 9.19922 16.4701 9.49922 16.4701 9.79922V10.9992C16.4701 11.3367 16.7326 11.5992 17.0701 11.5992ZM20.0701 1.39922H10.9576C10.6951 0.724219 10.0201 0.199219 9.27012 0.199219H6.27012C5.48262 0.199219 4.80762 0.724219 4.54512 1.39922H3.27012C1.92012 1.39922 0.870117 2.48672 0.870117 3.79922V16.9992C0.870117 18.3492 1.92012 19.3992 3.27012 19.3992H20.0701C21.3826 19.3992 22.4701 18.3492 22.4701 16.9992V3.79922C22.4701 2.48672 21.3826 1.39922 20.0701 1.39922ZM6.27012 1.99922H9.27012V13.9992H6.27012V1.99922ZM20.6701 16.9992C20.6701 17.3367 20.3701 17.5992 20.0701 17.5992H3.27012C2.93262 17.5992 2.67012 17.3367 2.67012 16.9992V3.79922C2.67012 3.49922 2.93262 3.19922 3.27012 3.19922H4.47012V13.9992C4.47012 15.0117 5.25762 15.7992 6.27012 15.7992H9.27012C10.2451 15.7992 11.0701 15.0117 11.0701 13.9992V3.19922H12.8701V5.89922C12.8701 6.76172 13.5076 7.39922 14.3701 7.39922H20.6701V16.9992ZM20.6701 5.59922H14.6701V3.19922H20.0701C20.3701 3.19922 20.6701 3.49922 20.6701 3.79922V5.59922Z" fill="#252525"/>
</svg>
