<svg width="38" height="32" viewBox="0 0 38 32" fill="none" xmlns="http://www.w3.org/2000/svg">
<path d="M22.7922 20.275C25.225 21.0404 27.8337 21.0404 30.2665 20.275M22.7922 17.6717C22.7922 17.6717 26.8327 18.8971 30.2788 17.572M32.8953 2C32.8953 2 34.2205 6.99766 32.8953 11.2199M14.2827 3.12475C14.2827 3.12475 13.9068 6.77278 14.3824 9.99545M9.13525 8.163C8.79835 8.9681 8.18912 9.62875 7.41441 10.0291C6.6397 10.4295 5.74894 10.544 4.8983 10.3527C4.04766 10.1614 3.29143 9.67646 2.76218 8.98276C2.23292 8.28914 1.96444 7.4311 2.00378 6.5591C2.04313 5.6871 2.38779 4.85679 2.97736 4.21375C3.56692 3.5707 4.36375 3.15594 5.22816 3.0422C6.09256 2.92846 6.96937 3.12299 7.70486 3.59168C8.44037 4.06037 8.98763 4.77332 9.25064 5.60553H10.9343L11.06 4.79593C11.1283 4.35575 11.3726 3.96228 11.7369 3.7059C12.0133 3.51133 12.3431 3.4069 12.6812 3.4069H14.2808L14.571 2.35661C14.5921 2.27943 14.6375 2.21115 14.7006 2.16194C14.7636 2.11273 14.8408 2.08523 14.9206 2.08354H35.0009C35.1607 2.08401 35.3158 2.13728 35.4423 2.23509C35.5687 2.3329 35.6595 2.46976 35.7002 2.62444C36.0499 3.92155 36.7493 7.35077 35.7509 10.6767C35.6959 10.8575 35.5839 11.0154 35.4316 11.1271C35.2794 11.2388 35.0952 11.2982 34.9065 11.2964H32.7996C32.7996 11.2964 31.0513 11.3961 30.9446 13.586L30.7121 16.968L30.2908 17.5719L29.9586 28.8153C29.9586 28.8153 30.0582 29.3405 29.2959 29.6118C28.5336 29.8831 25.0455 30.4748 23.2972 29.281C23.2972 29.281 22.9982 29.281 22.8671 27.8543C22.736 26.4276 22.8007 17.6717 22.8007 17.6717L22.3688 17.0747L22.1712 13.1274C22.1712 13.1274 22.138 11.636 20.3494 11.5029L15.1322 11.4417C15.013 11.4388 14.8978 11.3978 14.8034 11.3248C14.7091 11.2517 14.6405 11.1504 14.6077 11.0356L14.3804 10.2811H12.8569C12.5111 10.2811 12.1733 10.1768 11.8875 9.98195C11.5111 9.72514 11.252 9.32946 11.1671 8.8818L11.034 8.1805L9.13525 8.163Z" stroke="white" stroke-width="2.2526" stroke-miterlimit="10"/>
</svg>
