<svg width="78" height="65" viewBox="0 0 78 65" fill="none" xmlns="http://www.w3.org/2000/svg">
<path d="M17.1293 15.0148C16.3972 16.7643 15.0734 18.1998 13.39 19.0696C11.7067 19.9397 9.77112 20.1886 7.92277 19.7729C6.0744 19.3573 4.43116 18.3035 3.28115 16.7961C2.13112 15.2889 1.54773 13.4245 1.63322 11.5297C1.71871 9.63493 2.46764 7.83074 3.74871 6.43345C5.02978 5.03616 6.76123 4.13494 8.63951 3.88779C10.5178 3.64063 12.423 4.06332 14.0212 5.08176C15.6194 6.10018 16.8085 7.64936 17.38 9.45767H21.0385L21.3115 7.69848C21.4601 6.74202 21.991 5.88703 22.7825 5.32995C23.3831 4.90717 24.0997 4.68025 24.8344 4.68025H28.3101L28.9408 2.39806C28.9866 2.23036 29.0852 2.08198 29.2222 1.97505C29.3592 1.86813 29.5269 1.80836 29.7004 1.80469H73.3332C73.6803 1.80571 74.0174 1.92148 74.2922 2.13401C74.567 2.34653 74.7641 2.64392 74.8527 2.98002C75.6125 5.79853 77.1322 13.2499 74.9629 20.4769C74.8433 20.8697 74.5998 21.2129 74.269 21.4556C73.9383 21.6982 73.5381 21.8273 73.1279 21.8234H68.55C68.55 21.8234 64.7509 22.0401 64.5192 26.7986L64.0139 34.1474L63.0984 35.4596L62.3766 59.8906C62.3766 59.8906 62.593 61.0317 60.9367 61.6212C59.2803 62.2108 51.701 63.4965 47.9019 60.9023C47.9019 60.9023 47.2524 60.9023 46.9674 57.8023C46.6825 54.7023 46.8231 35.6763 46.8231 35.6763L45.8846 34.3793L45.4553 25.802C45.4553 25.802 45.3832 22.5613 41.4966 22.2722L30.1602 22.1391C29.9011 22.1329 29.6507 22.0439 29.4456 21.8851C29.2407 21.7264 29.0917 21.5062 29.0205 21.2567L28.5265 19.6173H25.2161C24.4647 19.6173 23.7307 19.3907 23.1098 18.9673C22.2919 18.4092 21.7288 17.5495 21.5444 16.5767L21.2552 15.0529L17.1293 15.0148Z" stroke="#383838" stroke-width="2.94938" stroke-miterlimit="10"/>
<path d="M46.8047 41.334C52.091 42.997 57.7595 42.997 63.0457 41.334" stroke="#383838" stroke-width="2.94938" stroke-miterlimit="10"/>
<path d="M46.8047 35.6758C46.8047 35.6758 55.5844 38.3383 63.0724 35.459" stroke="#383838" stroke-width="2.94938" stroke-miterlimit="10"/>
<path d="M68.7578 1.625C68.7578 1.625 71.6375 12.4845 68.7578 21.659" stroke="#383838" stroke-width="2.94938" stroke-miterlimit="10"/>
<path d="M28.3142 4.06641C28.3142 4.06641 27.4975 11.9933 28.5308 18.9958" stroke="#383838" stroke-width="2.94938" stroke-miterlimit="10"/>
</svg>
