<svg width="70" height="70" viewBox="0 0 70 70" fill="none" xmlns="http://www.w3.org/2000/svg">
<path d="M40.3083 64.1673H29.6917C28.3212 64.1673 27.1354 63.2136 26.8421 61.8748L25.655 56.3798C24.0714 55.686 22.5698 54.8183 21.1779 53.7927L15.82 55.499C14.5133 55.9157 13.0929 55.3657 12.4075 54.1777L7.0875 44.9873C6.40963 43.7988 6.64317 42.2996 7.65042 41.3736L11.8067 37.5819C11.6177 35.8643 11.6177 34.1312 11.8067 32.4136L7.65042 28.6307C6.64169 27.7042 6.40806 26.2032 7.0875 25.014L12.3958 15.8177C13.0812 14.6298 14.5017 14.0798 15.8083 14.4965L21.1663 16.2027C21.8781 15.6753 22.6191 15.1884 23.3858 14.7444C24.1218 14.3293 24.8793 13.9535 25.655 13.6186L26.845 8.1294C27.1369 6.79056 28.3214 5.83543 29.6917 5.83398H40.3083C41.6786 5.83543 42.8631 6.79056 43.155 8.1294L44.3567 13.6215C45.1756 13.9817 45.9732 14.3888 46.7454 14.8407C47.4656 15.2572 48.1619 15.7139 48.8308 16.2086L54.1917 14.5023C55.4975 14.0872 56.9162 14.6369 57.6013 15.8236L62.9096 25.0198C63.5875 26.2083 63.3539 27.7076 62.3467 28.6336L58.1904 32.4252C58.3794 34.1428 58.3794 35.876 58.1904 37.5936L62.3467 41.3852C63.3539 42.3112 63.5875 43.8105 62.9096 44.999L57.6013 54.1952C56.9162 55.3819 55.4975 55.9316 54.1917 55.5165L48.8308 53.8102C48.1525 54.3099 47.4476 54.7723 46.7192 55.1957C45.9545 55.6387 45.1658 56.0389 44.3567 56.3944L43.155 61.8748C42.8619 63.2125 41.6777 64.1662 40.3083 64.1673ZM22.225 47.3352L24.6167 49.0852C25.1558 49.4823 25.7177 49.8476 26.2996 50.179C26.847 50.496 27.4107 50.7842 27.9883 51.0423L30.7096 52.2352L32.0425 58.334H37.9633L39.2962 52.2323L42.0175 51.0394C43.2055 50.5155 44.333 49.8642 45.3804 49.0969L47.775 47.3469L53.7279 49.2427L56.6883 44.1152L52.0713 39.9065L52.3979 36.9548C52.5414 35.6638 52.5414 34.3608 52.3979 33.0698L52.0713 30.1182L56.6913 25.9007L53.7279 20.7702L47.775 22.6661L45.3804 20.9161C44.3327 20.1452 43.2053 19.4891 42.0175 18.959L39.2962 17.7661L37.9633 11.6673H32.0425L30.7038 17.769L27.9883 18.959C27.4103 19.2129 26.8465 19.4981 26.2996 19.8136C25.7213 20.1441 25.1624 20.5073 24.6254 20.9015L22.2308 22.6515L16.2808 20.7557L13.3146 25.9007L17.9317 30.1036L17.605 33.0582C17.4615 34.3492 17.4615 35.6521 17.605 36.9432L17.9317 39.8948L13.3146 44.1036L16.275 49.2311L22.225 47.3352ZM34.9883 46.6673C28.545 46.6673 23.3217 41.444 23.3217 35.0007C23.3217 28.5573 28.545 23.334 34.9883 23.334C41.4317 23.334 46.655 28.5573 46.655 35.0007C46.647 41.4406 41.4283 46.6593 34.9883 46.6673ZM34.9883 29.1673C31.8016 29.1705 29.2072 31.7306 29.1615 34.9171C29.1158 38.1035 31.6358 40.7369 34.8212 40.8314C38.0065 40.926 40.6783 38.4467 40.8217 35.2632V36.4298V35.0007C40.8217 31.779 38.21 29.1673 34.9883 29.1673Z" fill="#383838"/>
</svg>
