<svg width="24" height="25" viewBox="0 0 24 25" fill="none" xmlns="http://www.w3.org/2000/svg">
<path d="M12 0.917969C5.5781 0.917969 0.375 6.12107 0.375 12.543C0.375 18.9649 5.5781 24.168 12 24.168C18.4219 24.168 23.625 18.9649 23.625 12.543C23.625 6.12107 18.4219 0.917969 12 0.917969ZM12 21.918C6.7969 21.918 2.625 17.7461 2.625 12.543C2.625 7.38677 6.7969 3.16797 12 3.16797C17.1562 3.16797 21.375 7.38677 21.375 12.543C21.375 17.7461 17.1562 21.918 12 21.918ZM14.8594 17.043C15.1406 17.2305 15.4688 17.1836 15.6562 16.9024L16.5469 15.7305C16.7344 15.4493 16.6875 15.1211 16.4062 14.9336L13.3125 12.6368V5.98047C13.3125 5.69927 13.0312 5.41797 12.75 5.41797H11.25C10.9219 5.41797 10.6875 5.69927 10.6875 5.98047V13.7149C10.6875 13.8555 10.7344 14.043 10.875 14.1368L14.8594 17.043Z" fill="#333333"/>
</svg>
