<svg width="16" height="17" viewBox="0 0 16 17" fill="none" xmlns="http://www.w3.org/2000/svg">
<path d="M15.625 0.972656C15.8125 0.972656 16 1.16016 16 1.34766V7.34766C16 7.56641 15.8125 7.72266 15.625 7.72266H9.625C9.40625 7.72266 9.25 7.56641 9.25 7.34766V6.50391C9.25 6.28516 9.40625 6.12891 9.625 6.12891L13.5625 6.22266C12.5938 4.09766 10.4688 2.59766 8 2.59766C5.03125 2.59766 2.59375 4.69141 2 7.44141C1.96875 7.62891 1.8125 7.72266 1.625 7.72266H0.75C0.5 7.72266 0.3125 7.53516 0.375 7.28516C1.03125 3.69141 4.1875 0.972656 8 0.972656C10.6875 0.972656 13.0625 2.37891 14.4375 4.44141L14.375 1.37891C14.375 1.16016 14.5312 0.972656 14.75 0.972656H15.625ZM15.2188 9.72266C15.4688 9.72266 15.6562 9.94141 15.5938 10.1914C14.9375 13.7852 11.7812 16.4727 8 16.4727C5.28125 16.4727 2.90625 15.0977 1.53125 13.0352L1.59375 16.0977C1.59375 16.3164 1.4375 16.4727 1.21875 16.4727H0.375C0.15625 16.4727 0 16.3164 0 16.0977V10.0977C0 9.91016 0.15625 9.72266 0.375 9.72266H6.375C6.5625 9.72266 6.75 9.91016 6.75 10.0977V10.9727C6.75 11.1914 6.5625 11.3477 6.34375 11.3477L2.40625 11.2539C3.375 13.3789 5.5 14.8477 8 14.8477C10.9375 14.8477 13.375 12.7852 13.9688 10.0352C14 9.84766 14.1562 9.72266 14.3438 9.72266H15.2188Z" fill="#181818"/>
</svg>
