<svg width="20" height="19" viewBox="0 0 20 19" fill="none" xmlns="http://www.w3.org/2000/svg">
<path d="M19.5191 0.382812H18.4691C18.2066 0.382812 18.0191 0.607813 18.0191 0.870313L18.0941 4.54527C16.4441 2.07027 13.5941 0.382812 10.3691 0.382812C5.7941 0.382812 2.00664 3.64527 1.21914 7.95777C1.14414 8.25777 1.36914 8.48277 1.66914 8.48277H2.71914C2.94414 8.48277 3.1316 8.37027 3.1691 8.14527C3.8816 4.84527 6.8066 2.33277 10.3691 2.33277C13.3316 2.33277 15.8816 4.13277 17.0441 6.68277L12.3191 6.57027C12.0566 6.57027 11.8691 6.75777 11.8691 7.02027V8.03277C11.8691 8.29527 12.0566 8.48277 12.3191 8.48277H19.5191C19.7441 8.48277 19.9691 8.29527 19.9691 8.03277V0.832812C19.9691 0.607812 19.7441 0.382812 19.5191 0.382812ZM19.0316 10.8828H17.9816C17.7566 10.8828 17.5691 11.0328 17.5316 11.2578C16.8191 14.5578 13.8941 17.0328 10.3691 17.0328C7.3691 17.0328 4.8191 15.2703 3.6566 12.7203L8.3816 12.8328C8.6441 12.8328 8.8691 12.6453 8.8691 12.3828V11.3328C8.8691 11.1078 8.6441 10.8828 8.4191 10.8828H1.21914C0.95664 10.8828 0.76914 11.1078 0.76914 11.3328V18.5328C0.76914 18.7953 0.95664 18.9828 1.21914 18.9828H2.23164C2.49414 18.9828 2.68164 18.7953 2.68164 18.5328L2.60664 14.8578C4.2566 17.3328 7.1066 18.9828 10.3691 18.9828C14.9066 18.9828 18.6941 15.7578 19.4816 11.4453C19.5566 11.1453 19.3316 10.8828 19.0316 10.8828Z" fill="#333333"/>
</svg>
