<svg width="218" height="70" viewBox="0 0 218 70" fill="none" xmlns="http://www.w3.org/2000/svg">
<path d="M101.081 5.83398H92.9987L90.1416 27.2941H95.9197L96.2103 23.389H98.16L98.4436 27.2798H104.282L101.081 5.83398ZM98.1387 19.4731H96.2103L97.0469 10.6005C97.0469 10.6005 98.2132 19.4229 98.1387 19.4731Z" fill="white"/>
<path d="M161.276 23.3639C161.382 24.1216 161.681 24.8381 162.145 25.4421C162.722 26.1705 163.484 26.7263 164.35 27.0501C165.433 27.4812 166.589 27.691 167.753 27.6674C168.785 27.6845 169.812 27.5056 170.78 27.1398C171.587 26.8289 172.296 26.3031 172.832 25.618C173.364 24.9432 173.673 23.669 173.779 23.0301C173.921 22.0211 173.977 21.0016 173.945 19.9829V5.8125H168.345V21.7667C168.385 22.4241 168.333 23.0841 168.189 23.7264C168.137 23.8609 168.043 23.9742 167.921 24.0489C167.8 24.1236 167.657 24.1553 167.515 24.1392C167.387 24.1535 167.257 24.1266 167.144 24.0622C167.032 23.9978 166.942 23.8992 166.888 23.7803C166.758 23.2099 166.709 22.6238 166.742 22.0395V5.81968H161.142V18.3821C161.142 20.733 161.184 22.6353 161.269 23.3568" fill="white"/>
<path d="M217.26 5.80908H211.666V27.2836H217.26V5.80908Z" fill="white"/>
<path d="M200.489 18.1272H202.165V27.2798H207.756V5.8125H202.165V13.4576H200.489V5.8125H194.895V27.2798H200.489V18.1272Z" fill="white"/>
<path d="M180.486 26.8205C181.748 27.4325 183.139 27.7244 184.538 27.6712C185.931 27.716 187.31 27.3694 188.522 26.6698C189.455 26.1568 190.189 25.338 190.603 24.3475C190.918 23.4681 191.074 21.3433 191.074 19.2364V18.3965H185.473V21.6269C185.515 22.3432 185.45 23.0618 185.282 23.7589C185.192 23.8981 185.068 24.0124 184.924 24.0915C184.779 24.1706 184.617 24.212 184.452 24.212C184.288 24.212 184.126 24.1706 183.981 24.0915C183.836 24.0124 183.713 23.8981 183.623 23.7589C183.495 23.461 183.456 22.8149 183.456 21.8243V11.7492C183.456 10.7155 183.495 9.68542 183.623 9.36957C183.751 9.05372 184.013 8.91732 184.47 8.91732C184.927 8.91732 185.179 9.03936 185.289 9.27625C185.399 9.51314 185.473 10.5361 185.473 11.559V15.1088H191.064V13.1814C191.064 11.2755 190.89 9.52391 190.557 8.62659C190.148 7.64052 189.4 6.83823 188.451 6.36896C187.223 5.72715 185.851 5.4192 184.47 5.47523C183.337 5.45246 182.21 5.64858 181.149 6.0531C180.287 6.38287 179.527 6.93911 178.947 7.66468C178.454 8.27415 178.129 9.00468 178.004 9.78233C177.874 10.9956 177.818 12.2159 177.838 13.4362V19.3728C177.838 21.372 178.019 23.4825 178.366 24.4803C178.745 25.5125 179.508 26.3529 180.493 26.8205" fill="white"/>
<path d="M112.039 27.269L112.035 13.1417L114.017 27.2654H117.392L119.497 13.1956V27.2654H124.417L124.389 5.8125H117.147L115.768 15.8122L114.389 5.8125H107.147L107.151 27.2654L112.039 27.269Z" fill="white"/>
<path d="M80.068 27.2871H85.2364V19.4769L89.3271 5.83057H84.1836L82.7515 14.2617L81.2697 5.83057H76.1368L80.068 19.4769V27.2871Z" fill="white"/>
<path d="M133.467 23.3819H135.417L135.697 27.2726H141.535L138.345 5.82324H130.255L127.398 27.2834H133.176L133.467 23.3819ZM134.3 10.6041C134.3 10.6041 135.466 19.4301 135.395 19.4732H133.467L134.3 10.6041Z" fill="white"/>
<path d="M145.13 25.331C145.576 26.0383 146.195 26.6169 146.927 27.0108C147.738 27.4416 148.642 27.6624 149.557 27.6533C150.348 27.6533 151.184 27.5348 151.72 27.1436C152.356 26.738 152.866 26.1581 153.191 25.471L153.705 27.2657H157.25V15.9021H150.78V18.7555H151.773V21.6951C151.815 22.3472 151.739 23.0015 151.549 23.6262C151.48 23.7868 151.362 23.921 151.212 24.0093C151.062 24.0977 150.889 24.1357 150.716 24.1179C150.561 24.1348 150.404 24.102 150.268 24.0242C150.132 23.9463 150.024 23.8272 149.958 23.6836C149.806 23.09 149.745 22.4762 149.777 21.8638V11.3796C149.777 10.3316 149.844 9.67115 149.958 9.42349C150.047 9.29346 150.168 9.18968 150.309 9.12282C150.451 9.05595 150.607 9.02841 150.762 9.04303C151.163 9.04303 151.471 9.12558 151.599 9.42349C151.716 9.86842 151.774 10.327 151.773 10.7874C151.773 11.0243 151.773 11.394 151.773 11.6847V13.4111H157.253V12.9445C157.253 11.2648 157.076 9.71422 156.743 8.81332C156.409 7.91242 155.704 7.16585 154.616 6.51261C153.365 5.80386 151.951 5.44578 150.518 5.47532C149.063 5.43899 147.633 5.85897 146.424 6.67772C145.36 7.4171 144.726 8.23545 144.506 9.12199C144.234 10.624 144.115 12.1502 144.151 13.6768V19.8933C144.129 21.0324 144.183 22.1716 144.314 23.3031C144.427 24.0317 144.701 24.7251 145.116 25.331" fill="white"/>
<path d="M84.4442 64.0629C83.159 64.0629 81.943 63.9344 80.7963 63.6774C79.6495 63.4006 78.7399 63.1336 78.0677 62.8766L78.8685 58.9617C79.6198 59.1594 80.47 59.3769 81.4191 59.6142C82.3879 59.8317 83.3271 59.9404 84.2366 59.9404C84.9286 59.9404 85.5218 59.8515 86.0161 59.6735C86.5302 59.4956 86.9256 59.2385 87.2024 58.9024C87.4792 58.5663 87.6176 58.1708 87.6176 57.7161C87.6176 57.1822 87.4397 56.7373 87.0838 56.3814C86.7279 56.0255 86.2534 55.6993 85.6602 55.4027C85.067 55.1061 84.4146 54.8096 83.7028 54.513C83.07 54.2164 82.4373 53.9 81.8046 53.5639C81.1719 53.208 80.5886 52.7928 80.0548 52.3183C79.5209 51.824 79.0958 51.2407 78.7795 50.5684C78.4631 49.8962 78.305 49.0954 78.305 48.1661C78.305 46.8018 78.651 45.6452 79.343 44.6961C80.035 43.747 80.994 43.0254 82.2198 42.5311C83.4457 42.017 84.8298 41.7599 86.372 41.7599C87.4199 41.7599 88.4283 41.8687 89.3971 42.0862C90.366 42.2839 91.1964 42.5311 91.8884 42.8276L91.1766 46.7425C90.6428 46.5448 89.9409 46.357 89.0709 46.179C88.2207 45.9813 87.3804 45.8824 86.5499 45.8824C85.5613 45.8824 84.7803 46.0703 84.2069 46.4459C83.6533 46.8018 83.3765 47.2863 83.3765 47.8992C83.3765 48.3935 83.5545 48.8186 83.9104 49.1745C84.286 49.5106 84.7705 49.827 85.3636 50.1236C85.9568 50.4004 86.5895 50.697 87.2617 51.0133C87.9142 51.2901 88.5568 51.6065 89.1895 51.9624C89.842 52.2985 90.4352 52.7137 90.969 53.208C91.5029 53.6826 91.928 54.2559 92.2443 54.9282C92.5805 55.6004 92.7485 56.4012 92.7485 57.3305C92.7485 58.6948 92.4124 59.8811 91.7401 60.8895C91.0877 61.8979 90.1386 62.6789 88.893 63.2325C87.6473 63.7861 86.1644 64.0629 84.4442 64.0629Z" fill="white"/>
<path d="M96.9431 42.1158H110.408L110.171 46.268H101.985V50.5981H109.666L109.429 54.7206H101.985V59.5549H110.823L110.556 63.707H96.9431V42.1158Z" fill="white"/>
<path d="M114.993 42.2938C115.883 42.1949 116.871 42.1257 117.959 42.0862C119.046 42.0466 120.193 42.0269 121.399 42.0269C123.475 42.0269 125.185 42.2542 126.53 42.709C127.874 43.1638 128.873 43.8657 129.525 44.8147C130.198 45.744 130.534 46.96 130.534 48.4627C130.534 49.392 130.346 50.2422 129.97 51.0133C129.614 51.7647 129.14 52.4072 128.547 52.9411C127.973 53.4552 127.35 53.8407 126.678 54.0978V54.1571L131.394 63.707H125.996L122.259 55.4324H119.975V63.707H114.993V42.2938ZM121.992 51.6361C122.625 51.6361 123.198 51.5373 123.712 51.3396C124.226 51.1221 124.642 50.7958 124.958 50.3608C125.294 49.9258 125.462 49.3821 125.462 48.7296C125.462 47.7015 125.166 46.9798 124.572 46.5646C123.999 46.1296 123.188 45.9121 122.141 45.9121C121.686 45.9121 121.28 45.922 120.925 45.9418C120.569 45.9615 120.252 45.9813 119.975 46.0011V51.6361H121.992Z" fill="white"/>
<path d="M133.207 42.1158H138.724L141.749 54.424L142.935 59.1397H142.994L144.181 54.424L147.206 42.1158H152.722L146.079 63.707H139.851L133.207 42.1158Z" fill="white"/>
<path d="M155.958 42.1158H161V63.707H155.958V42.1158Z" fill="white"/>
<path d="M175.982 64.0629C174.064 64.0629 172.423 63.7762 171.058 63.2028C169.694 62.6097 168.577 61.8089 167.707 60.8005C166.837 59.7724 166.194 58.6058 165.779 57.3009C165.384 55.9761 165.186 54.5921 165.186 53.1487C165.186 50.8156 165.641 48.7988 166.55 47.0984C167.46 45.398 168.745 44.0832 170.406 43.1539C172.067 42.2246 173.994 41.7599 176.189 41.7599C177.316 41.7599 178.364 41.8588 179.333 42.0565C180.322 42.2345 181.083 42.452 181.617 42.709L181.023 46.7425C180.411 46.5053 179.709 46.3075 178.918 46.1494C178.147 45.9912 177.346 45.9121 176.515 45.9121C175.349 45.9121 174.301 46.1691 173.372 46.6832C172.462 47.1973 171.75 47.9684 171.236 48.9965C170.722 50.0247 170.465 51.3395 170.465 52.9411C170.465 54.424 170.702 55.6894 171.177 56.7373C171.651 57.7655 172.343 58.5564 173.253 59.11C174.182 59.6439 175.29 59.9108 176.575 59.9108C177.306 59.9108 178.068 59.8416 178.858 59.7032C179.669 59.5648 180.371 59.3769 180.964 59.1397L181.439 63.1435C180.905 63.3808 180.144 63.5884 179.155 63.7663C178.166 63.9641 177.109 64.0629 175.982 64.0629Z" fill="white"/>
<path d="M185.599 42.1158H199.064L198.827 46.268H190.641V50.5981H198.323L198.085 54.7206H190.641V59.5549H199.479L199.212 63.707H185.599V42.1158Z" fill="white"/>
<path d="M209.403 64.0629C208.117 64.0629 206.901 63.9344 205.755 63.6774C204.608 63.4006 203.698 63.1336 203.026 62.8766L203.827 58.9617C204.578 59.1594 205.428 59.3769 206.378 59.6142C207.346 59.8317 208.286 59.9404 209.195 59.9404C209.887 59.9404 210.48 59.8515 210.975 59.6735C211.489 59.4956 211.884 59.2385 212.161 58.9024C212.438 58.5663 212.576 58.1708 212.576 57.7161C212.576 57.1822 212.398 56.7373 212.042 56.3814C211.686 56.0255 211.212 55.6993 210.619 55.4027C210.025 55.1061 209.373 54.8096 208.661 54.513C208.029 54.2164 207.396 53.9 206.763 53.5639C206.13 53.208 205.547 52.7928 205.013 52.3183C204.479 51.824 204.054 51.2407 203.738 50.5684C203.422 49.8962 203.263 49.0954 203.263 48.1661C203.263 46.8018 203.609 45.6452 204.301 44.6961C204.993 43.747 205.952 43.0254 207.178 42.5311C208.404 42.017 209.788 41.7599 211.33 41.7599C212.378 41.7599 213.387 41.8687 214.356 42.0862C215.324 42.2839 216.155 42.5311 216.847 42.8276L216.135 46.7425C215.601 46.5448 214.899 46.357 214.029 46.179C213.179 45.9813 212.339 45.8824 211.508 45.8824C210.52 45.8824 209.739 46.0703 209.165 46.4459C208.612 46.8018 208.335 47.2863 208.335 47.8992C208.335 48.3935 208.513 48.8186 208.869 49.1745C209.244 49.5106 209.729 49.827 210.322 50.1236C210.915 50.4004 211.548 50.697 212.22 51.0133C212.873 51.2901 213.515 51.6065 214.148 51.9624C214.8 52.2985 215.394 52.7137 215.927 53.208C216.461 53.6826 216.886 54.2559 217.203 54.9282C217.539 55.6004 217.707 56.4012 217.707 57.3305C217.707 58.6948 217.371 59.8811 216.699 60.8895C216.046 61.8979 215.097 62.6789 213.851 63.2325C212.606 63.7861 211.123 64.0629 209.403 64.0629Z" fill="white"/>
<path d="M63.8786 34.9618C63.8786 51.3743 50.7383 64.6793 34.5289 64.6793C18.3196 64.6793 5.1793 51.3743 5.1793 34.9618C5.1793 18.5493 18.3196 5.2443 34.5289 5.2443C50.7383 5.2443 63.8786 18.5493 63.8786 34.9618Z" fill="white"/>
<path d="M34.5225 6.73979e-07C41.352 -0.00135682 48.0286 2.04796 53.7078 5.88878C59.387 9.7296 63.8137 15.1894 66.4282 21.5777C69.0427 27.966 69.7274 34.9959 68.3959 41.7782C67.0643 48.5606 63.7763 54.7908 58.9475 59.681C54.1188 64.5712 47.9663 67.9016 41.2681 69.2512C34.5699 70.6008 27.6269 69.9088 21.3171 67.2628C15.0073 64.6169 9.61413 60.1357 5.8197 54.3862C2.02528 48.6366 1.31596e-07 41.8768 0 34.9617C-1.76435e-07 25.6905 3.63697 16.7989 10.111 10.2425C16.585 3.68608 25.3659 0.00182071 34.5225 6.73979e-07ZM51.577 24.5432C52.3401 23.7705 52.7689 22.7225 52.7689 21.6297C52.7689 20.537 52.3401 19.489 51.577 18.7163C50.8138 17.9436 49.7788 17.5095 48.6996 17.5095C47.6203 17.5095 46.5853 17.9436 45.8221 18.7163L35.0987 29.574H34.2717L23.5482 18.7163C22.7851 17.9427 21.7497 17.5077 20.6698 17.507C19.5899 17.5064 18.554 17.9401 17.79 18.7128C17.0259 19.4855 16.5963 20.5339 16.5957 21.6273C16.5951 22.7207 17.0234 23.7696 17.7866 24.5432L30.53 37.4325V55.8811C30.5731 56.9541 31.0243 57.9686 31.7893 58.7123C32.5543 59.4561 33.5738 59.8714 34.6343 59.8714C35.6949 59.8714 36.7143 59.4561 37.4793 58.7123C38.2443 57.9686 38.6956 56.9541 38.7387 55.8811V37.5355L51.577 24.5432Z" fill="#E03638"/>
</svg>
