<svg width="70" height="70" viewBox="0 0 70 70" fill="none" xmlns="http://www.w3.org/2000/svg">
<path d="M58.0443 22.5879C59.2292 27.3275 57.7708 32.4316 54.3073 35.8952C50.8438 39.3587 46.013 40.7259 41.2734 39.6322L24.5026 56.3118C23.1354 57.7702 21.2214 58.4993 19.3073 58.4993C17.3021 58.4993 15.388 57.7702 14.0208 56.3118C12.5625 54.9447 11.8333 53.0306 11.8333 51.1165C11.8333 49.1113 12.5625 47.1973 14.0208 45.8301L30.7005 29.0592C29.6068 24.3197 30.974 19.3978 34.4375 16.0254C37.901 12.4707 42.9141 11.1035 47.7448 12.2884C48.9297 12.5618 49.75 13.4733 50.1146 14.5671C50.388 15.6608 50.1146 16.8457 49.2943 17.666L43.9167 22.9525L44.3724 25.9603L47.3802 26.416L52.7578 21.0384C53.487 20.3092 54.6719 19.9447 55.7656 20.3092C56.9505 20.5827 57.7708 21.4941 58.0443 22.5879ZM51.2083 32.7962C53.1224 30.9733 54.125 28.4212 54.125 25.8691L48.8385 31.1556L40.6354 29.6973L39.2682 21.4941L44.4635 16.2988H44.3724C41.8203 16.2988 39.3594 17.2103 37.5365 19.1243C34.8932 21.6764 34.0729 25.5046 35.2578 29.0592L35.6224 30.3353L17.0286 48.8379C16.4818 49.4759 16.2083 50.2051 16.2083 51.1165C16.2083 51.9368 16.4818 52.666 17.0286 53.304C18.2135 54.3978 20.3099 54.3978 21.4948 53.304L39.9974 34.7103L41.2734 35.166C44.8281 36.2598 48.6563 35.4395 51.2083 32.7962ZM19.8542 49.1113C20.5833 49.1113 21.3125 49.7493 21.3125 50.5697C21.3125 51.2988 20.5833 52.028 19.8542 52.028C19.0339 52.028 18.3958 51.2988 18.3958 50.5697C18.3958 49.7493 19.0339 49.1113 19.8542 49.1113Z" fill="#383838"/>
</svg>
